<svg width="320" height="318" viewBox="0 0 320 318" fill="none" xmlns="http://www.w3.org/2000/svg">
<g clip-path="url(#clip0_1289_12550)">
<path d="M311.668 229.312C310.332 223.405 309.725 217.207 306.276 211.928C305.232 210.355 303.993 208.902 303.07 207.28C300.811 203.261 297.896 201.082 295.127 202.22C292.868 203.14 290.706 204.641 289.03 206.408C288.35 207.135 289.054 209.144 289.078 210.597C289.078 213.115 287.135 213.793 285.289 214.325C283.492 214.834 282.569 213.841 282.01 212.025C280.82 208.152 280.164 204.617 283.807 201.493C285.799 199.774 285.945 197.571 284.366 195.247C283.735 194.351 283.686 193.068 283.37 191.954C282.204 187.79 281.84 183.141 279.678 179.606C275.719 173.166 275.597 165.346 271.419 159.1C269.962 156.896 268.407 154.693 267.387 152.272C265.954 148.834 262.141 147.962 260.246 145.178C255.048 137.503 247.761 132.177 240.231 127.068C236.806 124.744 234.158 121.354 229.543 120.797C226.993 120.483 224.126 119.635 222.207 118.037C218.442 114.89 214.022 113.921 209.528 112.832C205.617 111.864 201.755 110.677 197.844 109.66C196.775 109.37 195.61 109.152 194.516 109.249C188.833 109.709 183.392 108.813 178.072 106.707C176.542 106.101 174.744 105.956 173.068 105.859C171.003 105.738 168.915 105.859 166.826 105.956C164.154 106.077 161.506 106.247 158.858 106.416C157.717 106.489 156.575 106.682 155.433 106.731C152.179 106.852 148.924 106.924 145.669 107.021C143.167 107.094 140.689 107.118 138.187 107.167C131.653 107.288 125.071 106.9 118.804 109.249C113.824 111.113 108.578 112.638 104.035 115.277C95.5336 120.241 86.7406 125.059 81.3481 133.896C81.0566 134.38 80.7409 134.937 80.2793 135.252C74.2554 139.392 70.4904 145.251 67.4298 151.691C67.0169 152.563 66.6039 153.458 66.0452 154.233C62.0374 159.705 59.0254 165.612 57.908 172.367C57.4951 174.885 55.8676 175.733 53.7544 174.958C52.2727 174.425 50.9853 173.166 49.7465 172.077C48.9206 171.35 48.4591 169.704 47.6575 169.559C43.0181 168.711 38.2329 167.356 33.642 167.791C27.0351 168.421 22.3228 172.416 18.5578 178.226C14.307 184.836 10.7606 191.494 9.37606 199.266C7.60287 209.289 8.59877 218.562 14.7442 227.157C18.995 233.113 25.3591 234.614 31.6017 236.575C32.3547 236.818 33.472 236.212 34.3222 235.825C36.0711 235.05 37.8685 234.251 39.496 233.259C41.2935 232.145 42.9695 231.54 44.8156 233.138C44.9127 234.784 44.767 236.503 45.107 238.125C45.4957 239.989 46.0787 241.757 46.7588 243.476C54.4345 231.467 67.8427 223.501 83.1699 223.501C107.023 223.501 126.358 242.774 126.358 266.549C126.358 278.679 121.306 289.598 113.217 297.418C114.31 297.902 115.427 298.363 116.52 298.871C118.439 299.718 120.213 301.074 122.204 301.631C134.52 305.045 147.126 307.224 159.684 309.597C162.065 310.057 164.639 309.548 167.117 309.33C170.348 309.04 173.554 308.58 176.76 308.144C183.513 307.248 190.411 306.861 196.97 305.166C200.468 304.27 203.237 304.076 205.981 306.134C206.783 305.529 207.463 304.9 208.143 304.343C194.735 297.031 185.626 282.843 185.626 266.549C185.626 242.774 204.961 223.501 228.814 223.501C252.667 223.501 271.079 241.926 271.93 264.951C272.051 265.266 272.172 265.605 272.342 265.895C274.334 269.115 279.945 272.166 283.2 270.834C288.933 268.462 294.738 265.871 298.26 260.254C300.592 256.526 302.997 252.797 305.086 248.923C307.126 245.122 309.094 241.2 310.575 237.157C311.474 234.711 312.154 231.733 311.62 229.312H311.668ZM53.973 207.74C51.4468 208.612 49.5522 207.28 48.0705 205.27C46.5887 203.285 45.0828 201.324 43.4067 199.145C39.4474 201.518 40.1275 205.537 39.3745 208.878C39.1316 209.967 39.5203 211.178 39.4474 212.34C39.326 214.664 37.8442 215.899 35.6581 215.899C33.2048 215.899 32.2575 214.083 32.4518 211.953C32.9619 206.239 33.6906 200.525 34.395 194.278C32.4518 193.237 30.2414 192.414 28.4925 191.01C27.4966 190.211 26.5493 188.274 26.8408 187.185C27.1322 186.047 28.8569 184.86 30.1442 184.546C31.4802 184.207 33.2048 184.618 34.5408 185.175C36.8483 186.144 39.1316 187.281 41.1477 188.71C45.2285 191.615 49.1635 194.739 53.0985 197.838C53.9973 198.54 54.8474 199.435 55.4061 200.404C56.6449 202.631 55.819 207.135 53.973 207.764V207.74ZM302.827 223.356C300.811 225.366 298.406 226.988 296.001 228.876C296.001 234.856 296.123 240.958 295.928 247.059C295.88 248.899 295.224 250.86 294.349 252.482C293.742 253.62 291.969 255.17 291.192 254.928C289.783 254.516 288.398 253.088 287.645 251.732C287.062 250.715 287.014 248.947 287.524 247.858C289.71 243.209 288.641 238.464 288.544 233.646C287.354 233.234 286.188 233.016 285.216 232.46C281.451 230.305 281.5 227.666 284.852 224.833C289.273 221.08 294.69 220.015 300.009 218.683C301.029 218.417 302.9 219.022 303.41 219.846C303.896 220.62 303.531 222.606 302.802 223.308L302.827 223.356Z" fill="#FFECE6"/>
<path d="M126.407 266.525C126.407 242.749 107.071 223.477 83.2184 223.477C67.8913 223.477 54.4588 231.467 46.8073 243.452C49.1392 249.359 52.7827 254.661 55.1632 260.569C55.3575 261.053 55.8919 261.44 56.3291 261.804C60.8471 265.581 65.778 268.994 69.8345 273.231C75.4213 279.066 82.2954 283.085 88.6352 287.855C90.5055 289.259 92.4002 290.349 94.9749 290.034C96.1894 289.889 97.5983 290.591 98.8371 291.099C103.671 293.181 108.505 295.288 113.338 297.418C121.427 289.598 126.479 278.655 126.479 266.549L126.407 266.525Z" fill="#FFDFDC"/>
<path d="M228.863 223.502C205.01 223.502 185.675 242.774 185.675 266.549C185.675 282.867 194.784 297.055 208.192 304.343C208.872 303.786 209.528 303.302 210.281 302.987C212.686 301.946 215.26 301.195 217.835 300.614C226.725 298.556 235.033 295.264 242.514 289.961C249.437 285.071 256.675 280.543 263.282 275.241C266.076 273.013 270.375 270.471 268.043 265.266C267.873 264.903 269.015 263.692 269.768 263.329C270.132 263.135 271.104 263.862 271.638 264.346C271.808 264.491 271.881 264.709 271.978 264.927C271.128 241.902 252.182 223.477 228.863 223.477V223.502Z" fill="#FFDFDC"/>
<path d="M52.5641 162.707C54.1673 155.71 57.325 150.529 61.09 145.638C62.8389 143.362 64.1749 140.772 65.9481 138.52C69.1544 134.453 72.1907 130.167 75.9071 126.632C81.2752 121.524 87.0077 116.73 92.9346 112.251C100.076 106.852 108.432 103.898 117.103 101.864C121.208 100.896 125.362 100 129.564 99.4916C132.528 99.1285 135.564 99.6369 138.552 99.4916C147.976 98.9832 157.401 97.9179 166.826 97.9663C173.675 97.9905 180.55 99.3706 187.399 100.242C188.905 100.436 190.411 101.356 191.869 101.259C197.966 100.799 203.552 102.978 209.358 104.14C220.118 106.295 229.397 112.106 239.041 116.633C247.129 120.41 254.659 125.93 260.805 133.097C265.104 138.109 270.278 142.515 273.921 147.987C278.585 154.984 282.253 162.61 285.022 170.648C287.572 178.081 290.414 185.393 293.305 193.286C294.228 193.528 295.661 194.133 297.167 194.327C303.191 195.102 307.005 198.903 310.551 203.382C316.915 211.444 318.057 221.201 319.854 230.741C320.073 231.854 320.121 233.138 319.781 234.179C317.498 240.885 315.798 247.906 312.543 254.104C308.729 261.344 302.924 267.348 296.754 272.82C294.811 274.539 292.576 276.016 290.293 277.275C284.22 280.616 278.002 278.049 271.152 277.493C270.083 278.897 268.772 280.737 267.314 282.456C266.367 283.594 265.274 284.659 264.084 285.531C255.849 291.559 246.862 296.159 237.292 299.718C235.688 300.324 234.304 301.534 232.701 302.164C228.79 303.713 224.831 305.118 220.847 306.498C215.576 308.313 210.257 310.057 204.961 311.848C202.411 312.72 200.006 313.228 197.091 312.744C194.759 312.357 192.112 314.269 189.561 314.875C187.351 315.383 185.043 315.48 182.784 315.77C180.89 316.013 178.874 315.94 177.1 316.569C171.611 318.555 166.097 317.78 160.534 317.247C157.109 316.933 153.49 317.732 150.211 316.981C139.353 314.487 128.325 312.26 117.929 308.41C111.905 306.183 105.833 304.004 99.833 301.704C98.0841 301.026 96.5781 299.791 94.9021 298.895C87.5421 294.876 80.0607 291.099 72.8708 286.814C70.126 285.167 68.3042 282.068 65.6566 280.18C58.0537 274.781 53.3657 266.815 47.3903 260.012C46.6373 259.165 45.5928 258.172 45.52 257.204C45.1313 251.344 39.4474 248.56 38.2815 242.556C35.1723 245.413 32.719 245.292 29.7556 243.912C27.618 242.919 24.6789 243.742 22.4685 242.846C13.724 239.311 7.65142 232.339 3.01198 224.688C-0.631558 218.635 -0.170043 211.154 0.582955 204.06C0.801567 201.978 0.728697 199.847 1.19021 197.838C2.04037 194.158 3.01198 190.502 4.29937 186.967C7.38423 178.493 12.6795 171.084 19.1407 165.298C25.6748 159.439 34.3464 157.235 43.4553 160.141C46.3701 161.085 49.3335 161.86 52.6127 162.828L52.5641 162.707ZM206.054 306.134C207.633 304.924 208.823 303.616 210.305 302.963C212.71 301.922 215.285 301.171 217.859 300.59C226.75 298.532 235.057 295.239 242.538 289.937C249.461 285.046 256.7 280.519 263.307 275.217C266.1 272.989 270.399 270.447 268.067 265.242C267.897 264.878 269.039 263.668 269.792 263.305C270.156 263.111 271.128 263.837 271.662 264.322C272.051 264.685 272.124 265.363 272.415 265.871C274.407 269.091 280.018 272.142 283.273 270.81C289.006 268.438 294.811 265.847 298.333 260.23C300.665 256.501 303.07 252.773 305.159 248.899C307.199 245.098 309.167 241.176 310.648 237.132C311.547 234.687 312.227 231.709 311.693 229.288C310.357 223.38 309.749 217.182 306.3 211.904C305.256 210.331 304.017 208.878 303.094 207.256C300.835 203.237 297.92 201.058 295.151 202.196C292.892 203.116 290.73 204.617 289.054 206.384C288.374 207.111 289.078 209.12 289.103 210.573C289.103 213.091 287.16 213.769 285.313 214.301C283.516 214.81 282.593 213.817 282.034 212.001C280.844 208.127 280.188 204.593 283.832 201.469C285.824 199.75 285.969 197.547 284.39 195.223C283.759 194.327 283.71 193.044 283.395 191.93C282.229 187.766 281.864 183.117 279.702 179.582C275.743 173.142 275.622 165.322 271.444 159.075C269.986 156.872 268.432 154.669 267.412 152.248C265.978 148.81 262.165 147.938 260.27 145.154C255.072 137.479 247.785 132.153 240.255 127.044C236.83 124.72 234.182 121.33 229.567 120.773C227.017 120.459 224.151 119.611 222.232 118.013C218.467 114.866 214.046 113.897 209.552 112.808C205.641 111.839 201.779 110.653 197.869 109.636C196.8 109.346 195.634 109.128 194.541 109.225C188.857 109.685 183.416 108.789 178.096 106.682C176.566 106.077 174.768 105.932 173.092 105.835C171.028 105.714 168.939 105.835 166.85 105.932C164.178 106.053 161.53 106.222 158.883 106.392C157.741 106.464 156.599 106.658 155.458 106.707C152.203 106.828 148.948 106.9 145.693 106.997C143.191 107.07 140.714 107.094 138.212 107.142C131.678 107.263 125.095 106.876 118.828 109.225C113.848 111.089 108.602 112.614 104.06 115.253C95.5579 120.216 86.7648 125.034 81.3724 133.872C81.0809 134.356 80.7651 134.913 80.3036 135.227C74.2796 139.368 70.5146 145.227 67.4541 151.667C67.0411 152.538 66.6282 153.434 66.0695 154.209C62.0616 159.681 59.0496 165.588 57.9323 172.343C57.5193 174.861 55.8919 175.709 53.7786 174.934C52.2969 174.401 51.0096 173.142 49.7707 172.053C48.9449 171.326 48.4834 169.68 47.6818 169.535C43.0423 168.687 38.2572 167.331 33.6663 167.767C27.0593 168.397 22.347 172.392 18.582 178.202C14.3312 184.812 10.7849 191.47 9.40032 199.242C7.62713 209.265 8.62303 218.538 14.7685 227.133C19.0193 233.089 25.3833 234.59 31.6259 236.551C32.3789 236.793 33.4963 236.188 34.3464 235.801C36.0953 235.026 37.8928 234.227 39.5203 233.234C41.3177 232.121 42.9938 231.515 44.8398 233.113C44.937 234.76 44.7912 236.479 45.1313 238.101C46.8316 246.308 52.054 252.942 55.1146 260.569C55.3089 261.053 55.8433 261.44 56.2805 261.804C60.7985 265.581 65.7295 268.994 69.7859 273.231C75.3727 279.066 82.2468 283.085 88.5866 287.855C90.457 289.259 92.3516 290.349 94.9264 290.034C96.1409 289.889 97.5497 290.591 98.7885 291.099C104.74 293.641 110.666 296.232 116.593 298.871C118.512 299.718 120.285 301.074 122.277 301.631C134.592 305.045 147.199 307.224 159.757 309.597C162.138 310.057 164.712 309.548 167.19 309.33C170.421 309.04 173.627 308.58 176.833 308.144C183.586 307.248 190.484 306.861 197.043 305.166C200.54 304.27 203.31 304.076 206.054 306.134Z" fill="black"/>
<path d="M34.395 194.254C32.4518 193.213 30.2414 192.39 28.4925 190.986C27.4966 190.187 26.5492 188.25 26.8407 187.16C27.1322 186.022 28.8568 184.836 30.1442 184.521C31.4802 184.182 33.2048 184.594 34.5407 185.151C36.8483 186.119 39.1316 187.257 41.1477 188.686C45.2285 191.591 49.1635 194.714 53.0985 197.813C53.9972 198.515 54.8474 199.411 55.4061 200.38C56.6449 202.607 55.819 207.11 53.973 207.74C51.4468 208.612 49.5521 207.28 48.0704 205.27C46.5887 203.285 45.0827 201.324 43.4067 199.145C39.4474 201.518 40.1275 205.537 39.3745 208.878C39.1316 209.967 39.5202 211.178 39.4474 212.34C39.3259 214.664 37.8442 215.899 35.6581 215.899C33.2048 215.899 32.2575 214.083 32.4518 211.953C32.9619 206.239 33.6906 200.525 34.395 194.279V194.254Z" fill="black"/>
<path d="M288.544 233.694C287.354 233.283 286.188 233.065 285.216 232.508C281.451 230.353 281.5 227.714 284.852 224.882C289.273 221.129 294.69 220.064 300.009 218.732C301.029 218.466 302.9 219.071 303.41 219.894C303.896 220.669 303.531 222.654 302.802 223.356C300.786 225.366 298.382 226.988 295.977 228.876C295.977 234.857 296.098 240.958 295.904 247.059C295.855 248.899 295.2 250.86 294.325 252.482C293.718 253.62 291.945 255.17 291.167 254.928C289.759 254.516 288.374 253.088 287.621 251.732C287.038 250.715 286.989 248.948 287.5 247.858C289.686 243.209 288.617 238.464 288.52 233.646L288.544 233.694Z" fill="black"/>
<path d="M201.488 311.727C221.26 304.73 242.028 301.195 259.056 288.121C260.635 286.911 261.436 285.022 260.367 283.158C259.493 281.608 256.942 280.664 255.388 281.85C247.251 288.097 238.239 292.479 228.523 295.724C218.807 298.968 209.091 301.341 199.545 304.73C195.148 306.28 197.043 313.301 201.488 311.727Z" fill="black"/>
<path d="M20.5981 241.636C23.7802 243.161 27.0836 244.033 30.6057 244.178C33.8606 244.299 37.1398 243.766 40.3218 243.161C42.1922 242.798 43.431 240.449 42.8723 238.682C42.2165 236.697 40.3947 235.752 38.3786 236.14C37.6742 236.285 36.9698 236.406 36.2654 236.527C35.8767 236.6 35.4881 236.672 35.0751 236.697C35.7067 236.648 35.2452 236.697 34.8808 236.697C33.5448 236.842 32.2089 236.939 30.8729 236.89C30.2657 236.89 29.4884 236.939 28.9054 236.745C29.7556 237.011 28.9783 236.745 28.7597 236.721C28.3953 236.648 28.0067 236.575 27.6423 236.503C26.9865 236.358 26.3063 236.164 25.6748 235.922C25.3833 235.825 25.1161 235.704 24.8246 235.607C25.6262 235.922 24.4117 235.413 24.266 235.341C22.5414 234.518 20.2581 234.808 19.2865 236.648C18.4363 238.27 18.7521 240.74 20.5981 241.611V241.636Z" fill="black"/>
<path d="M28.1524 169.172C28.1524 169.172 28.9783 168.76 28.5411 168.954C28.1524 169.123 28.784 168.857 28.8568 168.833C29.3427 168.663 29.8527 168.518 30.3386 168.421C30.7029 168.348 31.6988 168.179 31.6745 168.179C31.3587 168.227 32.0632 168.155 32.136 168.13C32.4518 168.106 32.7919 168.082 33.1076 168.058C34.2979 167.985 35.4881 168.009 36.654 168.058C37.237 168.082 37.82 168.155 38.4029 168.203C39.0345 168.276 37.9414 168.13 38.5487 168.203C38.8401 168.251 39.1559 168.3 39.4474 168.348C43.6982 169.123 48.3133 170.939 51.1796 173.82C54.4831 177.137 59.6569 172.004 56.3291 168.687C54.1673 166.532 51.4954 164.983 48.7263 163.797C46.2487 162.731 43.7225 161.763 41.0506 161.303C35.6824 160.407 29.4155 160.213 24.5089 162.877C22.7843 163.821 22.2256 166.194 23.1972 167.84C24.2174 169.583 26.4521 170.092 28.1767 169.147L28.1524 169.172Z" fill="black"/>
<path d="M288.01 208.2C288.01 208.2 287.937 208.031 287.888 207.934L288.253 208.805C288.034 208.248 287.888 207.667 287.791 207.086L287.913 208.055C287.815 207.207 287.815 206.384 287.913 205.537L287.791 206.505C287.913 205.73 288.107 204.98 288.398 204.278L288.034 205.149C288.277 204.593 288.544 204.084 288.908 203.6L288.35 204.326C288.617 203.987 288.908 203.697 289.249 203.43L288.52 203.987C288.811 203.769 289.103 203.6 289.419 203.455L288.544 203.818C288.738 203.745 288.933 203.672 289.151 203.624C290.997 203.14 292.309 201.009 291.702 199.145C291.095 197.281 289.2 196.094 287.208 196.603C284.05 197.45 281.937 200.21 281.063 203.237C280.237 206.094 280.431 209.168 281.719 211.856C282.083 212.631 283.079 213.309 283.905 213.526C284.779 213.769 285.945 213.648 286.722 213.163C287.5 212.679 288.18 211.929 288.398 210.984C288.617 209.992 288.471 209.12 288.034 208.176L288.01 208.2Z" fill="black"/>
<path d="M280.795 208.539C280.966 209.144 281.063 209.774 281.233 210.379C281.403 210.984 281.719 211.517 281.864 212.122C281.986 212.607 282.204 213.018 282.52 213.357C282.787 213.744 283.127 214.059 283.54 214.301C283.953 214.568 284.415 214.713 284.901 214.737C285.386 214.834 285.872 214.834 286.358 214.664L287.232 214.301C287.791 213.987 288.204 213.551 288.544 212.994L288.908 212.122C289.078 211.469 289.078 210.839 288.908 210.185C288.763 209.58 288.447 209.023 288.277 208.442C288.107 207.861 288.01 207.207 287.84 206.602C287.718 206.118 287.5 205.706 287.184 205.367C286.917 204.98 286.577 204.665 286.164 204.423C285.751 204.157 285.289 204.012 284.803 203.987C284.318 203.89 283.832 203.89 283.346 204.06L282.472 204.423C281.913 204.738 281.5 205.174 281.16 205.731L280.795 206.602C280.625 207.256 280.625 207.885 280.795 208.539Z" fill="black"/>
<path d="M265.468 267.493C265.857 268.534 266.318 269.503 266.926 270.423C267.387 271.149 267.922 271.827 268.432 272.505C269.063 273.352 269.671 274.224 270.351 275.047C271.031 275.87 271.881 276.573 272.755 277.178C273.484 277.686 274.723 277.783 275.573 277.541C276.423 277.299 277.346 276.669 277.759 275.87C278.196 275.023 278.439 274.006 278.124 273.062C277.808 272.118 277.273 271.464 276.447 270.883C276.35 270.81 276.253 270.738 276.132 270.665L276.86 271.222C276.277 270.762 275.792 270.253 275.33 269.672L275.889 270.399C275.233 269.551 274.577 268.655 273.946 267.784C273.314 266.912 272.683 265.992 272.245 264.975L272.61 265.847C272.61 265.847 272.512 265.629 272.488 265.508C272.148 264.612 271.662 263.837 270.812 263.329C270.035 262.869 268.869 262.675 267.994 262.966C267.12 263.256 266.27 263.789 265.808 264.636C265.347 265.484 265.104 266.525 265.444 267.445L265.468 267.493Z" fill="black"/>
<path d="M36.2654 237.835C36.5811 241.321 38.0628 244.299 39.3745 247.495C40.6862 250.691 42.2651 253.935 44.1354 256.889C47.9247 262.869 53.1957 268.002 58.0294 273.134C62.8632 278.267 68.3042 282.964 74.3768 286.79C80.4494 290.615 87.6636 293.569 94.1977 297.152C98.3027 299.404 101.995 293.133 97.8655 290.881C92.0844 287.71 85.9147 285.216 80.2065 281.826C74.4983 278.437 69.2758 274.297 64.5878 269.479C60.1913 264.951 55.5275 260.327 51.7868 255.242C49.8193 252.579 48.2162 249.601 46.8316 246.575C45.6414 243.96 43.7953 240.716 43.5282 237.835C43.0909 233.21 35.8038 233.186 36.2411 237.835H36.2654Z" fill="black"/>
<path d="M20.1852 240.837C23.0272 243.258 26.2335 244.323 29.9013 244.711C33.1562 245.049 36.8483 245.243 39.9575 244.033C40.8805 243.669 41.6335 243.234 42.1436 242.362C42.6051 241.587 42.7994 240.425 42.508 239.554C41.9493 237.835 39.9332 236.261 38.0143 237.011C37.3827 237.253 36.5326 237.617 35.8524 237.592C36.7998 237.617 35.7796 237.592 35.5367 237.592C35.1966 237.592 34.8565 237.617 34.5408 237.641C33.1805 237.641 31.796 237.592 30.4114 237.471C30.1685 237.471 29.0512 237.229 30.1199 237.471C29.877 237.423 29.6341 237.399 29.3912 237.35C28.7354 237.229 28.1038 237.084 27.4723 236.866C27.3023 236.818 26.9136 236.745 26.7679 236.6C27.2537 236.818 27.3265 236.842 26.9622 236.672C26.8165 236.6 26.6707 236.527 26.525 236.454C26.2335 236.285 25.942 236.116 25.6505 235.922C25.5048 235.825 25.359 235.728 25.2133 235.607C25.6019 235.898 25.6262 235.922 25.3105 235.68C23.853 234.445 21.5698 234.154 20.1609 235.68C18.9221 237.036 18.6063 239.505 20.1609 240.812L20.1852 240.837Z" fill="black"/>
<path d="M26.6464 242.604C29.7799 242.193 32.9619 242.701 36.0711 241.902C37.6013 241.515 39.0345 240.813 40.4676 240.183C40.7834 240.038 41.0991 239.892 41.4392 239.747C40.9777 239.941 41.4878 239.747 41.6821 239.65C42.3622 239.408 43.0424 239.215 43.7468 239.069L39.2531 236.527C39.3502 236.842 39.4231 237.181 39.4717 237.496C39.326 236.769 39.496 237.738 39.5203 237.907C39.6174 238.803 39.6903 239.699 39.8361 240.595C40.079 242.144 40.3461 243.694 40.7348 245.219C41.4392 248.076 42.7509 250.739 43.4553 253.572C43.9168 255.412 46.0786 256.695 47.949 256.114C49.8193 255.533 51.0096 253.62 50.4995 251.635C49.7708 248.778 48.4834 246.115 47.779 243.282C47.3903 241.781 47.0988 240.207 46.8802 238.658C46.9774 239.311 46.8802 238.44 46.8559 238.246C46.8316 237.956 46.8074 237.665 46.7588 237.375C46.6373 236.43 46.5402 235.486 46.273 234.59C45.69 232.581 43.7468 231.709 41.7793 232.048C40.2976 232.314 38.9373 232.92 37.5771 233.501C36.9941 233.767 36.3868 234.033 35.8039 234.275C36.4354 233.985 35.4152 234.421 35.3909 234.445C35.0752 234.566 34.7594 234.663 34.4436 234.76C34.1035 234.857 33.7635 234.929 33.3991 235.002L33.0348 235.05C33.3263 235.002 33.3505 235.002 33.0834 235.026C32.4032 235.026 31.7231 235.099 31.043 235.099C29.5613 235.099 28.0796 235.074 26.6221 235.268C24.7518 235.51 22.8814 236.769 22.9786 238.9C23.0515 240.643 24.6061 242.798 26.6221 242.532L26.6464 242.604Z" fill="black"/>
<path d="M40.5162 212.316C40.4433 212.074 40.4433 211.493 40.2976 211.299C40.419 211.444 40.3704 212.001 40.3462 211.469C40.3462 211.275 40.3462 211.105 40.3219 210.912C40.3219 210.089 40.3461 209.29 40.4433 208.466C40.4433 208.273 40.4919 208.079 40.5162 207.885C40.5648 207.353 40.419 208.515 40.5162 207.958C40.5891 207.571 40.6376 207.183 40.6862 206.796C40.8077 205.997 40.9534 205.198 41.0506 204.399C41.2692 202.849 41.3663 201.348 41.4149 199.799C41.4149 199.46 41.4149 199.097 41.4635 198.758C41.4635 198.54 41.4878 198.322 41.5121 198.104C41.5121 197.983 41.585 197.402 41.5121 197.959C41.4392 198.516 41.5121 197.959 41.5364 197.838C41.5607 197.692 41.6092 197.523 41.6335 197.378C41.6821 197.232 41.7307 197.087 41.7793 196.942C41.8764 196.53 41.3906 197.741 41.7307 197.136C42.6537 195.489 42.1922 193.092 40.419 192.172C38.6458 191.252 36.4354 191.712 35.4395 193.48C34.4436 195.247 34.225 197.111 34.1521 199.024C34.1278 199.775 34.1278 200.525 34.1036 201.276C34.1036 201.615 34.0793 201.929 34.055 202.268C34.055 202.438 34.0307 202.607 34.0064 202.777C34.0064 202.874 34.0064 202.946 33.9821 203.043C33.9578 203.309 33.9821 203.213 34.0307 202.753C33.8849 202.874 33.8849 203.673 33.8606 203.866C33.7878 204.302 33.7149 204.738 33.642 205.149C33.472 206.239 33.302 207.353 33.2048 208.466C33.0105 210.379 33.0348 212.364 33.5692 214.229C34.1035 216.093 36.1682 217.376 38.0629 216.771C39.9575 216.166 41.172 214.253 40.6133 212.292L40.5162 212.316Z" fill="black"/>
<path d="M36.1439 216.722C40.8319 216.722 40.8319 209.459 36.1439 209.459C31.4559 209.459 31.4559 216.722 36.1439 216.722Z" fill="black"/>
<path d="M27.5694 190.381C31.6502 193.722 35.4152 196.24 39.2531 199.75C41.1963 201.542 43.1395 203.334 45.2771 204.883C47.1474 206.239 49.1149 207.837 51.4468 208.248C53.3171 208.587 55.4547 207.74 55.9405 205.706C56.3534 203.939 55.4061 201.59 53.39 201.227C53.1957 201.179 52.9771 201.155 52.7827 201.082C51.884 200.864 53.0499 201.251 52.5641 201.009C52.0783 200.767 51.6411 200.477 51.1796 200.186C50.3537 199.629 49.5764 199.048 48.7749 198.467C48.5805 198.322 48.5562 198.298 48.7263 198.443L48.4105 198.201C48.1919 198.031 47.9976 197.862 47.8032 197.692C47.3417 197.305 46.9045 196.918 46.443 196.506C45.5685 195.707 44.6941 194.884 43.7953 194.085C41.925 192.414 39.9332 190.865 37.9414 189.339C35.9496 187.814 34.6379 186.846 32.6947 185.248C31.2373 184.037 28.954 183.698 27.5452 185.248C26.3064 186.579 25.9663 189.097 27.5452 190.381H27.5694Z" fill="black"/>
<path d="M288.01 232.968C289.127 233.113 290.39 232.726 291.459 232.411C292.989 231.951 294.471 231.322 295.953 230.668C298.455 229.578 301.224 228.247 303.143 226.286C303.798 225.632 304.43 224.76 304.649 223.865C305.037 222.291 304.624 220.984 303.604 219.773C303.045 219.095 301.879 218.708 301.029 218.708C300.131 218.708 299.062 219.095 298.455 219.773C297.021 221.347 297.143 223.332 298.455 224.906C297.969 224.325 297.847 224.228 297.629 223.477C297.629 223.526 297.629 223.55 297.653 223.598L297.531 222.63C297.531 222.63 297.531 222.702 297.531 222.751L297.653 221.782C297.556 222.46 298.187 220.79 297.847 221.347C297.677 221.661 297.337 221.758 298.236 220.862C298.163 220.935 298.114 221.008 298.042 221.08C297.896 221.25 297.726 221.395 297.531 221.54C297.483 221.589 297.434 221.613 297.386 221.661C297.119 221.879 297.289 221.734 297.896 221.274C297.774 221.347 297.677 221.444 297.556 221.516C296.487 222.267 295.321 222.92 294.131 223.501C293.499 223.816 292.843 224.131 292.188 224.397C291.92 224.518 291.192 224.809 292.431 224.3C292.26 224.373 292.09 224.446 291.945 224.494C291.629 224.615 291.289 224.76 290.973 224.857C289.929 225.245 288.86 225.608 287.767 225.753L288.738 225.632C288.496 225.656 288.253 225.68 287.985 225.632C287.135 225.535 285.994 226.116 285.411 226.697C284.779 227.327 284.293 228.368 284.342 229.264C284.39 230.16 284.682 231.176 285.411 231.83C286.164 232.532 286.965 232.774 287.985 232.895L288.01 232.968Z" fill="black"/>
<path d="M148.049 200.961C145.304 200.041 142.365 198.056 139.45 200.791C139.329 200.888 138.892 200.67 138.309 200.525C140.786 197.838 142.997 195.465 146.47 194.545C148.219 194.085 150.162 193.552 150.915 191.301C149.774 188.613 147.709 189.388 145.984 189.8C139.742 191.349 135.685 195.15 132.941 201.106C130.536 206.312 133.426 212.945 138.527 215.173C139.815 215.754 141.321 216.069 142.778 215.342C143.167 215.294 143.555 215.221 143.92 215.1C145.207 214.689 146.203 214.083 147.199 213.212C147.466 212.994 147.685 212.752 147.903 212.485C147.976 212.389 148.073 212.292 148.146 212.171C150.77 210.113 151.644 207.595 150.624 204.326C150.211 203.019 149.166 201.324 148.025 200.937L148.049 200.961Z" fill="black"/>
<path d="M200.443 206.505C200.322 205.585 200.103 204.883 199.69 204.036C199.229 203.067 198.451 202.268 197.553 201.663C197.237 201.348 196.921 201.106 196.581 200.985C193.836 200.065 190.897 198.08 187.982 200.816C187.861 200.912 187.424 200.695 186.841 200.549C189.318 197.862 191.529 195.489 195.002 194.569C196.751 194.109 198.694 193.576 199.447 191.325C198.306 188.637 196.241 189.412 194.516 189.824C188.274 191.373 184.217 195.174 181.473 201.13C179.068 206.336 181.958 212.97 187.059 215.197C187.837 215.536 188.711 215.802 189.586 215.802C190.144 215.899 190.703 215.899 191.31 215.802C192.257 215.633 193.205 215.439 194.128 215.124C195.634 214.616 196.921 213.962 198.136 212.945C198.694 212.461 199.18 211.856 199.545 211.226C199.909 210.597 200.225 209.871 200.37 209.168C200.565 208.248 200.613 207.449 200.492 206.529L200.443 206.505Z" fill="black"/>
<path d="M215.236 144.5C213.05 143.072 210.961 143.774 209.528 145.517C209.309 145.783 209.115 146.098 208.921 146.413C207.828 147.502 207.075 148.786 206.103 150.093C204.67 152.006 203.067 153.822 201.463 155.589C198.233 159.148 194.711 162.368 190.484 164.741C186.452 167.017 182.298 167.985 177.708 168.058C175.789 168.082 173.36 168.13 171.659 167.089C171.465 166.896 171.246 166.726 171.052 166.508C171.003 166.46 171.003 166.46 170.979 166.436C170.979 166.436 170.979 166.436 170.979 166.387C170.882 166.218 170.761 166.048 170.663 165.879C170.542 165.661 170.421 165.443 170.299 165.225C170.299 165.225 170.299 165.201 170.299 165.177C170.299 165.177 170.299 165.152 170.299 165.128C170.202 164.692 170.056 164.257 169.935 163.821C169.935 163.797 169.935 163.772 169.935 163.748C169.935 163.506 169.91 163.24 169.886 162.998C169.886 162.804 169.886 162.586 169.886 162.392C169.886 162.392 169.935 162.005 169.959 161.86C169.983 161.714 170.032 161.545 170.032 161.545C170.08 161.351 170.129 161.158 170.202 160.988C170.202 160.988 170.372 160.601 170.396 160.504C170.445 160.407 170.518 160.286 170.518 160.262C170.736 159.874 170.955 159.511 171.198 159.148C171.344 158.954 171.489 158.761 171.611 158.543C171.611 158.519 171.611 158.519 171.635 158.494C171.635 158.494 171.635 158.494 171.659 158.47C171.951 158.131 172.218 157.792 172.509 157.453C173.165 156.703 173.821 155.976 174.453 155.25C174.598 155.081 174.744 154.887 174.866 154.669C175.181 154.306 175.424 153.894 175.546 153.386C175.789 152.514 175.667 151.352 175.181 150.577C174.671 149.803 173.943 149.125 172.995 148.907C172.097 148.689 170.979 148.713 170.178 149.27C168.915 150.166 167.7 151.11 166.485 152.078C165.951 152.417 165.417 152.805 164.907 153.144C157.474 157.865 149.871 162.32 142.608 167.283C138.333 170.213 134.082 168.711 130.779 166.871C128.155 165.395 126.917 161.618 127.33 157.695C127.791 153.216 130.973 150.602 133.354 147.599C137.191 142.781 141.126 137.648 149.142 137.624C149.142 137.624 149.142 137.6 149.142 137.576C149.191 137.576 149.239 137.576 149.288 137.576C151.183 137.576 153.029 135.905 152.932 133.944C152.834 131.983 151.328 130.312 149.288 130.312C146.762 130.312 144.211 130.313 141.734 130.894C139.426 131.45 137.507 132.734 135.564 133.993C135.224 134.211 134.932 134.501 134.665 134.816C134.228 135.106 133.791 135.373 133.354 135.639C125.994 140.094 122.69 147.599 119.557 154.935C118.391 157.695 118.634 161.4 119.241 164.475C121.281 174.74 136.025 178.541 144.551 175.321C144.964 175.224 145.377 175.152 145.766 175.031C148.292 174.207 150.648 172.948 152.98 171.738C155.288 170.527 157.522 169.172 159.757 167.791C161.749 169.68 163.328 171.254 165.028 172.658C170.809 177.403 177.829 177.04 184.679 177.137C189.051 177.21 192.816 175.466 196.265 172.827C198.403 171.205 200.71 169.801 202.945 168.3C203.868 167.67 205.034 167.21 205.69 166.387C209.625 161.424 213.196 156.243 215.892 150.456C217.228 147.599 217.228 145.808 215.163 144.476L215.236 144.5Z" fill="black"/>
<path d="M271.274 270.81C268.189 273.013 265.153 275.313 262.043 277.492C260.513 278.558 258.959 279.623 257.404 280.616C256.627 281.124 255.825 281.608 255.024 282.093C254.611 282.335 254.222 282.553 253.785 282.771C253.59 282.867 253.372 282.988 253.153 283.085C253.518 282.94 253.493 282.964 253.105 283.085C251.331 283.763 249.923 285.555 250.554 287.564C251.113 289.283 253.129 290.833 255.048 290.107C258.789 288.654 262.165 286.257 265.42 283.981C268.675 281.705 271.76 279.381 274.942 277.105C276.496 275.991 277.395 273.885 276.253 272.142C275.257 270.616 272.925 269.648 271.274 270.834V270.81Z" fill="black"/>
<path d="M311.741 227.69C311.741 228.949 311.741 230.208 311.693 231.443C311.644 232.678 311.693 234.082 311.377 235.268C311.644 234.227 311.377 235.341 311.328 235.559C311.28 235.801 311.231 236.067 311.183 236.309C311.037 236.963 310.891 237.617 310.697 238.27C310.575 238.706 310.43 239.602 310.114 239.941C310.332 239.457 310.357 239.408 310.187 239.771C310.114 239.917 310.041 240.086 309.968 240.231C309.822 240.522 309.652 240.837 309.507 241.127C308.559 242.774 309.045 245.171 310.818 246.091C312.591 247.011 314.802 246.551 315.798 244.783C318.737 239.578 319.028 233.525 319.028 227.69C319.028 225.802 317.352 223.962 315.385 224.058C313.417 224.155 311.741 225.656 311.741 227.69Z" fill="black"/>
<path d="M283.856 193.383C283.808 195.416 284.293 197.402 284.196 199.411C284.148 200.307 284.633 201.348 285.265 201.978C285.896 202.607 286.941 203.091 287.84 203.043C288.738 202.995 289.759 202.704 290.414 201.978C291.07 201.251 291.435 200.404 291.483 199.411C291.58 197.378 291.095 195.392 291.143 193.383C291.167 192.463 290.73 191.446 290.074 190.816C289.419 190.187 288.398 189.703 287.5 189.751C286.601 189.799 285.581 190.09 284.925 190.816C284.269 191.543 283.88 192.39 283.856 193.383Z" fill="black"/>
<path d="M181.813 227.932C181.011 227.908 180.428 228.126 179.699 228.441C179.626 228.489 179.578 228.562 179.505 228.61C178.096 229.506 176.712 230.184 175.327 230.741C175.084 230.813 174.817 230.886 174.574 230.934C171.854 231.685 169.085 232.314 166.243 232.218C163.643 232.145 161.02 231.419 158.591 230.547C157.595 230.184 156.575 229.821 155.652 229.288C154.632 228.683 153.684 228.029 152.519 227.763C149.749 227.133 148.462 230.886 150.527 232.121C150.672 232.314 150.843 232.532 151.061 232.678C151.474 232.944 157.984 237.278 166.923 237.278C170.105 237.278 173.603 236.697 177.246 235.22C179.505 234.542 181.764 233.694 183.513 232.096C185.116 230.62 183.804 228.029 181.788 227.956L181.813 227.932Z" fill="black"/>
</g>
<g clip-path="url(#clip1_1289_12550)">
<path d="M154.807 31.2628C154.152 30.455 153.335 29.8446 152.546 29.2612L152.007 28.8573C148.767 26.371 145.5 26.9185 142.457 27.8789C140.446 28.5162 138.768 29.8177 137.287 30.9666L136.874 31.2897C135.922 32.0258 135.24 33.1926 135.141 34.2697C134.908 36.6932 135.662 38.7397 137.376 40.3464L137.951 40.8939C139.513 42.3839 141.128 43.9277 143.839 44.6368C143.956 44.6638 144.162 44.8433 144.333 44.9869C144.458 45.0946 144.584 45.1933 144.71 45.2921C144.844 45.3908 144.97 45.4985 145.096 45.6062C145.302 45.7768 145.509 45.9473 145.733 46.0999C148.542 48.0028 148.578 49.2594 147.663 50.911C145.939 54.0435 143.525 54.7526 139.584 53.2985C137.592 52.5625 136.721 51.1174 135.788 49.5825C135.608 49.2863 135.429 48.9901 135.249 48.7029C134.989 48.299 135.061 47.7694 135.15 47.159C135.186 46.9077 135.222 46.6654 135.231 46.414C135.267 45.8216 134.8 45.2382 134.549 45.0048C134.19 44.6907 133.84 44.6189 133.598 44.6368C132.951 44.6548 132.063 44.8971 131.524 45.3818C131.039 45.8127 131.004 46.3781 130.977 46.791L130.959 46.9795C130.698 49.4479 131.56 51.7098 133.607 53.9089C134.818 55.2104 136.362 56.0362 138.31 56.8799C139.611 57.4454 141.155 57.7236 142.69 57.7236C144.387 57.7236 146.074 57.3825 147.393 56.7004C149.018 55.8656 150.275 54.7706 151.468 53.1459C152.599 51.6111 152.941 50.0672 152.483 48.5323C152.411 48.299 152.348 48.0656 152.357 47.913C152.456 46.8359 152.016 45.8396 151.065 45.0407L150.661 44.6997C149.009 43.2994 147.313 41.8543 144.692 41.0644C144.476 41.0016 144.063 40.8759 143.974 40.7952C143.516 40.3284 143.004 39.9066 142.52 39.4937C141.469 38.614 140.482 37.7793 140.087 36.6304C139.62 35.2481 139.441 34.548 140.455 33.7042C140.644 33.5516 140.832 33.3901 141.012 33.2375C142.062 32.3399 143.049 31.4962 144.458 31.2269C145.329 31.0564 147.133 30.7063 148.031 31.0294C150.706 31.9898 151.926 33.3811 151.756 35.293C151.576 37.3664 153.407 37.5639 154.395 37.6626C154.825 37.7075 155.238 37.51 155.427 37.1599C156.432 35.284 156.181 32.9682 154.799 31.2628H154.807Z" fill="black"/>
<path d="M209.722 52.6524C209.515 52.1766 209.3 51.7009 209.084 51.2252C208.851 50.7136 208.627 50.2109 208.411 49.6993C208.16 49.0979 207.828 48.5414 207.496 48.0029C206.912 47.0424 206.365 46.1359 206.437 45.1306C206.481 44.5023 206.401 43.874 206.212 43.3085C205.539 41.3428 205.656 39.3142 205.853 37.5819C205.952 36.7471 205.934 35.9214 205.925 35.1225C205.898 33.6325 205.88 32.2323 206.535 30.9218C206.661 30.6795 206.67 30.3922 206.553 30.114C206.356 29.6113 205.728 29.0907 205.261 28.9022C204.749 28.6958 204.157 28.8753 203.852 29.01C203.412 29.1984 203.125 29.4498 203.008 29.7729L202.846 30.2217C202.487 31.1911 202.119 32.1874 202.083 33.2555C202.065 33.8659 201.994 34.4763 201.931 35.1135C201.805 36.2984 201.67 37.5191 201.832 38.8026C201.886 39.2245 201.886 39.6822 201.886 40.1669C201.886 40.7773 201.886 41.4056 201.994 41.998C201.823 41.8903 201.688 41.7826 201.572 41.6839C200.243 40.4811 198.628 40.4991 197.209 40.517H196.653C196.653 40.517 196.635 40.517 196.626 40.517C195.028 40.517 194.364 41.3877 193.745 42.2045C191.968 44.5382 191.205 47.0155 191.483 49.5557C191.483 49.6006 191.501 49.6454 191.51 49.6903C192.416 52.8857 193.826 54.5642 193.852 54.6001C195.208 56.3773 197.102 56.862 198.78 57.2929L199.202 57.4006C200.028 57.625 200.872 57.7327 201.715 57.7327C203.385 57.7327 205.045 57.3108 206.571 56.4761C207.343 56.0542 207.9 55.9285 208.564 56.0183C208.932 56.0632 209.309 55.9016 209.497 55.5964C210.081 54.654 210.153 53.6936 209.722 52.6703V52.6524ZM195.701 48.7479C195.737 48.5145 195.773 48.2452 195.755 47.958C195.684 46.5488 196.159 45.2563 197.183 44.0984C198.574 43.8829 199.292 44.5292 200.252 45.3909C200.441 45.5614 200.629 45.732 200.827 45.8935C201.356 46.3423 201.814 46.8719 202.299 47.4374C202.487 47.6528 202.667 47.8682 202.882 48.1106C202.873 49.457 203.43 50.6148 203.968 51.7278C204.202 52.2125 204.426 52.6793 204.597 53.146C203.923 53.6128 203.026 53.7743 202.074 53.9359C201.778 53.9898 201.482 54.0436 201.195 54.1064C200.997 54.1513 200.548 54.1064 199.552 53.6846C198.484 53.2268 197.47 52.6613 196.536 52.1048C196.518 52.051 196.491 51.9612 196.473 51.9074L196.24 51.1983C196.016 50.543 195.8 49.9237 195.675 49.2954C195.648 49.1697 195.675 48.9633 195.701 48.7389V48.7479Z" fill="black"/>
<path d="M188.207 20.2495C188.126 19.7109 187.83 19.2621 187.39 18.9839C186.851 18.6518 186.367 18.6697 186.043 18.7415C185.271 18.9031 184.796 19.5314 184.509 19.9892C183.701 21.2637 182.695 22.296 181.448 23.1487C179.868 24.2168 178.216 24.513 176.394 24.0283C175.596 23.8219 175.066 23.3731 174.779 22.664C174.509 22.0087 174.366 21.4253 174.33 20.8688C175.694 21.2907 177.193 21.4343 178.082 21.2009C180.478 20.5726 182.157 19.0916 183.054 16.7938C183.081 16.7399 183.108 16.6861 183.135 16.6232L182.938 16.5155L183.171 16.5604C183.369 16.2014 183.746 15.5282 183.476 14.6844C183.422 14.5229 183.378 14.3613 183.342 14.1908C183.171 13.5535 182.983 12.8354 182.381 12.1263C181.134 10.6543 178.468 9.68489 176.646 10.6633C175.452 11.3005 174.231 12.0366 173.361 13.0688C172.23 14.4152 171.485 15.6987 171.081 17.0182C170.973 17.3682 170.955 17.6824 170.946 17.9786C170.946 18.0953 170.928 18.3017 170.91 18.3556C170.264 19.8815 170.425 21.2817 170.677 22.4575C170.838 23.2474 171.188 23.8578 171.52 24.4502C171.718 24.7913 171.897 25.1144 172.014 25.4285C172.167 25.8414 172.508 26.1915 172.921 26.362C173.163 26.4608 173.432 26.6313 173.711 26.8108C174.429 27.2686 175.254 27.7892 176.376 27.7174C176.412 27.7174 176.511 27.7623 176.601 27.7892C176.861 27.8879 177.211 28.0136 177.642 28.0136C179.356 28.0046 180.909 27.5199 182.327 27.0083C182.938 26.7929 183.467 26.4428 183.853 26.1646C185.047 25.3208 185.918 24.2527 186.753 23.2115C187.049 22.8525 187.336 22.4845 187.65 22.1344C188.108 21.6138 188.323 20.9047 188.225 20.2585L188.207 20.2495ZM179.59 14.7473C179.617 14.8281 179.644 14.8999 179.68 14.9806L179.572 15.1512C179.276 15.6269 178.961 16.1116 178.71 16.6412C178.405 17.2785 178.01 17.5388 177.139 17.6555C176.529 17.7452 175.955 17.6644 175.245 17.3952C175.353 17.1977 175.479 17.0002 175.631 16.7489C175.892 16.336 176.152 15.9052 176.385 15.4384C176.61 14.9806 177.112 14.6755 177.696 14.3254L177.956 14.1638C178.207 14.0023 178.549 13.9754 178.854 14.0741C179.195 14.1818 179.473 14.4331 179.581 14.7473H179.59Z" fill="black"/>
<path d="M167.113 20.4021C166.683 20.5277 166.359 20.8778 166.27 21.3176C166.099 22.1972 165.578 22.6909 164.483 23.041C164.089 23.1666 163.747 23.3461 163.442 23.4987C163.146 23.6513 162.841 23.8129 162.634 23.8308L161.889 23.9116C160.355 24.0822 158.9 24.2347 157.518 23.786C156.378 23.4179 156.297 22.9063 156.271 22.7448C156.199 22.278 156.208 21.7843 156.226 21.2458C156.612 21.4702 157.096 21.6766 157.635 21.6317C158.012 21.6048 158.425 21.6407 158.856 21.6856C159.717 21.7754 160.687 21.8651 161.773 21.4792C163.936 20.6893 166.323 19.5045 167.652 16.704C168.208 15.5192 168.262 14.2356 167.805 13.0778C167.365 11.9647 166.494 11.121 165.372 10.6812C164.205 10.2324 163.092 10.2504 162.105 10.2593C160.157 10.2952 158.775 11.2646 157.545 12.1353C157.033 12.4943 156.54 12.8444 156.028 13.1047C155.858 13.1944 155.705 13.3201 155.597 13.4817C155.409 13.7599 155.202 14.0202 154.951 14.3434C154.125 15.4025 153.273 16.4976 153.021 18.0953C152.976 18.3645 152.851 18.6697 152.698 19.0287C152.599 19.2621 152.51 19.4865 152.429 19.7199C152.115 20.6534 152.249 21.5061 152.375 22.2511C152.411 22.4665 152.447 22.6909 152.465 22.9063C152.626 25.0156 153.802 26.4787 155.956 27.2596C156.998 27.6366 158.568 28.2021 160.256 27.9059C160.444 27.9597 160.651 27.9956 160.848 27.9956C161.351 27.9956 161.764 27.8251 162.051 27.7084L162.159 27.6635C162.266 27.6186 162.302 27.6097 162.302 27.6097C163.379 27.6366 164.331 27.3404 165.112 27.0442L165.318 26.9634C166.709 26.4338 168.289 25.8324 169.088 24.0463C169.268 23.8847 169.393 23.6962 169.465 23.4808C169.483 23.4269 169.501 23.3731 169.555 23.2564C169.725 22.8614 169.977 22.2601 169.761 21.6048C169.42 20.5457 168.325 20.052 167.095 20.4021H167.113ZM157.473 17.7003C157.563 17.44 157.653 17.2156 157.734 17.0989C158.766 15.6718 159.969 14.7832 161.405 14.3703H161.468C161.638 14.3523 161.952 14.3254 162.266 14.1549C162.661 13.9484 163.047 13.9125 163.846 14.3613C164.044 14.469 164.286 14.6844 164.187 15.2589C164.044 16.0488 163.532 16.4347 162.572 16.9015C161.396 17.4849 159.996 18.0594 158.452 17.9427C157.886 17.8978 157.617 17.7991 157.482 17.6913L157.473 17.7003Z" fill="black"/>
<path d="M190.343 50.2198C190.253 49.6723 189.966 49.2325 189.526 48.9542C188.987 48.6221 188.503 48.6401 188.18 48.7119C187.408 48.8734 186.932 49.5017 186.645 49.9595C185.837 51.2341 184.832 52.2663 183.584 53.119C182.004 54.1871 180.353 54.4833 178.531 53.9986C177.732 53.7922 177.202 53.3434 176.906 52.6343C176.637 51.9791 176.493 51.3956 176.457 50.8391C177.822 51.261 179.329 51.4046 180.209 51.1713C182.606 50.5429 184.284 49.0619 185.182 46.7641C185.2 46.7103 185.236 46.6564 185.263 46.6025L185.065 46.4948L185.298 46.5397C185.496 46.1807 185.873 45.5075 185.604 44.6638C185.55 44.5022 185.514 44.3406 185.469 44.1701C185.298 43.5328 185.11 42.8147 184.509 42.0967C183.261 40.6246 180.595 39.6552 178.773 40.6336C177.579 41.2709 176.358 42.0069 175.479 43.0391C174.348 44.3855 173.603 45.6691 173.199 46.9885C173.091 47.3296 173.082 47.6437 173.064 47.931C173.064 48.0477 173.046 48.2721 173.028 48.3259C172.382 49.8518 172.544 51.252 172.795 52.4279C172.957 53.2088 173.307 53.8191 173.639 54.4205C173.827 54.7616 174.016 55.0758 174.132 55.3989C174.285 55.8118 174.626 56.1618 175.039 56.3324C175.281 56.4311 175.551 56.6016 175.829 56.7722C176.547 57.23 177.373 57.7506 178.495 57.6788C178.54 57.6877 178.647 57.7326 178.719 57.7506C178.979 57.8493 179.329 57.9749 179.769 57.9749C181.475 57.966 183.028 57.4813 184.455 56.9697C185.065 56.7542 185.595 56.4042 185.981 56.1259C187.174 55.2822 188.036 54.2141 188.889 53.1639C189.176 52.8049 189.463 52.4458 189.768 52.1047C190.226 51.5841 190.442 50.875 190.343 50.2288V50.2198ZM181.726 44.7176C181.753 44.7894 181.78 44.8702 181.816 44.951L181.708 45.1215C181.412 45.5883 181.098 46.073 180.846 46.6115C180.541 47.2488 180.146 47.5091 179.276 47.6258C178.665 47.7155 178.091 47.6348 177.382 47.3655C177.498 47.159 177.624 46.9526 177.768 46.7192C178.028 46.3063 178.288 45.8755 178.522 45.4088C178.746 44.951 179.249 44.6458 179.832 44.2957L180.092 44.1342C180.344 43.9726 180.685 43.9457 180.99 44.0444C181.331 44.1521 181.609 44.4035 181.717 44.7176H181.726Z" fill="black"/>
<path d="M169.25 50.3724C168.819 50.4981 168.496 50.8482 168.406 51.288C168.235 52.1586 167.724 52.6613 166.62 53.0114C166.234 53.137 165.893 53.3076 165.578 53.4691C165.282 53.6217 164.977 53.7833 164.771 53.8012L164.017 53.882C162.482 54.0436 161.028 54.2051 159.645 53.7563C158.505 53.3883 158.425 52.8767 158.398 52.7151C158.326 52.2484 158.335 51.7547 158.353 51.2162C158.739 51.4406 159.206 51.656 159.771 51.6021C160.148 51.5752 160.561 51.6111 160.992 51.656C161.853 51.7458 162.823 51.8445 163.909 51.4496C166.072 50.6597 168.46 49.4838 169.788 46.6744C170.345 45.4896 170.399 44.206 169.941 43.0482C169.501 41.9351 168.63 41.0914 167.508 40.6516C166.341 40.2028 165.228 40.2208 164.241 40.2297C162.302 40.2656 160.92 41.235 159.672 42.1147C159.161 42.4737 158.676 42.8148 158.164 43.0751C157.994 43.1648 157.841 43.2995 157.734 43.4521C157.536 43.7393 157.321 44.0175 157.087 44.3137C156.262 45.3729 155.409 46.468 155.158 48.0657C155.113 48.326 154.987 48.6311 154.852 48.9722C154.754 49.2146 154.655 49.4479 154.574 49.6903C154.26 50.6238 154.395 51.4675 154.52 52.2484C154.556 52.4638 154.592 52.6703 154.601 52.8857C154.763 54.995 155.938 56.4581 158.093 57.239C159.134 57.616 160.705 58.1814 162.392 57.8852C162.581 57.9391 162.787 57.975 162.984 57.975C163.487 57.975 163.9 57.8045 164.187 57.6878L164.295 57.6429C164.403 57.598 164.439 57.589 164.439 57.589C165.525 57.607 166.467 57.3198 167.248 57.0236L167.454 56.9428C168.846 56.4132 170.425 55.8118 171.224 54.0256C171.404 53.8641 171.529 53.6756 171.61 53.4601C171.628 53.4063 171.655 53.3435 171.7 53.2447C171.871 52.8498 172.122 52.2484 171.906 51.5932C171.565 50.534 170.461 50.0403 169.241 50.3904L169.25 50.3724ZM159.61 47.6797C159.708 47.4194 159.789 47.195 159.87 47.0783C160.902 45.6512 162.105 44.7625 163.55 44.3497H163.604C163.774 44.3317 164.088 44.3137 164.412 44.1342C164.807 43.9278 165.184 43.8919 165.982 44.3407C166.18 44.4484 166.422 44.6638 166.323 45.2383C166.18 46.0281 165.668 46.4141 164.708 46.8808C163.532 47.4643 162.114 48.0477 160.588 47.922C160.022 47.8772 159.753 47.7784 159.618 47.6707L159.61 47.6797Z" fill="black"/>
<path d="M133.535 27.0711C135.429 27.0711 137.071 26.7301 138.507 26.0299C139.315 25.635 140.096 25.2042 140.859 24.7823L141.73 24.3066C141.837 24.2437 141.954 24.1899 142.071 24.136C142.43 23.9655 142.834 23.768 143.184 23.4449C144.665 22.0895 146.191 20.6983 147.627 19.2262C148.623 18.203 149.512 17.081 150.373 15.986L150.499 15.8244C151.72 14.2805 153.291 12.2071 154.52 9.9093C155.391 8.27569 156.046 6.53438 156.674 4.84692L156.8 4.50583C157.025 3.90445 157.069 3.16843 156.926 2.25289C156.863 1.83103 156.315 0.37694 155.301 0.493626C154.305 0.601336 153.533 0.897539 153.012 1.37326C152.474 1.86693 152.519 2.63886 152.546 3.25819C152.546 3.35692 152.555 3.45566 152.564 3.54542C152.564 3.83264 152.644 4.09294 152.707 4.29939C152.725 4.3712 152.752 4.43403 152.761 4.49686L152.537 5.02643C151.756 6.89341 151.02 8.66165 149.862 10.2145C149.512 10.6902 149.171 11.1659 148.83 11.6506C148.058 12.7457 147.322 13.7869 146.433 14.7293C145.85 15.3487 145.275 15.986 144.701 16.6143C144.27 17.09 143.839 17.5657 143.399 18.0414C142.699 18.7954 141.855 19.3699 140.958 19.9802C140.41 20.3482 139.845 20.7342 139.306 21.165C137.61 22.5294 135.761 23.2205 133.66 23.2564C132.341 23.2833 131.201 22.8704 130.241 22.0177L130.923 21.3266C131.928 20.3123 132.888 19.325 133.858 18.3466C134.163 18.0324 134.477 17.7273 134.791 17.4221C135.599 16.6412 136.425 15.8334 137.116 14.8999C138.462 13.0688 139.351 11.4442 139.908 9.78364C140.294 8.6437 140.644 6.95624 139.324 5.51113C138.247 4.33529 136.685 3.81469 135.034 4.08397C131.982 4.57764 129.505 6.44462 127.467 9.80159C126.345 11.6506 125.591 13.7869 125.304 15.9949C125.16 17.1079 125.053 18.2389 124.936 19.4327C124.9 19.8635 124.855 20.3033 124.81 20.7701L124.604 20.8868C124.11 21.165 123.545 21.4882 122.988 21.8023C120.825 23.014 118.653 23.4 116.525 22.9422C114.255 22.4575 114.012 21.6856 113.976 19.9084C113.967 19.4596 114.174 19.0467 114.416 18.58C114.596 18.2299 114.793 17.844 114.919 17.3952C115.323 15.9231 116.184 14.6665 117.1 13.3471C117.297 13.0598 117.504 12.7636 117.701 12.4764C118.572 11.1659 119.649 9.92725 120.681 8.73346L121.408 7.88075C123.204 5.77143 124.918 4.00319 127.602 3.79674C128.329 3.74289 129.011 3.02482 129.154 2.41446C129.316 1.75922 128.948 0.996274 128.517 0.601336C127.485 -0.350104 126.291 0.0986883 125.905 0.242302C124.056 0.933443 122.539 2.0644 121.076 3.15946L120.421 3.64415C118.114 5.34059 116.525 7.59353 115.125 9.57719L114.928 9.85544C113.537 11.8212 112.091 13.8587 111.14 16.2642C110.826 17.0541 110.736 17.817 110.637 18.562C110.548 19.316 110.458 20.0341 110.135 20.6354C109.838 21.1919 110.162 21.7036 110.35 22.0177C110.386 22.0716 110.422 22.1254 110.449 22.1793C110.521 22.3229 110.601 22.4665 110.691 22.6101C110.799 22.7986 110.916 22.9961 110.942 23.1128C111.122 24.136 111.75 24.6297 112.343 24.9708C112.603 25.1234 112.854 25.3208 113.124 25.5273C113.474 25.8055 113.842 26.0838 114.273 26.3172C114.937 26.6672 115.727 26.9006 116.481 26.9724C117.423 27.0532 118.374 27.0352 119.299 26.9006C120.412 26.748 121.785 26.5505 123.06 26.1017C123.814 25.8414 124.451 25.4106 125.079 24.9977C125.322 24.8451 125.555 24.6836 125.807 24.531C126.103 24.3514 126.408 24.1719 126.56 24.1091C126.704 24.1989 126.973 24.4502 127.243 24.6925C128.76 26.0658 130.348 26.8378 131.964 26.9814C132.511 27.0352 133.05 27.0532 133.562 27.0532L133.535 27.0711ZM132.422 14.8191C131.174 15.8782 129.926 16.9194 128.67 17.9696C128.634 17.7362 128.616 17.5208 128.652 17.3682L128.822 16.704C129.352 14.6306 129.864 12.6739 131.183 11.0133C132.126 9.82852 133.158 8.92195 134.325 8.24876C134.702 8.02437 135.195 7.87178 135.698 7.81792C135.725 7.81792 135.779 7.81792 135.833 7.81792C135.922 7.81792 136.039 7.83588 136.093 7.88973C136.174 7.96154 136.245 8.16798 136.227 8.52702C136.192 9.39767 135.698 10.0798 135.132 10.8697C134.935 11.148 134.729 11.4262 134.549 11.7134C134.055 12.4854 133.544 13.2483 133.023 14.0113L132.745 14.4242C132.637 14.5857 132.52 14.7563 132.422 14.846V14.8191Z" fill="black"/>
</g>
<defs>
<clipPath id="clip0_1289_12550">
<rect width="320" height="219.789" fill="white" transform="translate(0 97.9663)"/>
</clipPath>
<clipPath id="clip1_1289_12550">
<rect width="100" height="57.9661" fill="white" transform="translate(110 -6.10352e-05)"/>
</clipPath>
</defs>
</svg>
