<svg width="90" height="62" viewBox="0 0 90 62" fill="none" xmlns="http://www.w3.org/2000/svg">
<g clip-path="url(#clip0_1260_15213)">
<path d="M87.6569 36.941C87.2811 35.2795 87.1103 33.5363 86.1403 32.0519C85.8465 31.6092 85.4981 31.2007 85.2385 30.7444C84.6031 29.6141 83.7833 29.0012 83.0045 29.3213C82.3692 29.58 81.7612 30.0022 81.2898 30.4993C81.0985 30.7036 81.2966 31.2688 81.3035 31.6773C81.3035 32.3855 80.7569 32.5762 80.2377 32.726C79.7322 32.869 79.4726 32.5898 79.3154 32.0791C78.9807 30.9896 78.7962 29.9954 79.821 29.117C80.3812 28.6335 80.4222 28.0139 79.9781 27.3602C79.8005 27.1082 79.7868 26.7473 79.698 26.4341C79.3701 25.2629 79.2676 23.9555 78.6596 22.9613C77.5461 21.15 77.5119 18.9506 76.3369 17.1937C75.927 16.5741 75.4897 15.9544 75.2028 15.2735C74.7997 14.3065 73.7272 14.0614 73.1943 13.2783C71.7323 11.1197 69.6828 9.62167 67.565 8.18489C66.6018 7.53118 65.8571 6.57787 64.5591 6.42125C63.8418 6.33273 63.0357 6.0944 62.496 5.64498C61.4371 4.75975 60.1937 4.48738 58.9298 4.18095C57.8299 3.90858 56.7437 3.57492 55.6438 3.28892C55.3432 3.20721 55.0153 3.14592 54.7079 3.17316C53.1093 3.30254 51.579 3.05059 50.0829 2.45817C49.6525 2.28794 49.1469 2.24708 48.6755 2.21985C48.0949 2.1858 47.5073 2.21985 46.9198 2.24708C46.1683 2.28113 45.4237 2.3288 44.679 2.37646C44.358 2.39689 44.0369 2.45137 43.7158 2.46498C42.8003 2.49903 41.8849 2.51946 40.9695 2.5467C40.2658 2.56713 39.569 2.57393 38.8653 2.58755C37.0276 2.6216 35.1762 2.51265 33.4137 3.17316C32.0132 3.69749 30.5376 4.12648 29.26 4.8687C26.869 6.26463 24.3959 7.6197 22.8793 10.1051C22.7973 10.2413 22.7085 10.3979 22.5787 10.4865C20.8844 11.6509 19.8255 13.2987 18.9648 15.1101C18.8486 15.3552 18.7325 15.6071 18.5753 15.825C17.4481 17.364 16.601 19.0255 16.2868 20.9253C16.1706 21.6335 15.7129 21.8718 15.1185 21.6539C14.7018 21.5041 14.3397 21.15 13.9913 20.8436C13.759 20.6393 13.6292 20.1762 13.4038 20.1354C12.099 19.8971 10.7531 19.5157 9.46195 19.6383C7.60374 19.8154 6.2784 20.9389 5.2195 22.5732C4.02396 24.4321 3.02654 26.3047 2.63714 28.4905C2.13843 31.3096 2.41853 33.9176 4.14693 36.335C5.34247 38.0101 7.13236 38.4323 8.88809 38.9838C9.09987 39.0519 9.41412 38.8817 9.65323 38.7727C10.1451 38.5548 10.6507 38.3301 11.1084 38.0509C11.6139 37.7377 12.0853 37.5675 12.6045 38.0169C12.6318 38.4799 12.5908 38.9634 12.6865 39.4196C12.7958 39.944 12.9597 40.441 13.151 40.9245C15.3098 37.547 19.0809 35.3067 23.3917 35.3067C30.1003 35.3067 35.5383 40.727 35.5383 47.4139C35.5383 50.8254 34.1173 53.8964 31.8424 56.0959C32.1498 56.2321 32.4641 56.3614 32.7715 56.5044C33.3112 56.7428 33.8099 57.1241 34.3701 57.2807C37.8337 58.2408 41.3794 58.8537 44.9113 59.521C45.5808 59.6504 46.305 59.5074 47.0018 59.4461C47.9104 59.3644 48.8122 59.235 49.714 59.1124C51.6132 58.8605 53.5533 58.7515 55.3979 58.2749C56.3816 58.0229 57.1604 57.9685 57.9324 58.5473C58.1579 58.377 58.3492 58.2 58.5404 58.0434C54.7694 55.9869 52.2075 51.9966 52.2075 47.4139C52.2075 40.727 57.6455 35.3067 64.3542 35.3067C71.0628 35.3067 76.2412 40.4887 76.4803 46.9645C76.5145 47.053 76.5486 47.1483 76.5965 47.23C77.1567 48.1357 78.7348 48.9937 79.6502 48.6191C81.2625 47.9518 82.8952 47.2232 83.8858 45.6434C84.5416 44.5948 85.218 43.5461 85.8055 42.4566C86.3794 41.3875 86.9327 40.2844 87.3495 39.1473C87.6022 38.4595 87.7935 37.6219 87.6432 36.941H87.6569ZM15.18 30.8738C14.4695 31.119 13.9367 30.7444 13.5199 30.1793C13.1032 29.6209 12.6796 29.0693 12.2083 28.4565C11.0947 29.1238 11.286 30.2542 11.0742 31.1939C11.0059 31.5003 11.1152 31.8408 11.0947 32.1676C11.0605 32.8213 10.6438 33.1686 10.029 33.1686C9.33898 33.1686 9.07254 32.6579 9.12719 32.0587C9.27066 30.4516 9.47561 28.8446 9.67373 27.0878C9.12719 26.795 8.50552 26.5635 8.01364 26.1685C7.73354 25.9438 7.46711 25.3991 7.54909 25.0926C7.63107 24.7726 8.11611 24.4389 8.47819 24.3504C8.85393 24.2551 9.33898 24.3708 9.71472 24.5275C10.3637 24.7998 11.0059 25.1199 11.5729 25.5216C12.7206 26.3388 13.8274 27.2172 14.9341 28.0888C15.1869 28.2863 15.426 28.5382 15.5831 28.8106C15.9315 29.437 15.6992 30.7036 15.18 30.8806V30.8738ZM85.1702 35.2659C84.6031 35.8311 83.9268 36.2873 83.2505 36.8184C83.2505 38.5004 83.2846 40.2163 83.23 41.9323C83.2163 42.4498 83.0319 43.0014 82.7859 43.4576C82.6151 43.7776 82.1164 44.2135 81.8978 44.1454C81.5016 44.0296 81.1122 43.6278 80.9004 43.2465C80.7364 42.9605 80.7228 42.4634 80.8662 42.157C81.4811 40.8496 81.1805 39.515 81.1532 38.1599C80.8184 38.0441 80.4905 37.9828 80.2172 37.8262C79.1583 37.2202 79.172 36.478 80.1147 35.6813C81.3581 34.6258 82.8816 34.3262 84.3777 33.9517C84.6646 33.8768 85.1907 34.047 85.3341 34.2785C85.4708 34.4964 85.3683 35.0548 85.1633 35.2523L85.1702 35.2659Z" fill="#FFECE6"/>
<path d="M35.5518 47.4072C35.5518 40.7203 30.1138 35.3 23.4052 35.3C19.0944 35.3 15.3165 37.5472 13.1646 40.9178C13.8204 42.5793 14.8451 44.0706 15.5146 45.7321C15.5693 45.8682 15.7196 45.9772 15.8426 46.0793C17.1132 47.1416 18.5001 48.1017 19.6409 49.2934C21.2122 50.9344 23.1456 52.0648 24.9286 53.4063C25.4547 53.8012 25.9875 54.1076 26.7117 54.0191C27.0533 53.9782 27.4495 54.1757 27.7979 54.3187C29.1574 54.9043 30.5169 55.4967 31.8764 56.096C34.1513 53.8965 35.5723 50.8187 35.5723 47.414L35.5518 47.4072Z" fill="#FFDFDC"/>
<path d="M64.3678 35.3069C57.6592 35.3069 52.2212 40.7271 52.2212 47.414C52.2212 52.0035 54.7831 55.9938 58.5541 58.0435C58.7454 57.8868 58.9299 57.7507 59.1416 57.6621C59.818 57.3693 60.5421 57.1582 61.2663 56.9948C63.7667 56.416 66.1031 55.4899 68.2072 53.9987C70.1542 52.6232 72.1901 51.3498 74.0483 49.8586C74.8339 49.2321 76.0431 48.5171 75.3873 47.0531C75.3395 46.9509 75.6605 46.6105 75.8723 46.5083C75.9748 46.4539 76.2481 46.6581 76.3984 46.7943C76.4462 46.8352 76.4667 46.8965 76.494 46.9578C76.2549 40.482 70.9262 35.3 64.3678 35.3V35.3069Z" fill="#FFDFDC"/>
<path d="M14.7839 18.2083C15.2348 16.2404 16.1229 14.7832 17.1818 13.4077C17.6737 12.7676 18.0494 12.039 18.5481 11.4057C19.4499 10.2617 20.3039 9.05647 21.3491 8.0623C22.8589 6.62551 24.4712 5.27725 26.1381 4.01751C28.1466 2.49901 30.4967 1.66827 32.9356 1.09628C34.0901 0.823899 35.2583 0.571951 36.4402 0.428953C37.2737 0.326812 38.1276 0.46981 38.9679 0.428953C41.6186 0.285956 44.2693 -0.0136581 46.9199 -3.92404e-05C48.8465 0.00677017 50.7798 0.394906 52.7063 0.640045C53.1299 0.69452 53.5534 0.953278 53.9633 0.92604C55.6781 0.796661 57.2494 1.40951 58.8821 1.73636C61.9085 2.3424 64.5182 3.97665 67.2304 5.25001C69.5053 6.31228 71.6231 7.86482 73.3515 9.88041C74.5607 11.29 76.0159 12.5293 77.0406 14.0682C78.3523 16.0361 79.3839 18.1811 80.1627 20.4418C80.88 22.5323 81.6793 24.5887 82.4923 26.8086C82.7519 26.8767 83.1549 27.0469 83.5785 27.1014C85.2727 27.3193 86.3453 28.3884 87.3427 29.6481C89.1326 31.9156 89.4537 34.6598 89.9592 37.3427C90.0207 37.656 90.0344 38.0169 89.9387 38.3097C89.2966 40.1959 88.8184 42.1706 87.9029 43.9138C86.8304 45.9498 85.1976 47.6386 83.4624 49.1775C82.9158 49.661 82.2873 50.0763 81.6451 50.4304C79.9372 51.3701 78.1883 50.6483 76.2618 50.4917C75.9612 50.8867 75.5923 51.4042 75.1824 51.8876C74.916 52.2077 74.6086 52.5073 74.2738 52.7524C71.9579 54.448 69.4302 55.7418 66.7385 56.7427C66.2876 56.913 65.8982 57.2534 65.4473 57.4305C64.3474 57.8663 63.2339 58.2612 62.1135 58.6494C60.631 59.1601 59.1349 59.6504 57.6456 60.1543C56.9283 60.3994 56.2519 60.5424 55.4322 60.4062C54.7763 60.2972 54.0317 60.8352 53.3143 61.0054C52.6927 61.1484 52.0437 61.1757 51.4083 61.2574C50.8755 61.3255 50.3084 61.305 49.8097 61.4821C48.2658 62.0405 46.715 61.8226 45.1505 61.6728C44.1873 61.5842 43.1694 61.8089 42.2471 61.5978C39.1933 60.8965 36.0918 60.27 33.1678 59.1873C31.4736 58.5609 29.7657 57.948 28.0783 57.3011C27.5864 57.1105 27.1628 56.7632 26.6915 56.5112C24.6215 55.3809 22.5173 54.3186 20.4952 53.1133C19.7232 52.6503 19.2108 51.7787 18.4662 51.2476C16.3279 49.7291 15.0093 47.4888 13.3288 45.5753C13.117 45.337 12.8232 45.0578 12.8027 44.7854C12.6934 43.1375 11.0948 42.3545 10.7669 40.6657C9.89245 41.4692 9.20245 41.4352 8.36899 41.0471C7.76781 40.7679 6.94118 40.9994 6.3195 40.7474C3.86011 39.7533 2.1522 37.7922 0.847361 35.6404C-0.177385 33.938 -0.0475835 31.8339 0.164197 29.8388C0.225682 29.2532 0.205187 28.6539 0.334988 28.0888C0.574096 27.0537 0.847361 26.0255 1.20944 25.0313C2.07706 22.648 3.56635 20.5644 5.38357 18.9369C7.22128 17.289 9.66017 16.6694 12.222 17.4865C13.0418 17.7521 13.8753 17.97 14.7976 18.2424L14.7839 18.2083ZM57.953 58.5472C58.3971 58.2068 58.7318 57.8391 59.1486 57.6552C59.8249 57.3624 60.549 57.1513 61.2732 56.9879C63.7736 56.4091 66.11 55.483 68.2141 53.9917C70.1612 52.6162 72.197 51.3429 74.0552 49.8516C74.8408 49.2252 76.05 48.5102 75.3942 47.0461C75.3464 46.944 75.6675 46.6035 75.8792 46.5014C75.9817 46.4469 76.255 46.6512 76.4053 46.7874C76.5146 46.8895 76.5351 47.0802 76.6171 47.2232C77.1773 48.1288 78.7554 48.9868 79.6708 48.6123C81.2831 47.945 82.9158 47.2164 83.9064 45.6366C84.5623 44.5879 85.2386 43.5393 85.8261 42.4498C86.4 41.3807 86.9533 40.2776 87.3701 39.1404C87.6228 38.4527 87.8141 37.6151 87.6638 36.9342C87.2881 35.2727 87.1173 33.5295 86.1472 32.045C85.8534 31.6024 85.505 31.1939 85.2454 30.7376C84.6101 29.6073 83.7903 28.9944 83.0115 29.3145C82.3761 29.5732 81.7681 29.9954 81.2967 30.4925C81.1054 30.6968 81.3036 31.2619 81.3104 31.6705C81.3104 32.3787 80.7639 32.5694 80.2447 32.7192C79.7391 32.8622 79.4795 32.583 79.3224 32.0723C78.9876 30.9828 78.8032 29.9886 79.8279 29.1102C80.3881 28.6267 80.4291 28.007 79.9851 27.3533C79.8074 27.1014 79.7938 26.7405 79.705 26.4273C79.377 25.2561 79.2746 23.9486 78.6666 22.9545C77.553 21.1432 77.5188 18.9437 76.3438 17.1869C75.9339 16.5672 75.4967 15.9476 75.2097 15.2667C74.8067 14.2997 73.7341 14.0546 73.2012 13.2715C71.7393 11.1129 69.6898 9.61484 67.572 8.17806C66.6087 7.52435 65.8641 6.57104 64.5661 6.41442C63.8487 6.3259 63.0426 6.08757 62.5029 5.63815C61.444 4.75293 60.2006 4.48055 58.9368 4.17413C57.8369 3.90175 56.7507 3.56809 55.6508 3.28209C55.3502 3.20038 55.0223 3.1391 54.7148 3.16633C53.1162 3.29571 51.5859 3.04377 50.0898 2.45135C49.6594 2.28111 49.1539 2.24026 48.6825 2.21302C48.1018 2.17897 47.5143 2.21302 46.9268 2.24026C46.1753 2.2743 45.4306 2.32197 44.686 2.36963C44.3649 2.39006 44.0438 2.44454 43.7227 2.45816C42.8073 2.4922 41.8918 2.51263 40.9764 2.53987C40.2727 2.5603 39.5759 2.56711 38.8723 2.58073C37.0345 2.61477 35.1832 2.50582 33.4206 3.16633C32.0201 3.69066 30.5445 4.11965 29.267 4.86188C26.8759 6.2578 24.4029 7.61288 22.8862 10.0983C22.8042 10.2345 22.7154 10.3911 22.5856 10.4796C20.8914 11.644 19.8325 13.2919 18.9717 15.1032C18.8556 15.3484 18.7394 15.6003 18.5823 15.8182C17.4551 17.3571 16.608 19.0186 16.2937 20.9185C16.1776 21.6266 15.7198 21.865 15.1255 21.6471C14.7088 21.4973 14.3467 21.1432 13.9983 20.8367C13.766 20.6325 13.6362 20.1694 13.4107 20.1286C12.1059 19.8902 10.7601 19.5089 9.46889 19.6315C7.61068 19.8085 6.28535 20.9321 5.22644 22.5663C4.0309 24.4253 3.03349 26.2979 2.64408 28.4837C2.14537 31.3028 2.42547 33.9108 4.15387 36.3281C5.34941 38.0033 7.1393 38.4254 8.89503 38.977C9.10681 39.0451 9.42107 38.8749 9.66017 38.7659C10.1521 38.548 10.6576 38.3233 11.1153 38.0441C11.6209 37.7309 12.0922 37.5606 12.6114 38.0101C12.6388 38.4731 12.5978 38.9566 12.6934 39.4128C13.1716 41.7212 14.6404 43.587 15.5012 45.7319C15.5559 45.8681 15.7062 45.9771 15.8291 46.0792C17.0998 47.1415 18.4867 48.1016 19.6275 49.2933C21.1988 50.9343 23.1322 52.0647 24.9152 53.4061C25.4413 53.8011 25.9741 54.1075 26.6983 54.019C27.0399 53.9781 27.4361 54.1756 27.7845 54.3186C29.4583 55.0336 31.1252 55.7622 32.7921 56.5044C33.3318 56.7427 33.8305 57.1241 34.3907 57.2807C37.8543 58.2408 41.4 58.8537 44.9319 59.521C45.6014 59.6504 46.3256 59.5074 47.0224 59.4461C47.931 59.3644 48.8328 59.235 49.7346 59.1124C51.6338 58.8605 53.5739 58.7515 55.4185 58.2749C56.4022 58.0229 57.1811 57.9684 57.953 58.5472Z" fill="black"/>
<path d="M9.67339 27.081C9.12686 26.7882 8.50518 26.5567 8.01331 26.1618C7.73321 25.9371 7.46678 25.3923 7.54876 25.0859C7.63074 24.7658 8.11578 24.4322 8.47786 24.3437C8.8536 24.2483 9.33864 24.3641 9.71438 24.5207C10.3634 24.7931 11.0056 25.1131 11.5726 25.5149C12.7203 26.332 13.827 27.2104 14.9338 28.082C15.1865 28.2795 15.4256 28.5314 15.5828 28.8038C15.9312 29.4303 15.6989 30.6968 15.1797 30.8739C14.4692 31.119 13.9363 30.7445 13.5196 30.1793C13.1029 29.621 12.6793 29.0694 12.2079 28.4565C11.0944 29.1239 11.2857 30.2542 11.0739 31.1939C11.0056 31.5003 11.1149 31.8408 11.0944 32.1677C11.0602 32.8214 10.6435 33.1686 10.0286 33.1686C9.33864 33.1686 9.07221 32.6579 9.12686 32.0587C9.27033 30.4517 9.47528 28.8447 9.67339 27.0879V27.081Z" fill="black"/>
<path d="M81.1532 38.1736C80.8185 38.0578 80.4905 37.9966 80.2173 37.8399C79.1584 37.2339 79.172 36.4917 80.1148 35.695C81.3582 34.6395 82.8816 34.3399 84.3777 33.9654C84.6647 33.8905 85.1907 34.0607 85.3342 34.2922C85.4708 34.5101 85.3683 35.0685 85.1634 35.266C84.5964 35.8312 83.92 36.2874 83.2437 36.8185C83.2437 38.5005 83.2778 40.2164 83.2232 41.9324C83.2095 42.4499 83.0251 43.0015 82.7791 43.4577C82.6083 43.7778 82.1096 44.2136 81.891 44.1455C81.4948 44.0297 81.1054 43.6279 80.8936 43.2466C80.7296 42.9606 80.716 42.4635 80.8594 42.1571C81.4743 40.8497 81.1737 39.5151 81.1464 38.16L81.1532 38.1736Z" fill="black"/>
<path d="M56.6684 60.1203C62.2293 58.1524 68.0704 57.1582 72.8594 53.4811C73.3034 53.1407 73.5289 52.6095 73.2283 52.0852C72.9823 51.6494 72.265 51.3838 71.8278 51.7175C69.5392 53.4743 67.0046 54.7068 64.272 55.6193C61.5393 56.5317 58.8067 57.1991 56.1218 58.1524C54.8853 58.5882 55.4182 60.5629 56.6684 60.1203Z" fill="black"/>
<path d="M5.79343 40.4071C6.68837 40.8361 7.61747 41.0812 8.60806 41.1221C9.5235 41.1561 10.4458 41.0063 11.3407 40.8361C11.8668 40.734 12.2152 40.0734 12.058 39.5764C11.8736 39.018 11.3612 38.7524 10.7942 38.8614C10.5961 38.9022 10.398 38.9363 10.1998 38.9703C10.0905 38.9907 9.98122 39.0112 9.86508 39.018C10.0427 39.0044 9.9129 39.018 9.81043 39.018C9.43469 39.0588 9.05895 39.0861 8.68321 39.0725C8.51242 39.0725 8.29381 39.0861 8.12985 39.0316C8.36895 39.1065 8.15034 39.0316 8.08886 39.0248C7.98638 39.0044 7.87708 38.9839 7.7746 38.9635C7.59015 38.9227 7.39886 38.8682 7.22124 38.8001C7.13926 38.7728 7.06411 38.7388 6.98213 38.7116C7.20758 38.8001 6.86599 38.6571 6.825 38.6367C6.33996 38.4051 5.69778 38.4869 5.42452 39.0044C5.18541 39.4606 5.27422 40.1552 5.79343 40.4003V40.4071Z" fill="black"/>
<path d="M7.91789 20.0264C7.91789 20.0264 8.15016 19.9106 8.02719 19.9651C7.91789 20.0127 8.09551 19.9378 8.116 19.931C8.25264 19.8834 8.3961 19.8425 8.53273 19.8153C8.63521 19.7948 8.9153 19.7472 8.90847 19.7472C8.81966 19.7608 9.01778 19.7404 9.03827 19.7336C9.12709 19.7268 9.22273 19.7199 9.31154 19.7131C9.64629 19.6927 9.98104 19.6995 10.309 19.7131C10.4729 19.7199 10.6369 19.7404 10.8008 19.754C10.9785 19.7744 10.671 19.7336 10.8418 19.754C10.9238 19.7676 11.0126 19.7812 11.0946 19.7948C12.2901 20.0127 13.5881 20.5235 14.3943 21.3338C15.3234 22.2667 16.7785 20.8231 15.8426 19.8902C15.2346 19.2841 14.4831 18.8483 13.7043 18.5147C13.0075 18.2151 12.297 17.9427 11.5455 17.8133C10.0357 17.5614 8.27313 17.5069 6.89314 18.2559C6.40809 18.5215 6.25097 19.1888 6.52423 19.6519C6.81116 20.1421 7.43967 20.2851 7.92472 20.0196L7.91789 20.0264Z" fill="black"/>
<path d="M81.0027 31.0032C81.0027 31.0032 80.9822 30.9555 80.9686 30.9283L81.071 31.1734C81.0095 31.0168 80.9686 30.8534 80.9412 30.6899L80.9754 30.9623C80.9481 30.724 80.9481 30.4925 80.9754 30.2541L80.9412 30.5265C80.9754 30.3086 81.03 30.0975 81.112 29.9L81.0096 30.1452C81.0779 29.9886 81.153 29.8456 81.2555 29.7094L81.0984 29.9137C81.1735 29.8183 81.2555 29.7366 81.3511 29.6617L81.1462 29.8183C81.2282 29.757 81.3101 29.7094 81.399 29.6685L81.153 29.7707C81.2077 29.7502 81.2623 29.7298 81.3238 29.7162C81.843 29.58 82.2119 28.9808 82.0411 28.4565C81.8703 27.9321 81.3375 27.5985 80.7773 27.7415C79.8892 27.9798 79.2948 28.7561 79.0489 29.6072C78.8166 30.4107 78.8713 31.2755 79.2333 32.0314C79.3358 32.2493 79.6159 32.44 79.8482 32.5012C80.0941 32.5693 80.422 32.5353 80.6406 32.3991C80.8593 32.2629 81.0505 32.0518 81.112 31.7862C81.1735 31.5071 81.1325 31.2619 81.0096 30.9964L81.0027 31.0032Z" fill="black"/>
<path d="M78.9739 31.0986C79.0217 31.2689 79.049 31.4459 79.0968 31.6161C79.1446 31.7864 79.2335 31.9362 79.2744 32.1064C79.3086 32.2426 79.3701 32.3584 79.4589 32.4537C79.534 32.5626 79.6297 32.6512 79.7458 32.7193C79.862 32.7942 79.9918 32.835 80.1284 32.8418C80.265 32.8691 80.4017 32.8691 80.5383 32.8214L80.7842 32.7193C80.9414 32.6307 81.0575 32.5082 81.1531 32.3516L81.2556 32.1064C81.3034 31.9226 81.3034 31.7455 81.2556 31.5617C81.2146 31.3914 81.1258 31.2348 81.078 31.0714C81.0302 30.908 81.0029 30.7241 80.955 30.5539C80.9209 30.4177 80.8594 30.3019 80.7706 30.2066C80.6954 30.0976 80.5998 30.0091 80.4836 29.941C80.3675 29.8661 80.2377 29.8253 80.1011 29.8185C79.9644 29.7912 79.8278 29.7912 79.6912 29.8389L79.4452 29.941C79.2881 30.0295 79.172 30.1521 79.0763 30.3087L78.9739 30.5539C78.926 30.7377 78.926 30.9148 78.9739 31.0986Z" fill="black"/>
<path d="M74.663 47.6794C74.7723 47.9722 74.9021 48.2446 75.0729 48.5033C75.2027 48.7076 75.353 48.8983 75.4964 49.089C75.6741 49.3273 75.8448 49.5724 76.0361 49.8039C76.2274 50.0355 76.4665 50.2329 76.7125 50.4032C76.9174 50.5462 77.2658 50.5734 77.5049 50.5053C77.744 50.4372 78.0036 50.2602 78.1198 50.0355C78.2427 49.7971 78.3111 49.5111 78.2223 49.2456C78.1334 48.98 77.9831 48.7962 77.7509 48.6327C77.7235 48.6123 77.6962 48.5919 77.6621 48.5714L77.867 48.7281C77.7031 48.5987 77.5664 48.4557 77.4366 48.2923L77.5937 48.4965C77.4093 48.2582 77.2248 48.0063 77.0472 47.7611C76.8696 47.516 76.692 47.2572 76.569 46.9712L76.6715 47.2164C76.6715 47.2164 76.6441 47.1551 76.6373 47.121C76.5417 46.8691 76.405 46.6512 76.1659 46.5082C75.9473 46.3788 75.6194 46.3243 75.3735 46.4061C75.1275 46.4878 74.8884 46.6376 74.7586 46.8759C74.6288 47.1142 74.5605 47.407 74.6561 47.6658L74.663 47.6794Z" fill="black"/>
<path d="M10.1996 39.3379C10.2885 40.3184 10.7052 41.156 11.0741 42.0548C11.443 42.9537 11.8871 43.8661 12.4131 44.6969C13.4788 46.3788 14.9613 47.8224 16.3208 49.266C17.6803 50.7096 19.2106 52.0306 20.9185 53.1065C22.6264 54.1824 24.6554 55.0131 26.4931 56.0209C27.6477 56.6542 28.6861 54.8905 27.5247 54.2573C25.8988 53.3652 24.1635 52.6639 22.5581 51.7106C20.9526 50.7572 19.4838 49.5928 18.1653 48.2378C16.9288 46.9644 15.6171 45.6638 14.5651 44.2338C14.0117 43.4848 13.5608 42.6472 13.1714 41.7961C12.8367 41.0606 12.3175 40.1482 12.2423 39.3379C12.1193 38.0373 10.0698 38.0305 10.1928 39.3379H10.1996Z" fill="black"/>
<path d="M5.67689 40.1822C6.47619 40.8632 7.37797 41.1628 8.40955 41.2718C9.32499 41.3671 10.3634 41.4216 11.2378 41.0811C11.4974 40.9789 11.7092 40.8564 11.8527 40.6112C11.9825 40.3933 12.0371 40.0665 11.9552 39.8213C11.798 39.3379 11.231 38.8953 10.6913 39.1064C10.5137 39.1745 10.2746 39.2766 10.0833 39.2698C10.3497 39.2766 10.0628 39.2698 9.99449 39.2698C9.89885 39.2698 9.8032 39.2766 9.71439 39.2834C9.33182 39.2834 8.94242 39.2698 8.55301 39.2357C8.4847 39.2357 8.17044 39.1676 8.47103 39.2357C8.40272 39.2221 8.3344 39.2153 8.26608 39.2017C8.08163 39.1676 7.90401 39.1268 7.72638 39.0655C7.67856 39.0519 7.56926 39.0315 7.52827 38.9906C7.6649 39.0519 7.68539 39.0587 7.58292 39.011C7.54193 38.9906 7.50094 38.9702 7.45995 38.9497C7.37797 38.9021 7.29599 38.8544 7.21401 38.7999C7.17302 38.7727 7.13203 38.7455 7.09104 38.7114C7.20035 38.7931 7.20718 38.7999 7.11837 38.7318C6.70847 38.3846 6.0663 38.3029 5.67006 38.7318C5.32165 39.1132 5.23284 39.8077 5.67006 40.1754L5.67689 40.1822Z" fill="black"/>
<path d="M7.49451 40.6794C8.37579 40.5636 9.27074 40.7066 10.1452 40.4819C10.5756 40.373 10.9786 40.1755 11.3817 39.9985C11.4705 39.9576 11.5593 39.9168 11.655 39.8759C11.5252 39.9304 11.6686 39.8759 11.7233 39.8487C11.9146 39.7806 12.1059 39.7261 12.304 39.6852L11.0401 38.9702C11.0675 39.0588 11.088 39.1541 11.1016 39.2426C11.0606 39.0383 11.1084 39.3107 11.1153 39.3584C11.1426 39.6103 11.1631 39.8623 11.2041 40.1142C11.2724 40.55 11.3476 40.9858 11.4569 41.4148C11.655 42.2183 12.0239 42.9674 12.222 43.7641C12.3518 44.2816 12.9598 44.6425 13.4859 44.4791C14.0119 44.3156 14.3466 43.7777 14.2032 43.2193C13.9982 42.4158 13.6362 41.6668 13.438 40.8701C13.3287 40.4479 13.2468 40.0053 13.1853 39.5695C13.2126 39.7533 13.1853 39.5082 13.1784 39.4537C13.1716 39.372 13.1648 39.2903 13.1511 39.2086C13.117 38.943 13.0896 38.6774 13.0145 38.4255C12.8505 37.8603 12.304 37.6152 11.7506 37.7105C11.3339 37.7854 10.9513 37.9556 10.5687 38.1191C10.4048 38.194 10.234 38.2689 10.07 38.337C10.2477 38.2553 9.96073 38.3778 9.9539 38.3846C9.86509 38.4187 9.77628 38.4459 9.68747 38.4732C9.59183 38.5004 9.49618 38.5208 9.39371 38.5413L9.29123 38.5549C9.37321 38.5413 9.38004 38.5413 9.3049 38.5481C9.11361 38.5481 8.92232 38.5685 8.73104 38.5685C8.31431 38.5685 7.89758 38.5617 7.48768 38.6162C6.96164 38.6842 6.43561 39.0383 6.46293 39.6376C6.48343 40.1278 6.92065 40.7339 7.48768 40.659L7.49451 40.6794Z" fill="black"/>
<path d="M11.3952 32.1608C11.3747 32.0927 11.3747 31.9293 11.3338 31.8748C11.3679 31.9157 11.3542 32.0723 11.3474 31.9225C11.3474 31.868 11.3474 31.8203 11.3406 31.7659C11.3406 31.5343 11.3474 31.3096 11.3747 31.0781C11.3747 31.0236 11.3884 30.9692 11.3952 30.9147C11.4089 30.7649 11.3679 31.0917 11.3952 30.9351C11.4157 30.8262 11.4294 30.7172 11.4431 30.6083C11.4772 30.3836 11.5182 30.1588 11.5455 29.9341C11.607 29.4983 11.6343 29.0761 11.648 28.6403C11.648 28.545 11.648 28.4429 11.6617 28.3475C11.6617 28.2863 11.6685 28.225 11.6753 28.1637C11.6753 28.1296 11.6958 27.9662 11.6753 28.1228C11.6548 28.2794 11.6753 28.1228 11.6822 28.0888C11.689 28.0479 11.7027 28.0003 11.7095 27.9594C11.7232 27.9185 11.7368 27.8777 11.7505 27.8368C11.7778 27.7211 11.6412 28.0615 11.7368 27.8913C11.9964 27.4283 11.8666 26.7541 11.3679 26.4954C10.8692 26.2366 10.2475 26.366 9.96742 26.8631C9.68733 27.3602 9.62584 27.8845 9.60535 28.4224C9.59852 28.6335 9.59852 28.8446 9.59168 29.0557C9.59168 29.151 9.58485 29.2396 9.57802 29.3349C9.57802 29.3826 9.57119 29.4302 9.56436 29.4779C9.56436 29.5051 9.56436 29.5256 9.55753 29.5528C9.55069 29.6277 9.55753 29.6005 9.57119 29.4711C9.5302 29.5051 9.5302 29.7298 9.52337 29.7843C9.50287 29.9069 9.48238 30.0295 9.46188 30.1452C9.41406 30.4516 9.36624 30.7649 9.33891 31.0781C9.28426 31.6161 9.29109 32.1744 9.44139 32.6987C9.59168 33.2231 10.1724 33.584 10.7052 33.4137C11.2381 33.2435 11.5797 32.7056 11.4226 32.154L11.3952 32.1608Z" fill="black"/>
<path d="M10.1656 33.4002C11.4841 33.4002 11.4841 31.3574 10.1656 31.3574C8.84713 31.3574 8.84713 33.4002 10.1656 33.4002Z" fill="black"/>
<path d="M7.75381 25.9914C8.90153 26.9311 9.96043 27.6393 11.0398 28.6266C11.5864 29.1305 12.1329 29.6344 12.7341 30.0702C13.2601 30.4516 13.8135 30.901 14.4693 31.0167C14.9954 31.1121 15.5965 30.8737 15.7332 30.3018C15.8493 29.8047 15.5829 29.1442 15.0158 29.042C14.9612 29.0284 14.8997 29.0216 14.8451 29.0012C14.5923 28.9399 14.9202 29.0488 14.7836 28.9807C14.6469 28.9126 14.524 28.8309 14.3942 28.7492C14.1619 28.5926 13.9433 28.4292 13.7178 28.2657C13.6632 28.2249 13.6563 28.2181 13.7042 28.2589L13.6154 28.1908C13.5539 28.1432 13.4992 28.0955 13.4446 28.0478C13.3148 27.9389 13.1918 27.8299 13.062 27.7142C12.8161 27.4895 12.5701 27.258 12.3173 27.0332C11.7913 26.5634 11.2311 26.1276 10.6709 25.6986C10.1107 25.2696 9.74182 24.9972 9.19529 24.5478C8.78539 24.2073 8.14322 24.112 7.74698 24.5478C7.39857 24.9223 7.30292 25.6305 7.74698 25.9914H7.75381Z" fill="black"/>
<path d="M81.0027 37.9692C81.317 38.0101 81.6722 37.9011 81.9728 37.8126C82.4032 37.6832 82.8199 37.5062 83.2367 37.3223C83.9403 37.0159 84.7191 36.6414 85.2588 36.0898C85.4433 35.906 85.6209 35.6608 85.6824 35.4089C85.7917 34.9663 85.6756 34.5986 85.3886 34.2581C85.2315 34.0674 84.9036 33.9585 84.6645 33.9585C84.4117 33.9585 84.1111 34.0674 83.9403 34.2581C83.5373 34.7007 83.5714 35.2591 83.9403 35.7017C83.8037 35.5383 83.7695 35.511 83.7081 35.3C83.7081 35.3136 83.7081 35.3204 83.7149 35.334L83.6807 35.0616C83.6807 35.0616 83.6807 35.082 83.6807 35.0957L83.7149 34.8233C83.6876 35.014 83.8652 34.5441 83.7696 34.7007C83.7217 34.7892 83.6261 34.8165 83.8789 34.5645C83.8584 34.585 83.8447 34.6054 83.8242 34.6258C83.7832 34.6735 83.7354 34.7143 83.6807 34.7552C83.6671 34.7688 83.6534 34.7756 83.6397 34.7892C83.5646 34.8505 83.6124 34.8097 83.7832 34.6803C83.7491 34.7007 83.7217 34.728 83.6876 34.7484C83.387 34.9595 83.0591 35.1433 82.7243 35.3068C82.5467 35.3953 82.3622 35.4838 82.1778 35.5587C82.1026 35.5928 81.8977 35.6745 82.2461 35.5315C82.1983 35.5519 82.1505 35.5723 82.1095 35.5859C82.0207 35.62 81.925 35.6608 81.8362 35.6881C81.5424 35.797 81.2418 35.8992 80.9344 35.94L81.2077 35.906C81.1394 35.9128 81.0711 35.9196 80.9959 35.906C80.7568 35.8787 80.4357 36.0422 80.2718 36.2056C80.0941 36.3826 79.9575 36.6754 79.9712 36.9274C79.9848 37.1793 80.0668 37.4653 80.2718 37.6492C80.4835 37.8467 80.709 37.9148 80.9959 37.9488L81.0027 37.9692Z" fill="black"/>
<path d="M41.6389 28.9671C40.8669 28.7084 40.0403 28.15 39.2205 28.9195C39.1863 28.9467 39.0634 28.8854 38.8994 28.8446C39.5962 28.0887 40.2179 27.4214 41.1949 27.1627C41.6867 27.0333 42.2333 26.8835 42.445 26.2502C42.124 25.4944 41.5433 25.7123 41.0582 25.828C39.3025 26.2638 38.1616 27.3329 37.3896 29.008C36.7133 30.472 37.5263 32.3378 38.9609 32.9643C39.323 33.1277 39.7465 33.2162 40.1564 33.0119C40.2657 32.9983 40.3751 32.9779 40.4775 32.9438C40.8396 32.8281 41.1197 32.6578 41.3998 32.4127C41.4749 32.3514 41.5364 32.2833 41.5979 32.2084C41.6184 32.1812 41.6457 32.1539 41.6662 32.1199C42.4041 31.5411 42.65 30.8329 42.3631 29.9137C42.2469 29.5459 41.9532 29.0693 41.6321 28.9603L41.6389 28.9671Z" fill="black"/>
<path d="M56.3745 30.5265C56.3404 30.2678 56.2789 30.0703 56.1628 29.832C56.033 29.5596 55.8144 29.3349 55.5616 29.1646C55.4728 29.0761 55.384 29.008 55.2883 28.974C54.5163 28.7152 53.6897 28.1569 52.8699 28.9263C52.8358 28.9536 52.7128 28.8923 52.5488 28.8514C53.2457 28.0956 53.8673 27.4282 54.8443 27.1695C55.3361 27.0401 55.8827 26.8903 56.0945 26.257C55.7734 25.5012 55.1927 25.7191 54.7076 25.8348C52.9519 26.2706 51.811 27.3397 51.039 29.0148C50.3627 30.4789 51.1757 32.3446 52.6103 32.9711C52.8289 33.0664 53.0749 33.1413 53.3208 33.1413C53.4779 33.1686 53.6351 33.1686 53.8059 33.1413C54.0723 33.0937 54.3387 33.0392 54.5983 32.9507C55.0219 32.8077 55.384 32.6238 55.7255 32.3378C55.8827 32.2016 56.0193 32.0314 56.1218 31.8544C56.2243 31.6773 56.3131 31.473 56.3541 31.2756C56.4087 31.0168 56.4224 30.7921 56.3882 30.5333L56.3745 30.5265Z" fill="black"/>
<path d="M60.5354 13.0877C59.9205 12.686 59.333 12.8834 58.9299 13.3737C58.8684 13.4486 58.8138 13.5371 58.7591 13.6257C58.4517 13.9321 58.2399 14.293 57.9667 14.6607C57.5636 15.1986 57.1127 15.7093 56.6618 16.2064C55.7532 17.2074 54.7626 18.1131 53.5739 18.7804C52.4399 19.4205 51.2717 19.6928 49.9805 19.7133C49.4408 19.7201 48.7576 19.7337 48.2794 19.4409C48.2248 19.3864 48.1633 19.3388 48.1086 19.2775C48.0949 19.2639 48.095 19.2639 48.0881 19.257C48.0881 19.257 48.0881 19.257 48.0881 19.2434C48.0608 19.1958 48.0266 19.1481 47.9993 19.1004C47.9652 19.0391 47.931 18.9779 47.8968 18.9166C47.8968 18.9166 47.8968 18.9098 47.8968 18.903C47.8968 18.903 47.8968 18.8961 47.8968 18.8893C47.8695 18.7668 47.8285 18.6442 47.7944 18.5216C47.7944 18.5148 47.7944 18.508 47.7944 18.5012C47.7944 18.4331 47.7875 18.3582 47.7807 18.2901C47.7807 18.2356 47.7807 18.1744 47.7807 18.1199C47.7807 18.1199 47.7944 18.0109 47.8012 17.9701C47.808 17.9292 47.8217 17.8815 47.8217 17.8815C47.8353 17.8271 47.849 17.7726 47.8695 17.7249C47.8695 17.7249 47.9173 17.616 47.9242 17.5887C47.9378 17.5615 47.9583 17.5275 47.9583 17.5206C48.0198 17.4117 48.0813 17.3096 48.1496 17.2074C48.1906 17.1529 48.2316 17.0985 48.2657 17.0372C48.2657 17.0304 48.2657 17.0304 48.2726 17.0236C48.2726 17.0236 48.2726 17.0236 48.2794 17.0168C48.3614 16.9214 48.4365 16.8261 48.5185 16.7308C48.703 16.5197 48.8874 16.3154 49.065 16.1111C49.106 16.0634 49.147 16.009 49.1812 15.9477C49.27 15.8455 49.3383 15.7298 49.3725 15.5868C49.4408 15.3416 49.4066 15.0148 49.27 14.7969C49.1265 14.579 48.9216 14.3883 48.6551 14.327C48.4024 14.2658 48.0881 14.2726 47.8627 14.4292C47.5074 14.6811 47.1658 14.9467 46.8243 15.2191C46.674 15.3144 46.5237 15.4234 46.3802 15.5187C44.2897 16.8465 42.1514 18.0994 40.1088 19.4954C38.9064 20.3193 37.7109 19.8971 36.7818 19.3796C36.0439 18.9642 35.6955 17.902 35.8117 16.7989C35.9415 15.5391 36.8364 14.8037 37.5059 13.9593C38.5853 12.6043 39.692 11.1607 41.9465 11.1539C41.9465 11.1539 41.9465 11.147 41.9465 11.1402C41.9601 11.1402 41.9738 11.1402 41.9875 11.1402C42.5203 11.1402 43.0395 10.6704 43.0122 10.1188C42.9849 9.56726 42.5613 9.09741 41.9875 9.09741C41.277 9.09741 40.5597 9.09741 39.8628 9.26084C39.2138 9.41745 38.6741 9.77835 38.1276 10.1324C38.032 10.1937 37.95 10.2754 37.8748 10.364C37.7519 10.4457 37.6289 10.5206 37.5059 10.5955C35.4359 11.8484 34.5068 13.9593 33.6255 16.0226C33.2976 16.7989 33.3659 17.8407 33.5367 18.7055C34.1106 21.5927 38.2574 22.6617 40.6553 21.7561C40.7714 21.7289 40.8876 21.7084 40.9969 21.6744C41.7074 21.4429 42.37 21.0888 43.0259 20.7483C43.6749 20.4078 44.3034 20.0265 44.9319 19.6384C45.4921 20.1695 45.9362 20.6121 46.4144 21.0071C48.0403 22.3417 50.0146 22.2396 51.9412 22.2668C53.1709 22.2872 54.2298 21.797 55.1999 21.0547C55.801 20.5985 56.45 20.2036 57.0786 19.7814C57.3382 19.6043 57.6661 19.4749 57.8505 19.2434C58.9573 17.8475 59.9615 16.3903 60.7198 14.7628C61.0956 13.9593 61.0956 13.4554 60.5149 13.0809L60.5354 13.0877Z" fill="black"/>
<path d="M76.2959 48.6124C75.4282 49.232 74.5743 49.8789 73.6998 50.4918C73.2694 50.7914 72.8322 51.091 72.395 51.3702C72.1764 51.5132 71.9509 51.6494 71.7255 51.7856C71.6093 51.8537 71.5 51.9149 71.3771 51.9762C71.3224 52.0035 71.2609 52.0375 71.1995 52.0647C71.3019 52.0239 71.2951 52.0307 71.1858 52.0647C70.6871 52.2554 70.2908 52.7593 70.4685 53.3245C70.6256 53.808 71.1926 54.2438 71.7323 54.0395C72.7844 53.6309 73.734 52.9568 74.6494 52.3167C75.5649 51.6766 76.4325 51.0229 77.3274 50.3828C77.7647 50.0696 78.0174 49.4772 77.6963 48.9869C77.4162 48.5579 76.7604 48.2855 76.2959 48.6192V48.6124Z" fill="black"/>
<path d="M87.6772 36.4848C87.6772 36.8389 87.6772 37.193 87.6635 37.5403C87.6498 37.8876 87.6635 38.2825 87.5747 38.6162C87.6498 38.3234 87.5747 38.6366 87.561 38.6979C87.5474 38.766 87.5337 38.8409 87.52 38.909C87.479 39.0928 87.4381 39.2767 87.3834 39.4606C87.3492 39.5831 87.3082 39.8351 87.2194 39.9304C87.2809 39.7942 87.2878 39.7806 87.2399 39.8827C87.2194 39.9236 87.1989 39.9713 87.1784 40.0121C87.1375 40.0938 87.0896 40.1823 87.0486 40.2641C86.7822 40.7271 86.9188 41.4012 87.4176 41.66C87.9163 41.9187 88.5379 41.7894 88.818 41.2923C89.6447 39.8283 89.7266 38.1259 89.7266 36.4848C89.7266 35.9537 89.2553 35.4362 88.7019 35.4634C88.1485 35.4907 87.6772 35.9129 87.6772 36.4848Z" fill="black"/>
<path d="M79.8345 26.8358C79.8208 27.4078 79.9574 27.9662 79.9301 28.5314C79.9164 28.7833 80.0531 29.0761 80.2307 29.2532C80.4083 29.4302 80.7021 29.5664 80.9548 29.5528C81.2076 29.5392 81.4945 29.4574 81.679 29.2532C81.8635 29.0489 81.9659 28.8106 81.9796 28.5314C82.0069 27.9594 81.8703 27.401 81.8839 26.8358C81.8908 26.5771 81.7678 26.2911 81.5834 26.114C81.3989 25.937 81.112 25.8008 80.8592 25.8144C80.6064 25.828 80.3195 25.9097 80.1351 26.114C79.9506 26.3183 79.8413 26.5566 79.8345 26.8358Z" fill="black"/>
<path d="M51.135 36.5529C50.9095 36.5461 50.7456 36.6074 50.5406 36.6959C50.5201 36.7095 50.5065 36.7299 50.486 36.7435C50.0897 36.9955 49.7003 37.1862 49.3109 37.3428C49.2426 37.3632 49.1675 37.3836 49.0992 37.3972C48.334 37.6083 47.5552 37.7854 46.7559 37.7581C46.0249 37.7377 45.2871 37.5334 44.6039 37.2883C44.3238 37.1862 44.0369 37.084 43.7773 36.9342C43.4904 36.764 43.2239 36.5801 42.896 36.5052C42.1172 36.3282 41.7551 37.3836 42.3358 37.7309C42.3768 37.7854 42.4246 37.8467 42.4861 37.8875C42.6023 37.9624 44.4331 39.1813 46.9472 39.1813C47.8421 39.1813 48.8259 39.0179 49.8506 38.6025C50.486 38.4118 51.1213 38.1735 51.6132 37.7241C52.0641 37.3087 51.6952 36.5801 51.1281 36.5597L51.135 36.5529Z" fill="black"/>
</g>
<defs>
<clipPath id="clip0_1260_15213">
<rect width="90" height="61.8158" fill="white"/>
</clipPath>
</defs>
</svg>
