<svg width="226" height="72" viewBox="0 0 226 72" fill="none" xmlns="http://www.w3.org/2000/svg">
<g clip-path="url(#clip0_1260_14432)">
<path d="M87.6569 42.3409C87.2811 40.6794 87.1103 38.9362 86.1403 37.4518C85.8465 37.0091 85.4981 36.6006 85.2385 36.1444C84.6031 35.014 83.7833 34.4011 83.0045 34.7212C82.3692 34.9799 81.7612 35.4021 81.2898 35.8992C81.0985 36.1035 81.2966 36.6687 81.3035 37.0772C81.3035 37.7854 80.7569 37.9761 80.2377 38.1259C79.7322 38.2689 79.4726 37.9897 79.3154 37.479C78.9807 36.3895 78.7962 35.3953 79.821 34.5169C80.3812 34.0334 80.4222 33.4138 79.9781 32.7601C79.8005 32.5081 79.7868 32.1472 79.698 31.834C79.3701 30.6628 79.2676 29.3554 78.6596 28.3612C77.5461 26.5499 77.5119 24.3505 76.3369 22.5936C75.927 21.974 75.4897 21.3543 75.2028 20.6734C74.7997 19.7064 73.7272 19.4613 73.1943 18.6782C71.7323 16.5196 69.6828 15.0216 67.565 13.5848C66.6018 12.9311 65.8571 11.9778 64.5591 11.8212C63.8418 11.7326 63.0357 11.4943 62.496 11.0449C61.4371 10.1597 60.1937 9.88728 58.9298 9.58086C57.8299 9.30848 56.7437 8.97482 55.6438 8.68882C55.3432 8.60711 55.0153 8.54583 54.7079 8.57306C53.1093 8.70244 51.579 8.4505 50.0829 7.85808C49.6525 7.68784 49.1469 7.64699 48.6755 7.61975C48.0949 7.5857 47.5073 7.61975 46.9198 7.64699C46.1683 7.68103 45.4237 7.7287 44.679 7.77636C44.358 7.79679 44.0369 7.85127 43.7158 7.86489C42.8003 7.89893 41.8849 7.91936 40.9695 7.9466C40.2658 7.96703 39.569 7.97384 38.8653 7.98746C37.0276 8.0215 35.1762 7.91255 33.4137 8.57306C32.0132 9.09739 30.5376 9.52638 29.26 10.2686C26.869 11.6645 24.3959 13.0196 22.8793 15.505C22.7973 15.6412 22.7085 15.7978 22.5787 15.8864C20.8844 17.0508 19.8255 18.6987 18.9648 20.51C18.8486 20.7551 18.7325 21.007 18.5753 21.2249C17.4481 22.7639 16.601 24.4254 16.2868 26.3252C16.1706 27.0334 15.7129 27.2717 15.1185 27.0538C14.7018 26.904 14.3397 26.5499 13.9913 26.2435C13.759 26.0392 13.6292 25.5762 13.4038 25.5353C12.099 25.297 10.7531 24.9156 9.46195 25.0382C7.60374 25.2153 6.2784 26.3388 5.2195 27.9731C4.02396 29.832 3.02654 31.7046 2.63714 33.8904C2.13843 36.7095 2.41853 39.3175 4.14693 41.7349C5.34247 43.41 7.13236 43.8322 8.88809 44.3837C9.09987 44.4518 9.41412 44.2816 9.65323 44.1726C10.1451 43.9547 10.6507 43.73 11.1084 43.4508C11.6139 43.1376 12.0853 42.9674 12.6045 43.4168C12.6318 43.8798 12.5908 44.3633 12.6865 44.8195C12.7958 45.3439 12.9597 45.8409 13.151 46.3244C15.3098 42.9469 19.0809 40.7066 23.3917 40.7066C30.1003 40.7066 35.5383 46.1269 35.5383 52.8138C35.5383 56.2253 34.1173 59.2963 31.8424 61.4958C32.1498 61.632 32.4641 61.7613 32.7715 61.9043C33.3112 62.1427 33.8099 62.524 34.3701 62.6806C37.8337 63.6407 41.3794 64.2536 44.9113 64.9209C45.5808 65.0503 46.305 64.9073 47.0018 64.846C47.9104 64.7643 48.8122 64.6349 49.714 64.5123C51.6132 64.2604 53.5533 64.1514 55.3979 63.6748C56.3816 63.4228 57.1604 63.3684 57.9324 63.9472C58.1579 63.7769 58.3492 63.5999 58.5404 63.4433C54.7694 61.3868 52.2075 57.3965 52.2075 52.8138C52.2075 46.1269 57.6455 40.7066 64.3542 40.7066C71.0628 40.7066 76.2412 45.8886 76.4803 52.3644C76.5145 52.4529 76.5486 52.5482 76.5965 52.6299C77.1567 53.5356 78.7348 54.3936 79.6502 54.019C81.2625 53.3517 82.8952 52.6231 83.8858 51.0433C84.5416 49.9947 85.218 48.946 85.8055 47.8565C86.3794 46.7874 86.9327 45.6843 87.3495 44.5472C87.6022 43.8594 87.7935 43.0219 87.6432 42.3409H87.6569ZM15.18 36.2737C14.4695 36.5189 13.9367 36.1443 13.5199 35.5792C13.1032 35.0208 12.6796 34.4692 12.2083 33.8564C11.0947 34.5237 11.286 35.6541 11.0742 36.5938C11.0059 36.9002 11.1152 37.2407 11.0947 37.5675C11.0605 38.2212 10.6438 38.5685 10.029 38.5685C9.33898 38.5685 9.07254 38.0578 9.12719 37.4586C9.27066 35.8515 9.47561 34.2445 9.67373 32.4877C9.12719 32.1949 8.50552 31.9634 8.01364 31.5684C7.73354 31.3437 7.46711 30.799 7.54909 30.4925C7.63107 30.1725 8.11611 29.8388 8.47819 29.7503C8.85393 29.655 9.33898 29.7707 9.71472 29.9274C10.3637 30.1997 11.0059 30.5198 11.5729 30.9215C12.7206 31.7387 13.8274 32.6171 14.9341 33.4887C15.1869 33.6862 15.426 33.9381 15.5831 34.2105C15.9315 34.8369 15.6992 36.1035 15.18 36.2805V36.2737ZM85.1702 40.6658C84.6031 41.231 83.9268 41.6872 83.2505 42.2183C83.2505 43.9003 83.2846 45.6162 83.23 47.3322C83.2163 47.8497 83.0319 48.4013 82.7859 48.8575C82.6151 49.1776 82.1164 49.6134 81.8978 49.5453C81.5016 49.4295 81.1122 49.0277 80.9004 48.6464C80.7364 48.3604 80.7228 47.8633 80.8662 47.5569C81.4811 46.2495 81.1805 44.9149 81.1532 43.5598C80.8184 43.444 80.4905 43.3827 80.2172 43.2261C79.1583 42.6201 79.172 41.8779 80.1147 41.0812C81.3581 40.0257 82.8816 39.7261 84.3777 39.3516C84.6646 39.2767 85.1907 39.4469 85.3341 39.6784C85.4708 39.8963 85.3683 40.4547 85.1633 40.6522L85.1702 40.6658Z" fill="#FFECE6"/>
<path d="M35.5518 52.8071C35.5518 46.1202 30.1138 40.7 23.4052 40.7C19.0944 40.7 15.3165 42.9471 13.1646 46.3177C13.8204 47.9792 14.8451 49.4705 15.5146 51.132C15.5693 51.2682 15.7196 51.3771 15.8426 51.4792C17.1132 52.5415 18.5001 53.5016 19.6409 54.6933C21.2122 56.3343 23.1456 57.4647 24.9286 58.8062C25.4547 59.2011 25.9875 59.5075 26.7117 59.419C27.0533 59.3782 27.4495 59.5756 27.7979 59.7186C29.1574 60.3042 30.5169 60.8966 31.8764 61.4959C34.1513 59.2964 35.5723 56.2186 35.5723 52.8139L35.5518 52.8071Z" fill="#FFDFDC"/>
<path d="M64.3678 40.7068C57.6592 40.7068 52.2212 46.127 52.2212 52.8139C52.2212 57.4034 54.7831 61.3937 58.5541 63.4434C58.7454 63.2868 58.9299 63.1506 59.1416 63.062C59.818 62.7692 60.5421 62.5581 61.2663 62.3947C63.7667 61.8159 66.1031 60.8898 68.2072 59.3986C70.1542 58.0231 72.1901 56.7497 74.0483 55.2585C74.8339 54.632 76.0431 53.917 75.3873 52.453C75.3395 52.3508 75.6605 52.0104 75.8723 51.9082C75.9748 51.8538 76.2481 52.058 76.3984 52.1942C76.4462 52.2351 76.4667 52.2964 76.494 52.3577C76.2549 45.8819 70.9262 40.7 64.3678 40.7V40.7068Z" fill="#FFDFDC"/>
<path d="M14.7839 23.6082C15.2348 21.6403 16.1229 20.1831 17.1818 18.8076C17.6737 18.1675 18.0494 17.4389 18.5481 16.8056C19.4499 15.6616 20.3039 14.4564 21.3491 13.4622C22.8589 12.0254 24.4712 10.6772 26.1381 9.41741C28.1466 7.89892 30.4967 7.06817 32.9356 6.49618C34.0901 6.2238 35.2583 5.97185 36.4402 5.82886C37.2737 5.72671 38.1276 5.86971 38.9679 5.82886C41.6186 5.68586 44.2693 5.38624 46.9199 5.39986C48.8465 5.40667 50.7798 5.79481 52.7063 6.03995C53.1299 6.09442 53.5534 6.35318 53.9633 6.32594C55.6781 6.19656 57.2494 6.80941 58.8821 7.13626C61.9085 7.7423 64.5182 9.37656 67.2304 10.6499C69.5053 11.7122 71.6231 13.2647 73.3515 15.2803C74.5607 16.6899 76.0159 17.9292 77.0406 19.4681C78.3523 21.436 79.3839 23.581 80.1627 25.8417C80.88 27.9322 81.6793 29.9886 82.4923 32.2085C82.7519 32.2766 83.1549 32.4468 83.5785 32.5013C85.2727 32.7192 86.3453 33.7883 87.3427 35.048C89.1326 37.3156 89.4537 40.0597 89.9592 42.7426C90.0207 43.0559 90.0344 43.4168 89.9387 43.7096C89.2966 45.5958 88.8184 47.5705 87.9029 49.3137C86.8304 51.3497 85.1976 53.0385 83.4624 54.5774C82.9158 55.0609 82.2873 55.4762 81.6451 55.8303C79.9372 56.77 78.1883 56.0482 76.2618 55.8916C75.9612 56.2866 75.5923 56.8041 75.1824 57.2875C74.916 57.6076 74.6086 57.9072 74.2738 58.1523C71.9579 59.8479 69.4302 61.1417 66.7385 62.1426C66.2876 62.3129 65.8982 62.6533 65.4473 62.8304C64.3474 63.2662 63.2339 63.6611 62.1135 64.0493C60.631 64.56 59.1349 65.0503 57.6456 65.5542C56.9283 65.7993 56.2519 65.9423 55.4322 65.8061C54.7763 65.6972 54.0317 66.2351 53.3143 66.4053C52.6927 66.5483 52.0437 66.5756 51.4083 66.6573C50.8755 66.7254 50.3084 66.7049 49.8097 66.882C48.2658 67.4404 46.715 67.2225 45.1505 67.0727C44.1873 66.9841 43.1694 67.2088 42.2471 66.9977C39.1933 66.2964 36.0918 65.6699 33.1678 64.5872C31.4736 63.9608 29.7657 63.3479 28.0783 62.701C27.5864 62.5104 27.1628 62.1631 26.6915 61.9111C24.6215 60.7808 22.5173 59.7185 20.4952 58.5132C19.7232 58.0502 19.2108 57.1786 18.4662 56.6475C16.3279 55.129 15.0093 52.8887 13.3288 50.9752C13.117 50.7369 12.8232 50.4577 12.8027 50.1853C12.6934 48.5374 11.0948 47.7544 10.7669 46.0656C9.89245 46.8691 9.20245 46.8351 8.36899 46.447C7.76781 46.1678 6.94118 46.3993 6.3195 46.1474C3.86011 45.1532 2.1522 43.1921 0.847361 41.0403C-0.177385 39.3379 -0.0475835 37.2338 0.164197 35.2387C0.225682 34.6531 0.205187 34.0538 0.334988 33.4887C0.574096 32.4536 0.847361 31.4254 1.20944 30.4312C2.07706 28.0479 3.56635 25.9643 5.38357 24.3368C7.22128 22.6889 9.66017 22.0693 12.222 22.8864C13.0418 23.152 13.8753 23.3699 14.7976 23.6423L14.7839 23.6082ZM57.953 63.9471C58.3971 63.6067 58.7318 63.239 59.1486 63.0551C59.8249 62.7623 60.549 62.5512 61.2732 62.3878C63.7736 61.809 66.11 60.8829 68.2141 59.3916C70.1612 58.0161 72.197 56.7428 74.0552 55.2515C74.8408 54.6251 76.05 53.9101 75.3942 52.446C75.3464 52.3439 75.6675 52.0034 75.8792 51.9013C75.9817 51.8468 76.255 52.0511 76.4053 52.1873C76.5146 52.2894 76.5351 52.4801 76.6171 52.6231C77.1773 53.5287 78.7554 54.3867 79.6708 54.0122C81.2831 53.3449 82.9158 52.6163 83.9064 51.0365C84.5623 49.9879 85.2386 48.9392 85.8261 47.8497C86.4 46.7806 86.9533 45.6775 87.3701 44.5403C87.6228 43.8526 87.8141 43.015 87.6638 42.3341C87.2881 40.6726 87.1173 38.9294 86.1472 37.4449C85.8534 37.0023 85.505 36.5938 85.2454 36.1375C84.6101 35.0072 83.7903 34.3943 83.0115 34.7144C82.3761 34.9731 81.7681 35.3953 81.2967 35.8924C81.1054 36.0967 81.3036 36.6618 81.3104 37.0704C81.3104 37.7786 80.7639 37.9693 80.2447 38.1191C79.7391 38.2621 79.4795 37.9829 79.3224 37.4722C78.9876 36.3827 78.8032 35.3885 79.8279 34.5101C80.3881 34.0266 80.4291 33.4069 79.9851 32.7532C79.8074 32.5013 79.7938 32.1404 79.705 31.8272C79.377 30.656 79.2746 29.3485 78.6666 28.3544C77.553 26.5431 77.5188 24.3436 76.3438 22.5868C75.9339 21.9671 75.4967 21.3475 75.2097 20.6666C74.8067 19.6996 73.7341 19.4545 73.2012 18.6714C71.7393 16.5128 69.6898 15.0147 67.572 13.578C66.6087 12.9243 65.8641 11.9709 64.5661 11.8143C63.8487 11.7258 63.0426 11.4875 62.5029 11.0381C61.444 10.1528 60.2006 9.88045 58.9368 9.57403C57.8369 9.30165 56.7507 8.96799 55.6508 8.682C55.3502 8.60028 55.0223 8.539 54.7148 8.56624C53.1162 8.69562 51.5859 8.44367 50.0898 7.85125C49.6594 7.68101 49.1539 7.64016 48.6825 7.61292C48.1018 7.57887 47.5143 7.61292 46.9268 7.64016C46.1753 7.6742 45.4306 7.72187 44.686 7.76954C44.3649 7.78996 44.0438 7.84444 43.7227 7.85806C42.8073 7.89211 41.8918 7.91253 40.9764 7.93977C40.2727 7.9602 39.5759 7.96701 38.8723 7.98063C37.0345 8.01468 35.1832 7.90572 33.4206 8.56624C32.0201 9.09056 30.5445 9.51955 29.267 10.2618C26.8759 11.6577 24.4029 13.0128 22.8862 15.4982C22.8042 15.6344 22.7154 15.791 22.5856 15.8795C20.8914 17.0439 19.8325 18.6918 18.9717 20.5031C18.8556 20.7483 18.7394 21.0002 18.5823 21.2181C17.4551 22.757 16.608 24.4185 16.2937 26.3184C16.1776 27.0265 15.7198 27.2649 15.1255 27.047C14.7088 26.8972 14.3467 26.5431 13.9983 26.2366C13.766 26.0324 13.6362 25.5693 13.4107 25.5285C12.1059 25.2901 10.7601 24.9088 9.46889 25.0314C7.61068 25.2084 6.28535 26.332 5.22644 27.9662C4.0309 29.8252 3.03349 31.6978 2.64408 33.8836C2.14537 36.7027 2.42547 39.3107 4.15387 41.728C5.34941 43.4032 7.1393 43.8253 8.89503 44.3769C9.10681 44.445 9.42107 44.2748 9.66017 44.1658C10.1521 43.9479 10.6576 43.7232 11.1153 43.444C11.6209 43.1308 12.0922 42.9605 12.6114 43.41C12.6388 43.873 12.5978 44.3565 12.6934 44.8127C13.1716 47.1211 14.6404 48.9869 15.5012 51.1318C15.5559 51.268 15.7062 51.377 15.8291 51.4791C17.0998 52.5414 18.4867 53.5015 19.6275 54.6932C21.1988 56.3342 23.1322 57.4646 24.9152 58.806C25.4413 59.201 25.9741 59.5074 26.6983 59.4189C27.0399 59.378 27.4361 59.5755 27.7845 59.7185C29.4583 60.4335 31.1252 61.1621 32.7921 61.9043C33.3318 62.1426 33.8305 62.524 34.3907 62.6806C37.8543 63.6407 41.4 64.2536 44.9319 64.9209C45.6014 65.0503 46.3256 64.9073 47.0224 64.846C47.931 64.7643 48.8328 64.6349 49.7346 64.5123C51.6338 64.2604 53.5739 64.1514 55.4185 63.6748C56.4022 63.4228 57.1811 63.3683 57.953 63.9471Z" fill="black"/>
<path d="M9.67339 32.4809C9.12686 32.1881 8.50518 31.9566 8.01331 31.5617C7.73321 31.337 7.46678 30.7922 7.54876 30.4858C7.63074 30.1657 8.11578 29.8321 8.47786 29.7436C8.8536 29.6482 9.33864 29.764 9.71438 29.9206C10.3634 30.193 11.0056 30.513 11.5726 30.9148C12.7203 31.7319 13.827 32.6103 14.9338 33.4819C15.1865 33.6794 15.4256 33.9313 15.5828 34.2037C15.9312 34.8302 15.6989 36.0967 15.1797 36.2738C14.4692 36.5189 13.9363 36.1444 13.5196 35.5792C13.1029 35.0209 12.6793 34.4693 12.2079 33.8564C11.0944 34.5238 11.2857 35.6541 11.0739 36.5938C11.0056 36.9002 11.1149 37.2407 11.0944 37.5676C11.0602 38.2213 10.6435 38.5686 10.0286 38.5686C9.33864 38.5686 9.07221 38.0578 9.12686 37.4586C9.27033 35.8516 9.47528 34.2446 9.67339 32.4878V32.4809Z" fill="black"/>
<path d="M81.1532 43.5735C80.8185 43.4578 80.4905 43.3965 80.2173 43.2398C79.1584 42.6338 79.172 41.8916 80.1148 41.0949C81.3582 40.0394 82.8816 39.7398 84.3777 39.3653C84.6647 39.2904 85.1907 39.4606 85.3342 39.6921C85.4708 39.91 85.3683 40.4684 85.1634 40.6659C84.5964 41.2311 83.92 41.6873 83.2437 42.2184C83.2437 43.9004 83.2778 45.6163 83.2232 47.3323C83.2095 47.8498 83.0251 48.4014 82.7791 48.8576C82.6083 49.1777 82.1096 49.6135 81.891 49.5454C81.4948 49.4296 81.1054 49.0278 80.8936 48.6465C80.7296 48.3605 80.716 47.8634 80.8594 47.557C81.4743 46.2496 81.1737 44.915 81.1464 43.5599L81.1532 43.5735Z" fill="black"/>
<path d="M56.6684 65.5202C62.2293 63.5523 68.0704 62.5581 72.8594 58.881C73.3034 58.5406 73.5289 58.0094 73.2283 57.4851C72.9823 57.0493 72.265 56.7837 71.8278 57.1174C69.5392 58.8742 67.0046 60.1067 64.272 61.0192C61.5393 61.9316 58.8067 62.599 56.1218 63.5523C54.8853 63.9881 55.4182 65.9628 56.6684 65.5202Z" fill="black"/>
<path d="M5.79343 45.807C6.68837 46.236 7.61747 46.4811 8.60806 46.522C9.5235 46.556 10.4458 46.4062 11.3407 46.236C11.8668 46.1339 12.2152 45.4733 12.058 44.9763C11.8736 44.4179 11.3612 44.1523 10.7942 44.2613C10.5961 44.3021 10.398 44.3362 10.1998 44.3702C10.0905 44.3907 9.98122 44.4111 9.86508 44.4179C10.0427 44.4043 9.9129 44.4179 9.81043 44.4179C9.43469 44.4587 9.05895 44.486 8.68321 44.4724C8.51242 44.4724 8.29381 44.486 8.12985 44.4315C8.36895 44.5064 8.15034 44.4315 8.08886 44.4247C7.98638 44.4043 7.87708 44.3838 7.7746 44.3634C7.59015 44.3226 7.39886 44.2681 7.22124 44.2C7.13926 44.1727 7.06411 44.1387 6.98213 44.1115C7.20758 44.2 6.86599 44.057 6.825 44.0366C6.33996 43.805 5.69778 43.8868 5.42452 44.4043C5.18541 44.8605 5.27422 45.5551 5.79343 45.8002V45.807Z" fill="black"/>
<path d="M7.91789 25.4263C7.91789 25.4263 8.15016 25.3105 8.02719 25.365C7.91789 25.4127 8.09551 25.3377 8.116 25.3309C8.25264 25.2833 8.3961 25.2424 8.53273 25.2152C8.63521 25.1948 8.9153 25.1471 8.90847 25.1471C8.81966 25.1607 9.01778 25.1403 9.03827 25.1335C9.12709 25.1267 9.22273 25.1198 9.31154 25.113C9.64629 25.0926 9.98104 25.0994 10.309 25.113C10.4729 25.1198 10.6369 25.1403 10.8008 25.1539C10.9785 25.1743 10.671 25.1335 10.8418 25.1539C10.9238 25.1675 11.0126 25.1811 11.0946 25.1947C12.2901 25.4127 13.5881 25.9234 14.3943 26.7337C15.3234 27.6666 16.7785 26.223 15.8426 25.2901C15.2346 24.684 14.4831 24.2482 13.7043 23.9146C13.0075 23.615 12.297 23.3426 11.5455 23.2132C10.0357 22.9613 8.27313 22.9068 6.89314 23.6558C6.40809 23.9214 6.25097 24.5887 6.52423 25.0518C6.81116 25.542 7.43967 25.685 7.92472 25.4195L7.91789 25.4263Z" fill="black"/>
<path d="M81.0027 36.4031C81.0027 36.4031 80.9822 36.3554 80.9686 36.3282L81.071 36.5733C81.0095 36.4167 80.9686 36.2533 80.9412 36.0898L80.9754 36.3622C80.9481 36.1239 80.9481 35.8924 80.9754 35.654L80.9412 35.9264C80.9754 35.7085 81.03 35.4974 81.112 35.2999L81.0096 35.5451C81.0779 35.3885 81.153 35.2455 81.2555 35.1093L81.0984 35.3136C81.1735 35.2182 81.2555 35.1365 81.3511 35.0616L81.1462 35.2182C81.2282 35.1569 81.3101 35.1093 81.399 35.0684L81.153 35.1706C81.2077 35.1501 81.2623 35.1297 81.3238 35.1161C81.843 34.9799 82.2119 34.3807 82.0411 33.8564C81.8703 33.332 81.3375 32.9984 80.7773 33.1414C79.8892 33.3797 79.2948 34.156 79.0489 35.0071C78.8166 35.8107 78.8713 36.6754 79.2333 37.4313C79.3358 37.6492 79.6159 37.8399 79.8482 37.9011C80.0941 37.9692 80.422 37.9352 80.6406 37.799C80.8593 37.6628 81.0505 37.4517 81.112 37.1862C81.1735 36.907 81.1325 36.6618 81.0096 36.3963L81.0027 36.4031Z" fill="black"/>
<path d="M78.9739 36.4985C79.0217 36.6688 79.049 36.8458 79.0968 37.016C79.1446 37.1863 79.2335 37.3361 79.2744 37.5063C79.3086 37.6425 79.3701 37.7583 79.4589 37.8536C79.534 37.9625 79.6297 38.0511 79.7458 38.1192C79.862 38.1941 79.9918 38.2349 80.1284 38.2417C80.265 38.269 80.4017 38.269 80.5383 38.2213L80.7842 38.1192C80.9414 38.0306 81.0575 37.9081 81.1531 37.7515L81.2556 37.5063C81.3034 37.3225 81.3034 37.1454 81.2556 36.9616C81.2146 36.7913 81.1258 36.6347 81.078 36.4713C81.0302 36.3079 81.0029 36.124 80.955 35.9538C80.9209 35.8176 80.8594 35.7018 80.7706 35.6065C80.6954 35.4975 80.5998 35.409 80.4836 35.3409C80.3675 35.266 80.2377 35.2252 80.1011 35.2184C79.9644 35.1911 79.8278 35.1911 79.6912 35.2388L79.4452 35.3409C79.2881 35.4294 79.172 35.552 79.0763 35.7086L78.9739 35.9538C78.926 36.1376 78.926 36.3147 78.9739 36.4985Z" fill="black"/>
<path d="M74.663 53.0793C74.7723 53.3721 74.9021 53.6445 75.0729 53.9033C75.2027 54.1075 75.353 54.2982 75.4964 54.4889C75.6741 54.7272 75.8448 54.9723 76.0361 55.2038C76.2274 55.4354 76.4665 55.6328 76.7125 55.8031C76.9174 55.9461 77.2658 55.9733 77.5049 55.9052C77.744 55.8371 78.0036 55.6601 78.1198 55.4354C78.2427 55.197 78.3111 54.911 78.2223 54.6455C78.1334 54.3799 77.9831 54.1961 77.7509 54.0326C77.7235 54.0122 77.6962 53.9918 77.6621 53.9713L77.867 54.128C77.7031 53.9986 77.5664 53.8556 77.4366 53.6922L77.5937 53.8964C77.4093 53.6581 77.2248 53.4062 77.0472 53.161C76.8696 52.9159 76.692 52.6571 76.569 52.3711L76.6715 52.6163C76.6715 52.6163 76.6441 52.555 76.6373 52.5209C76.5417 52.269 76.405 52.0511 76.1659 51.9081C75.9473 51.7787 75.6194 51.7242 75.3735 51.806C75.1275 51.8877 74.8884 52.0375 74.7586 52.2758C74.6288 52.5141 74.5605 52.8069 74.6561 53.0657L74.663 53.0793Z" fill="black"/>
<path d="M10.1996 44.7378C10.2885 45.7183 10.7052 46.5559 11.0741 47.4547C11.443 48.3536 11.8871 49.266 12.4131 50.0968C13.4788 51.7787 14.9613 53.2223 16.3208 54.6659C17.6803 56.1095 19.2106 57.4305 20.9185 58.5064C22.6264 59.5823 24.6554 60.413 26.4931 61.4208C27.6477 62.0541 28.6861 60.2905 27.5247 59.6572C25.8988 58.7651 24.1635 58.0638 22.5581 57.1105C20.9526 56.1571 19.4838 54.9927 18.1653 53.6377C16.9288 52.3643 15.6171 51.0637 14.5651 49.6337C14.0117 48.8847 13.5608 48.0471 13.1714 47.196C12.8367 46.4605 12.3175 45.5481 12.2423 44.7378C12.1193 43.4372 10.0698 43.4304 10.1928 44.7378H10.1996Z" fill="black"/>
<path d="M5.67689 45.5821C6.47619 46.2631 7.37797 46.5627 8.40955 46.6717C9.32499 46.767 10.3634 46.8215 11.2378 46.481C11.4974 46.3789 11.7092 46.2563 11.8527 46.0111C11.9825 45.7932 12.0371 45.4664 11.9552 45.2213C11.798 44.7378 11.231 44.2952 10.6913 44.5063C10.5137 44.5744 10.2746 44.6765 10.0833 44.6697C10.3497 44.6765 10.0628 44.6697 9.99449 44.6697C9.89885 44.6697 9.8032 44.6765 9.71439 44.6833C9.33182 44.6833 8.94242 44.6697 8.55301 44.6356C8.4847 44.6356 8.17044 44.5675 8.47103 44.6356C8.40272 44.622 8.3344 44.6152 8.26608 44.6016C8.08163 44.5675 7.90401 44.5267 7.72638 44.4654C7.67856 44.4518 7.56926 44.4314 7.52827 44.3905C7.6649 44.4518 7.68539 44.4586 7.58292 44.4109C7.54193 44.3905 7.50094 44.3701 7.45995 44.3496C7.37797 44.302 7.29599 44.2543 7.21401 44.1998C7.17302 44.1726 7.13203 44.1454 7.09104 44.1113C7.20035 44.193 7.20718 44.1998 7.11837 44.1317C6.70847 43.7845 6.0663 43.7028 5.67006 44.1317C5.32165 44.5131 5.23284 45.2076 5.67006 45.5753L5.67689 45.5821Z" fill="black"/>
<path d="M7.49451 46.0793C8.37579 45.9636 9.27074 46.1065 10.1452 45.8818C10.5756 45.7729 10.9786 45.5754 11.3817 45.3984C11.4705 45.3575 11.5593 45.3167 11.655 45.2758C11.5252 45.3303 11.6686 45.2758 11.7233 45.2486C11.9146 45.1805 12.1059 45.126 12.304 45.0851L11.0401 44.3701C11.0675 44.4587 11.088 44.554 11.1016 44.6425C11.0606 44.4382 11.1084 44.7106 11.1153 44.7583C11.1426 45.0102 11.1631 45.2622 11.2041 45.5141C11.2724 45.9499 11.3476 46.3857 11.4569 46.8147C11.655 47.6182 12.0239 48.3673 12.222 49.164C12.3518 49.6815 12.9598 50.0424 13.4859 49.879C14.0119 49.7155 14.3466 49.1776 14.2032 48.6192C13.9982 47.8157 13.6362 47.0667 13.438 46.27C13.3287 45.8478 13.2468 45.4052 13.1853 44.9694C13.2126 45.1532 13.1853 44.9081 13.1784 44.8536C13.1716 44.7719 13.1648 44.6902 13.1511 44.6085C13.117 44.3429 13.0896 44.0773 13.0145 43.8254C12.8505 43.2602 12.304 43.0151 11.7506 43.1104C11.3339 43.1853 10.9513 43.3555 10.5687 43.519C10.4048 43.5939 10.234 43.6688 10.07 43.7369C10.2477 43.6552 9.96073 43.7777 9.9539 43.7845C9.86509 43.8186 9.77628 43.8458 9.68747 43.8731C9.59183 43.9003 9.49618 43.9207 9.39371 43.9412L9.29123 43.9548C9.37321 43.9412 9.38004 43.9412 9.3049 43.948C9.11361 43.948 8.92232 43.9684 8.73104 43.9684C8.31431 43.9684 7.89758 43.9616 7.48768 44.0161C6.96164 44.0842 6.43561 44.4382 6.46293 45.0375C6.48343 45.5277 6.92065 46.1338 7.48768 46.0589L7.49451 46.0793Z" fill="black"/>
<path d="M11.3952 37.5607C11.3747 37.4926 11.3747 37.3292 11.3338 37.2747C11.3679 37.3156 11.3542 37.4722 11.3474 37.3224C11.3474 37.2679 11.3474 37.2202 11.3406 37.1658C11.3406 36.9342 11.3474 36.7095 11.3747 36.478C11.3747 36.4235 11.3884 36.3691 11.3952 36.3146C11.4089 36.1648 11.3679 36.4916 11.3952 36.335C11.4157 36.2261 11.4294 36.1171 11.4431 36.0082C11.4772 35.7835 11.5182 35.5587 11.5455 35.334C11.607 34.8982 11.6343 34.476 11.648 34.0402C11.648 33.9449 11.648 33.8428 11.6617 33.7474C11.6617 33.6862 11.6685 33.6249 11.6753 33.5636C11.6753 33.5295 11.6958 33.3661 11.6753 33.5227C11.6548 33.6793 11.6753 33.5227 11.6822 33.4887C11.689 33.4478 11.7027 33.4002 11.7095 33.3593C11.7232 33.3184 11.7368 33.2776 11.7505 33.2367C11.7778 33.121 11.6412 33.4614 11.7368 33.2912C11.9964 32.8282 11.8666 32.154 11.3679 31.8953C10.8692 31.6365 10.2475 31.7659 9.96742 32.263C9.68733 32.7601 9.62584 33.2844 9.60535 33.8223C9.59852 34.0334 9.59852 34.2445 9.59168 34.4556C9.59168 34.5509 9.58485 34.6395 9.57802 34.7348C9.57802 34.7825 9.57119 34.8301 9.56436 34.8778C9.56436 34.905 9.56436 34.9255 9.55753 34.9527C9.55069 35.0276 9.55753 35.0004 9.57119 34.871C9.5302 34.905 9.5302 35.1298 9.52337 35.1842C9.50287 35.3068 9.48238 35.4294 9.46188 35.5451C9.41406 35.8515 9.36624 36.1648 9.33891 36.478C9.28426 37.016 9.29109 37.5743 9.44139 38.0987C9.59168 38.623 10.1724 38.9839 10.7052 38.8136C11.2381 38.6434 11.5797 38.1055 11.4226 37.5539L11.3952 37.5607Z" fill="black"/>
<path d="M10.1656 38.8001C11.4841 38.8001 11.4841 36.7573 10.1656 36.7573C8.84713 36.7573 8.84713 38.8001 10.1656 38.8001Z" fill="black"/>
<path d="M7.75381 31.3913C8.90153 32.331 9.96043 33.0392 11.0398 34.0265C11.5864 34.5304 12.1329 35.0343 12.7341 35.4701C13.2601 35.8515 13.8135 36.3009 14.4693 36.4166C14.9954 36.512 15.5965 36.2736 15.7332 35.7017C15.8493 35.2046 15.5829 34.5441 15.0158 34.4419C14.9612 34.4283 14.8997 34.4215 14.8451 34.4011C14.5923 34.3398 14.9202 34.4487 14.7836 34.3806C14.6469 34.3125 14.524 34.2308 14.3942 34.1491C14.1619 33.9925 13.9433 33.8291 13.7178 33.6656C13.6632 33.6248 13.6563 33.618 13.7042 33.6588L13.6154 33.5907C13.5539 33.5431 13.4992 33.4954 13.4446 33.4477C13.3148 33.3388 13.1918 33.2298 13.062 33.1141C12.8161 32.8894 12.5701 32.6579 12.3173 32.4331C11.7913 31.9633 11.2311 31.5275 10.6709 31.0985C10.1107 30.6695 9.74182 30.3971 9.19529 29.9477C8.78539 29.6072 8.14322 29.5119 7.74698 29.9477C7.39857 30.3222 7.30292 31.0304 7.74698 31.3913H7.75381Z" fill="black"/>
<path d="M81.0027 43.3691C81.317 43.41 81.6722 43.301 81.9728 43.2125C82.4032 43.0831 82.8199 42.9061 83.2367 42.7222C83.9403 42.4158 84.7191 42.0413 85.2588 41.4897C85.4433 41.3059 85.6209 41.0608 85.6824 40.8088C85.7917 40.3662 85.6756 39.9985 85.3886 39.658C85.2315 39.4674 84.9036 39.3584 84.6645 39.3584C84.4117 39.3584 84.1111 39.4674 83.9403 39.658C83.5373 40.1006 83.5714 40.659 83.9403 41.1016C83.8037 40.9382 83.7695 40.9109 83.7081 40.6999C83.7081 40.7135 83.7081 40.7203 83.7149 40.7339L83.6807 40.4615C83.6807 40.4615 83.6807 40.482 83.6807 40.4956L83.7149 40.2232C83.6876 40.4139 83.8652 39.944 83.7696 40.1006C83.7217 40.1891 83.6261 40.2164 83.8789 39.9644C83.8584 39.9849 83.8447 40.0053 83.8242 40.0257C83.7832 40.0734 83.7354 40.1142 83.6807 40.1551C83.6671 40.1687 83.6534 40.1755 83.6397 40.1891C83.5646 40.2504 83.6124 40.2096 83.7832 40.0802C83.7491 40.1006 83.7217 40.1279 83.6876 40.1483C83.387 40.3594 83.0591 40.5432 82.7243 40.7067C82.5467 40.7952 82.3622 40.8837 82.1778 40.9586C82.1026 40.9927 81.8977 41.0744 82.2461 40.9314C82.1983 40.9518 82.1505 40.9722 82.1095 40.9858C82.0207 41.0199 81.925 41.0608 81.8362 41.088C81.5424 41.1969 81.2418 41.2991 80.9344 41.3399L81.2077 41.3059C81.1394 41.3127 81.0711 41.3195 80.9959 41.3059C80.7568 41.2787 80.4357 41.4421 80.2718 41.6055C80.0941 41.7825 79.9575 42.0754 79.9712 42.3273C79.9848 42.5792 80.0668 42.8652 80.2718 43.0491C80.4835 43.2466 80.709 43.3147 80.9959 43.3487L81.0027 43.3691Z" fill="black"/>
<path d="M41.6389 34.3671C40.8669 34.1083 40.0403 33.5499 39.2205 34.3194C39.1863 34.3466 39.0634 34.2853 38.8994 34.2445C39.5962 33.4886 40.2179 32.8213 41.1949 32.5626C41.6867 32.4332 42.2333 32.2834 42.445 31.6501C42.124 30.8943 41.5433 31.1122 41.0582 31.2279C39.3025 31.6637 38.1616 32.7328 37.3896 34.4079C36.7133 35.8719 37.5263 37.7377 38.9609 38.3642C39.323 38.5276 39.7465 38.6161 40.1564 38.4118C40.2657 38.3982 40.3751 38.3778 40.4775 38.3437C40.8396 38.228 41.1197 38.0577 41.3998 37.8126C41.4749 37.7513 41.5364 37.6832 41.5979 37.6083C41.6184 37.5811 41.6457 37.5539 41.6662 37.5198C42.4041 36.941 42.65 36.2328 42.3631 35.3136C42.2469 34.9459 41.9532 34.4692 41.6321 34.3602L41.6389 34.3671Z" fill="black"/>
<path d="M56.3745 35.9264C56.3404 35.6677 56.2789 35.4702 56.1628 35.2319C56.033 34.9595 55.8144 34.7348 55.5616 34.5646C55.4728 34.476 55.384 34.4079 55.2883 34.3739C54.5163 34.1151 53.6897 33.5568 52.8699 34.3262C52.8358 34.3535 52.7128 34.2922 52.5488 34.2513C53.2457 33.4955 53.8673 32.8282 54.8443 32.5694C55.3361 32.44 55.8827 32.2902 56.0945 31.6569C55.7734 30.9011 55.1927 31.119 54.7076 31.2347C52.9519 31.6706 51.811 32.7396 51.039 34.4147C50.3627 35.8788 51.1757 37.7445 52.6103 38.371C52.8289 38.4663 53.0749 38.5412 53.3208 38.5412C53.4779 38.5685 53.6351 38.5685 53.8059 38.5412C54.0723 38.4936 54.3387 38.4391 54.5983 38.3506C55.0219 38.2076 55.384 38.0237 55.7255 37.7377C55.8827 37.6015 56.0193 37.4313 56.1218 37.2543C56.2243 37.0772 56.3131 36.8729 56.3541 36.6755C56.4087 36.4167 56.4224 36.192 56.3882 35.9332L56.3745 35.9264Z" fill="black"/>
<path d="M60.5354 18.4876C59.9205 18.0859 59.333 18.2833 58.9299 18.7736C58.8684 18.8485 58.8138 18.937 58.7591 19.0256C58.4517 19.332 58.2399 19.6929 57.9667 20.0606C57.5636 20.5985 57.1127 21.1092 56.6618 21.6063C55.7532 22.6073 54.7626 23.513 53.5739 24.1803C52.4399 24.8204 51.2717 25.0928 49.9805 25.1132C49.4408 25.12 48.7576 25.1336 48.2794 24.8408C48.2248 24.7863 48.1633 24.7387 48.1086 24.6774C48.0949 24.6638 48.095 24.6638 48.0881 24.6569C48.0881 24.6569 48.0881 24.6569 48.0881 24.6433C48.0608 24.5957 48.0266 24.548 47.9993 24.5003C47.9652 24.439 47.931 24.3778 47.8968 24.3165C47.8968 24.3165 47.8968 24.3097 47.8968 24.3029C47.8968 24.3029 47.8968 24.2961 47.8968 24.2892C47.8695 24.1667 47.8285 24.0441 47.7944 23.9215C47.7944 23.9147 47.7944 23.9079 47.7944 23.9011C47.7944 23.833 47.7875 23.7581 47.7807 23.69C47.7807 23.6355 47.7807 23.5743 47.7807 23.5198C47.7807 23.5198 47.7944 23.4108 47.8012 23.37C47.808 23.3291 47.8217 23.2814 47.8217 23.2814C47.8353 23.227 47.849 23.1725 47.8695 23.1248C47.8695 23.1248 47.9173 23.0159 47.9242 22.9886C47.9378 22.9614 47.9583 22.9274 47.9583 22.9206C48.0198 22.8116 48.0813 22.7095 48.1496 22.6073C48.1906 22.5528 48.2316 22.4984 48.2657 22.4371C48.2657 22.4303 48.2657 22.4303 48.2726 22.4235C48.2726 22.4235 48.2726 22.4235 48.2794 22.4167C48.3614 22.3213 48.4365 22.226 48.5185 22.1307C48.703 21.9196 48.8874 21.7153 49.065 21.511C49.106 21.4633 49.147 21.4089 49.1812 21.3476C49.27 21.2454 49.3383 21.1297 49.3725 20.9867C49.4408 20.7415 49.4066 20.4147 49.27 20.1968C49.1265 19.9789 48.9216 19.7882 48.6551 19.7269C48.4024 19.6657 48.0881 19.6725 47.8627 19.8291C47.5074 20.081 47.1658 20.3466 46.8243 20.619C46.674 20.7143 46.5237 20.8233 46.3802 20.9186C44.2897 22.2464 42.1514 23.4993 40.1088 24.8953C38.9064 25.7192 37.7109 25.297 36.7818 24.7795C36.0439 24.3641 35.6955 23.3019 35.8117 22.1988C35.9415 20.939 36.8364 20.2036 37.5059 19.3592C38.5853 18.0042 39.692 16.5606 41.9465 16.5538C41.9465 16.5538 41.9465 16.5469 41.9465 16.5401C41.9601 16.5401 41.9738 16.5401 41.9875 16.5401C42.5203 16.5401 43.0395 16.0703 43.0122 15.5187C42.9849 14.9672 42.5613 14.4973 41.9875 14.4973C41.277 14.4973 40.5597 14.4973 39.8628 14.6607C39.2138 14.8174 38.6741 15.1783 38.1276 15.5323C38.032 15.5936 37.95 15.6753 37.8748 15.7639C37.7519 15.8456 37.6289 15.9205 37.5059 15.9954C35.4359 17.2483 34.5068 19.3592 33.6255 21.4225C33.2976 22.1988 33.3659 23.2406 33.5367 24.1054C34.1106 26.9926 38.2574 28.0617 40.6553 27.156C40.7714 27.1288 40.8876 27.1083 40.9969 27.0743C41.7074 26.8428 42.37 26.4887 43.0259 26.1482C43.6749 25.8077 44.3034 25.4264 44.9319 25.0383C45.4921 25.5694 45.9362 26.012 46.4144 26.407C48.0403 27.7416 50.0146 27.6395 51.9412 27.6667C53.1709 27.6871 54.2298 27.1969 55.1999 26.4546C55.801 25.9984 56.45 25.6035 57.0786 25.1813C57.3382 25.0042 57.6661 24.8749 57.8505 24.6433C58.9573 23.2474 59.9615 21.7902 60.7198 20.1627C61.0956 19.3592 61.0956 18.8553 60.5149 18.4808L60.5354 18.4876Z" fill="black"/>
<path d="M76.2959 54.0123C75.4282 54.6319 74.5743 55.2788 73.6998 55.8917C73.2694 56.1913 72.8322 56.4909 72.395 56.7701C72.1764 56.9131 71.9509 57.0493 71.7255 57.1855C71.6093 57.2536 71.5 57.3148 71.3771 57.3761C71.3224 57.4034 71.2609 57.4374 71.1995 57.4646C71.3019 57.4238 71.2951 57.4306 71.1858 57.4646C70.6871 57.6553 70.2908 58.1592 70.4685 58.7244C70.6256 59.2079 71.1926 59.6437 71.7323 59.4394C72.7844 59.0308 73.734 58.3567 74.6494 57.7166C75.5649 57.0765 76.4325 56.4228 77.3274 55.7827C77.7647 55.4695 78.0174 54.8771 77.6963 54.3868C77.4162 53.9578 76.7604 53.6854 76.2959 54.0191V54.0123Z" fill="black"/>
<path d="M87.6772 41.8847C87.6772 42.2388 87.6772 42.5929 87.6635 42.9402C87.6498 43.2875 87.6635 43.6824 87.5747 44.0161C87.6498 43.7233 87.5747 44.0365 87.561 44.0978C87.5474 44.1659 87.5337 44.2408 87.52 44.3089C87.479 44.4927 87.4381 44.6766 87.3834 44.8605C87.3492 44.983 87.3082 45.235 87.2194 45.3303C87.2809 45.1941 87.2878 45.1805 87.2399 45.2826C87.2194 45.3235 87.1989 45.3712 87.1784 45.412C87.1375 45.4937 87.0896 45.5823 87.0486 45.664C86.7822 46.127 86.9188 46.8011 87.4176 47.0599C87.9163 47.3186 88.5379 47.1893 88.818 46.6922C89.6447 45.2282 89.7266 43.5258 89.7266 41.8847C89.7266 41.3536 89.2553 40.8361 88.7019 40.8633C88.1485 40.8906 87.6772 41.3128 87.6772 41.8847Z" fill="black"/>
<path d="M79.8345 32.2357C79.8208 32.8077 79.9574 33.3661 79.9301 33.9313C79.9164 34.1832 80.0531 34.476 80.2307 34.6531C80.4083 34.8301 80.7021 34.9663 80.9548 34.9527C81.2076 34.9391 81.4945 34.8573 81.679 34.6531C81.8635 34.4488 81.9659 34.2105 81.9796 33.9313C82.0069 33.3593 81.8703 32.8009 81.8839 32.2357C81.8908 31.977 81.7678 31.691 81.5834 31.5139C81.3989 31.3369 81.112 31.2007 80.8592 31.2143C80.6064 31.2279 80.3195 31.3096 80.1351 31.5139C79.9506 31.7182 79.8413 31.9565 79.8345 32.2357Z" fill="black"/>
<path d="M51.135 41.9528C50.9095 41.946 50.7456 42.0073 50.5406 42.0958C50.5201 42.1094 50.5065 42.1298 50.486 42.1434C50.0897 42.3954 49.7003 42.5861 49.3109 42.7427C49.2426 42.7631 49.1675 42.7835 49.0992 42.7971C48.334 43.0082 47.5552 43.1853 46.7559 43.158C46.0249 43.1376 45.2871 42.9333 44.6039 42.6882C44.3238 42.5861 44.0369 42.4839 43.7773 42.3341C43.4904 42.1639 43.2239 41.98 42.896 41.9051C42.1172 41.7281 41.7551 42.7835 42.3358 43.1308C42.3768 43.1853 42.4246 43.2466 42.4861 43.2874C42.6023 43.3623 44.4331 44.5812 46.9472 44.5812C47.8421 44.5812 48.8259 44.4178 49.8506 44.0024C50.486 43.8117 51.1213 43.5734 51.6132 43.124C52.0641 42.7086 51.6952 41.98 51.1281 41.9596L51.135 41.9528Z" fill="black"/>
</g>
<g clip-path="url(#clip1_1260_14432)">
<path d="M156.455 38.8319C155.641 37.8285 154.627 37.0703 153.646 36.3457L152.977 35.844C148.952 32.7557 144.894 33.4358 141.114 34.6287C138.617 35.4203 136.532 37.0369 134.693 38.464L134.18 38.8653C132.998 39.7795 132.151 41.2289 132.028 42.5668C131.738 45.577 132.675 48.119 134.804 50.1146L135.518 50.7947C137.457 52.6454 139.464 54.5631 142.831 55.4438C142.976 55.4773 143.233 55.7003 143.444 55.8786C143.601 56.0124 143.757 56.1351 143.913 56.2577C144.08 56.3803 144.236 56.5141 144.392 56.6479C144.649 56.8598 144.905 57.0716 145.184 57.2611C148.673 59.6247 148.718 61.1855 147.581 63.237C145.44 67.1279 142.441 68.0087 137.547 66.2026C135.072 65.2884 133.99 63.4934 132.831 61.5869C132.608 61.219 132.385 60.8511 132.162 60.4943C131.838 59.9926 131.928 59.3348 132.039 58.5767C132.084 58.2645 132.128 57.9635 132.139 57.6513C132.184 56.9155 131.604 56.1908 131.292 55.9009C130.846 55.5107 130.411 55.4215 130.11 55.4438C129.308 55.4661 128.204 55.7672 127.535 56.3692C126.933 56.9043 126.888 57.6067 126.855 58.1196L126.833 58.3537C126.509 61.4197 127.579 64.2292 130.121 66.9607C131.627 68.5773 133.544 69.603 135.964 70.651C137.58 71.3534 139.498 71.699 141.404 71.699C143.511 71.699 145.607 71.2754 147.246 70.428C149.264 69.3912 150.825 68.031 152.308 66.013C153.713 64.1066 154.136 62.189 153.568 60.2825C153.479 59.9926 153.4 59.7027 153.412 59.5132C153.534 58.1753 152.988 56.9378 151.806 55.9455L151.304 55.5219C149.253 53.7826 147.146 51.9877 143.89 51.0065C143.623 50.9285 143.11 50.7724 142.998 50.6721C142.43 50.0923 141.794 49.5683 141.192 49.0555C139.888 47.9629 138.662 46.926 138.171 45.499C137.591 43.782 137.368 42.9124 138.628 41.8644C138.862 41.6749 139.096 41.4742 139.319 41.2846C140.624 40.1698 141.85 39.1218 143.601 38.7873C144.682 38.5755 146.923 38.1406 148.038 38.542C151.36 39.7349 152.876 41.463 152.665 43.8378C152.442 46.4132 154.716 46.6584 155.942 46.7811C156.478 46.8368 156.99 46.5916 157.225 46.1567C158.473 43.8266 158.161 40.9502 156.444 38.8319H156.455Z" fill="black"/>
<path d="M224.665 65.3998C224.409 64.8089 224.141 64.218 223.873 63.6272C223.584 62.9917 223.305 62.3673 223.037 61.7318C222.725 60.9848 222.313 60.2936 221.9 59.6247C221.175 58.4317 220.495 57.3057 220.584 56.057C220.64 55.2766 220.54 54.4962 220.306 53.7938C219.47 51.3521 219.614 48.8325 219.86 46.6807C219.982 45.6439 219.96 44.6182 219.949 43.6259C219.916 41.7752 219.893 40.0359 220.707 38.4082C220.863 38.1072 220.874 37.7504 220.729 37.4048C220.484 36.7804 219.704 36.1338 219.124 35.8997C218.488 35.6433 217.753 35.8662 217.374 36.0335C216.827 36.2676 216.47 36.5798 216.326 36.9811L216.125 37.5386C215.679 38.7427 215.222 39.9802 215.177 41.3069C215.155 42.0651 215.066 42.8232 214.988 43.6148C214.832 45.0864 214.664 46.6027 214.865 48.197C214.932 48.721 214.932 49.2896 214.932 49.8916C214.932 50.6498 214.932 51.4302 215.066 52.166C214.854 52.0322 214.687 51.8984 214.542 51.7758C212.892 50.2818 210.885 50.3041 209.123 50.3264H208.432C208.432 50.3264 208.41 50.3264 208.399 50.3264C206.414 50.3264 205.589 51.4079 204.82 52.4224C202.612 55.3212 201.665 58.3983 202.01 61.5534C202.01 61.6092 202.033 61.6649 202.044 61.7207C203.17 65.6897 204.92 67.7746 204.954 67.8192C206.637 70.0267 208.99 70.6287 211.074 71.1639L211.598 71.2976C212.624 71.5764 213.672 71.7102 214.72 71.7102C216.794 71.7102 218.856 71.1861 220.752 70.1493C221.71 69.6253 222.402 69.4692 223.227 69.5807C223.684 69.6364 224.152 69.4358 224.386 69.0567C225.111 67.8861 225.2 66.6931 224.665 65.4221V65.3998ZM207.25 60.55C207.295 60.2602 207.339 59.9257 207.317 59.5689C207.228 57.8185 207.819 56.2131 209.09 54.7749C210.818 54.5073 211.71 55.31 212.903 56.3803C213.137 56.5922 213.371 56.804 213.616 57.0047C214.274 57.5621 214.843 58.2199 215.445 58.9223C215.679 59.1899 215.902 59.4574 216.169 59.7585C216.158 61.4308 216.85 62.869 217.518 64.2515C217.808 64.8535 218.087 65.4333 218.299 66.013C217.463 66.5928 216.348 66.7935 215.166 66.9941C214.798 67.061 214.43 67.1279 214.073 67.206C213.828 67.2617 213.271 67.206 212.033 66.682C210.706 66.1134 209.447 65.411 208.287 64.7197C208.265 64.6529 208.231 64.5414 208.209 64.4745L207.919 63.5937C207.64 62.7798 207.373 62.0105 207.217 61.2301C207.183 61.074 207.217 60.8176 207.25 60.5389V60.55Z" fill="black"/>
<path d="M197.94 25.1522C197.84 24.4832 197.472 23.9258 196.926 23.5802C196.257 23.1677 195.655 23.19 195.253 23.2792C194.295 23.4798 193.704 24.2603 193.347 24.8289C192.344 26.412 191.095 27.6941 189.545 28.7533C187.583 30.08 185.532 30.4479 183.268 29.8459C182.276 29.5895 181.618 29.032 181.261 28.1512C180.927 27.3374 180.749 26.6127 180.704 25.9215C182.399 26.4455 184.261 26.6238 185.364 26.334C188.341 25.5535 190.426 23.714 191.541 20.8598C191.574 20.7929 191.608 20.726 191.641 20.648L191.396 20.5142L191.686 20.57C191.931 20.124 192.399 19.2878 192.065 18.2398C191.998 18.0391 191.942 17.8385 191.898 17.6266C191.686 16.8351 191.452 15.9431 190.705 15.0624C189.155 13.2339 185.844 12.0298 183.58 13.2451C182.098 14.0367 180.581 14.9509 179.5 16.233C178.095 17.9054 177.17 19.4997 176.668 21.1385C176.534 21.5734 176.512 21.9636 176.501 22.3315C176.501 22.4764 176.479 22.7329 176.456 22.7997C175.654 24.6951 175.854 26.4343 176.166 27.8948C176.367 28.8759 176.802 29.6341 177.214 30.3699C177.46 30.7936 177.683 31.1949 177.828 31.5851C178.017 32.098 178.441 32.5328 178.954 32.7446C179.255 32.8673 179.589 33.0791 179.935 33.3021C180.827 33.8707 181.852 34.5173 183.246 34.4281C183.291 34.4281 183.413 34.4839 183.525 34.5173C183.848 34.6399 184.283 34.796 184.818 34.796C186.947 34.7849 188.876 34.1828 190.638 33.5473C191.396 33.2798 192.054 32.845 192.533 32.4993C194.016 31.4513 195.097 30.1246 196.134 28.8313C196.502 28.3854 196.859 27.9283 197.249 27.4935C197.818 26.8468 198.085 25.9661 197.963 25.1633L197.94 25.1522ZM187.237 18.3179C187.271 18.4182 187.304 18.5074 187.349 18.6077L187.215 18.8196C186.847 19.4105 186.457 20.0125 186.145 20.6703C185.766 21.4619 185.275 21.7852 184.194 21.9301C183.436 22.0416 182.722 21.9413 181.841 21.6068C181.975 21.3615 182.131 21.1163 182.321 20.8041C182.644 20.2912 182.967 19.7561 183.257 19.1763C183.536 18.6077 184.16 18.2287 184.885 17.7939L185.208 17.5932C185.52 17.3925 185.944 17.3591 186.323 17.4817C186.747 17.6155 187.092 17.9276 187.226 18.3179H187.237Z" fill="black"/>
<path d="M171.74 25.3416C171.205 25.4977 170.804 25.9325 170.692 26.4788C170.481 27.5714 169.834 28.1846 168.474 28.6194C167.983 28.7755 167.56 28.9985 167.181 29.188C166.813 29.3775 166.434 29.5782 166.177 29.6005L165.252 29.7009C163.345 29.9127 161.539 30.1022 159.822 29.5448C158.406 29.0877 158.306 28.4522 158.272 28.2515C158.183 27.6718 158.194 27.0586 158.217 26.3896C158.696 26.6683 159.298 26.9248 159.967 26.869C160.435 26.8356 160.948 26.8802 161.483 26.9359C162.554 27.0474 163.758 27.1589 165.107 26.6795C167.794 25.6984 170.759 24.2267 172.409 20.7482C173.101 19.2766 173.167 17.6823 172.599 16.2441C172.053 14.8616 170.971 13.8136 169.578 13.2673C168.128 12.7098 166.746 12.7321 165.519 12.7433C163.1 12.7879 161.383 13.992 159.856 15.0734C159.22 15.5194 158.607 15.9542 157.971 16.2775C157.76 16.389 157.57 16.5451 157.436 16.7458C157.202 17.0914 156.946 17.4147 156.634 17.8161C155.608 19.1316 154.549 20.4918 154.237 22.4763C154.181 22.8108 154.025 23.1899 153.835 23.6358C153.713 23.9257 153.601 24.2044 153.501 24.4943C153.111 25.6538 153.278 26.7129 153.434 27.6383C153.478 27.9059 153.523 28.1846 153.545 28.4522C153.746 31.0722 155.207 32.8895 157.882 33.8594C159.176 34.3277 161.127 35.0301 163.223 34.6621C163.457 34.729 163.713 34.7736 163.958 34.7736C164.583 34.7736 165.096 34.5618 165.452 34.4169L165.586 34.3611C165.72 34.3054 165.765 34.2942 165.765 34.2942C167.102 34.3277 168.284 33.9598 169.254 33.5918L169.511 33.4915C171.239 32.8337 173.201 32.0867 174.193 29.8681C174.416 29.6674 174.572 29.4333 174.661 29.1657C174.684 29.0988 174.706 29.0319 174.773 28.887C174.985 28.3964 175.297 27.6495 175.029 26.8356C174.606 25.52 173.246 24.9068 171.718 25.3416H171.74ZM159.766 21.9858C159.878 21.6625 159.989 21.3837 160.09 21.2388C161.372 19.4661 162.866 18.3624 164.65 17.8495H164.728C164.94 17.8272 165.33 17.7938 165.72 17.5819C166.211 17.3255 166.69 17.2809 167.682 17.8384C167.927 17.9722 168.229 18.2397 168.106 18.9533C167.927 19.9344 167.292 20.4138 166.099 20.9935C164.639 21.7182 162.899 22.4317 160.982 22.2868C160.279 22.2311 159.945 22.1084 159.778 21.9746L159.766 21.9858Z" fill="black"/>
<path d="M200.594 62.3785C200.483 61.6984 200.126 61.1521 199.58 60.8065C198.911 60.394 198.309 60.4163 197.908 60.5055C196.949 60.7062 196.358 61.4866 196.001 62.0552C194.998 63.6383 193.749 64.9205 192.199 65.9796C190.237 67.3063 188.186 67.6743 185.922 67.0722C184.93 66.8158 184.272 66.2583 183.904 65.3776C183.57 64.5637 183.392 63.839 183.347 63.1478C185.042 63.6718 186.915 63.8502 188.007 63.5603C190.984 62.7799 193.069 60.9403 194.184 58.0861C194.206 58.0192 194.251 57.9524 194.284 57.8855L194.039 57.7517L194.329 57.8074C194.574 57.3615 195.042 56.5253 194.708 55.4773C194.641 55.2766 194.596 55.0759 194.541 54.8641C194.329 54.0725 194.095 53.1806 193.348 52.2887C191.798 50.4603 188.487 49.2562 186.223 50.4714C184.741 51.263 183.224 52.1772 182.132 53.4593C180.727 55.1317 179.802 56.726 179.3 58.3649C179.166 58.7885 179.155 59.1787 179.133 59.5355C179.133 59.6804 179.11 59.9592 179.088 60.0261C178.285 61.9214 178.486 63.6606 178.798 65.1211C178.999 66.0911 179.434 66.8492 179.846 67.5962C180.08 68.0199 180.314 68.4101 180.459 68.8114C180.649 69.3243 181.073 69.7591 181.585 69.9709C181.887 70.0936 182.221 70.3054 182.567 70.5172C183.459 71.0858 184.484 71.7325 185.878 71.6433C185.934 71.6544 186.067 71.7102 186.157 71.7325C186.48 71.8551 186.915 72.0112 187.461 72.0112C189.579 72 191.508 71.398 193.281 70.7625C194.039 70.4949 194.697 70.0601 195.176 69.7145C196.659 68.6665 197.729 67.3398 198.788 66.0354C199.145 65.5894 199.502 65.1434 199.881 64.7198C200.45 64.0731 200.717 63.1924 200.594 62.3896V62.3785ZM189.891 55.5442C189.925 55.6334 189.958 55.7337 190.003 55.8341L189.869 56.0459C189.501 56.6256 189.111 57.2277 188.799 57.8966C188.42 58.6882 187.929 59.0115 186.848 59.1564C186.09 59.2679 185.376 59.1676 184.495 58.8331C184.64 58.5767 184.796 58.3203 184.975 58.0304C185.298 57.5175 185.621 56.9824 185.911 56.4027C186.19 55.8341 186.814 55.455 187.539 55.0202L187.862 54.8195C188.175 54.6188 188.598 54.5854 188.977 54.708C189.401 54.8418 189.747 55.154 189.88 55.5442H189.891Z" fill="black"/>
<path d="M174.394 62.5679C173.859 62.724 173.458 63.1588 173.346 63.7051C173.134 64.7866 172.499 65.4109 171.128 65.8457C170.648 66.0018 170.225 66.2136 169.834 66.4143C169.466 66.6039 169.087 66.8045 168.831 66.8268L167.894 66.9272C165.988 67.1279 164.182 67.3285 162.465 66.7711C161.049 66.314 160.949 65.6785 160.915 65.4778C160.826 64.8981 160.837 64.2849 160.859 63.6159C161.339 63.8947 161.919 64.1622 162.621 64.0953C163.089 64.0619 163.602 64.1065 164.137 64.1622C165.208 64.2737 166.412 64.3964 167.761 63.9058C170.448 62.9247 173.413 61.4642 175.063 57.9746C175.754 56.5029 175.821 54.9086 175.253 53.4704C174.706 52.0879 173.625 51.0399 172.231 50.4936C170.782 49.9362 169.4 49.9585 168.173 49.9696C165.765 50.0142 164.048 51.2183 162.498 52.3109C161.863 52.7568 161.261 53.1805 160.625 53.5038C160.414 53.6153 160.224 53.7826 160.09 53.9721C159.845 54.3289 159.577 54.6745 159.287 55.0424C158.262 56.358 157.203 57.7181 156.89 59.7027C156.835 60.026 156.679 60.405 156.511 60.8287C156.389 61.1297 156.266 61.4196 156.166 61.7206C155.776 62.8801 155.943 63.9281 156.099 64.8981C156.143 65.1656 156.188 65.4221 156.199 65.6896C156.4 68.3097 157.86 70.1269 160.536 71.0969C161.829 71.5652 163.781 72.2675 165.877 71.8996C166.111 71.9665 166.367 72.0111 166.612 72.0111C167.237 72.0111 167.75 71.7993 168.106 71.6543L168.24 71.5986C168.374 71.5429 168.418 71.5317 168.418 71.5317C169.768 71.554 170.938 71.1972 171.908 70.8293L172.165 70.729C173.893 70.0712 175.855 69.3242 176.847 67.1056C177.07 66.9049 177.226 66.6708 177.326 66.4032C177.349 66.3363 177.382 66.2582 177.438 66.1356C177.65 65.6451 177.962 64.8981 177.694 64.0842C177.271 62.7686 175.899 62.1554 174.383 62.5902L174.394 62.5679ZM162.42 59.2232C162.543 58.8999 162.643 58.6212 162.744 58.4763C164.026 56.7036 165.52 55.5998 167.315 55.087H167.382C167.593 55.0647 167.984 55.0424 168.385 54.8194C168.876 54.563 169.344 54.5184 170.336 55.0758C170.581 55.2096 170.882 55.4772 170.76 56.1907C170.581 57.1718 169.946 57.6512 168.753 58.231C167.292 58.9557 165.531 59.6804 163.636 59.5243C162.933 59.4685 162.599 59.3459 162.431 59.2121L162.42 59.2232Z" fill="black"/>
<path d="M130.033 33.6254C132.385 33.6254 134.425 33.2017 136.209 32.3321C137.212 31.8415 138.182 31.3064 139.13 30.7824L140.212 30.1915C140.345 30.1134 140.49 30.0465 140.635 29.9796C141.081 29.7678 141.583 29.5225 142.018 29.1212C143.857 27.4377 145.753 25.7096 147.536 23.8812C148.774 22.6102 149.878 21.2166 150.948 19.8564L151.104 19.6557C152.62 17.7381 154.571 15.1627 156.099 12.3085C157.18 10.2794 157.994 8.11653 158.775 6.02053L158.931 5.59687C159.209 4.84988 159.265 3.93567 159.087 2.79848C159.009 2.27447 158.329 0.468343 157.069 0.61328C155.831 0.747067 154.872 1.11498 154.226 1.70588C153.557 2.31907 153.613 3.27788 153.646 4.04716C153.646 4.1698 153.657 4.29244 153.668 4.40393C153.668 4.76069 153.769 5.08401 153.847 5.34044C153.869 5.42963 153.902 5.50767 153.914 5.58572L153.635 6.24351C152.665 8.56249 151.751 10.7588 150.312 12.6876C149.878 13.2785 149.454 13.8694 149.03 14.4714C148.072 15.8316 147.157 17.1249 146.054 18.2955C145.329 19.0648 144.615 19.8564 143.902 20.6368C143.367 21.2277 142.832 21.8186 142.285 22.4095C141.416 23.346 140.368 24.0595 139.253 24.8177C138.573 25.2748 137.87 25.7542 137.201 26.2893C135.094 27.984 132.797 28.8425 130.189 28.887C128.55 28.9205 127.134 28.4076 125.941 27.3485L126.788 26.49C128.037 25.2302 129.23 24.0038 130.434 22.7886C130.813 22.3984 131.203 22.0193 131.593 21.6402C132.597 20.6703 133.623 19.6669 134.481 18.5074C136.153 16.233 137.257 14.215 137.948 12.1525C138.428 10.7365 138.863 8.64053 137.224 6.84555C135.886 5.38504 133.946 4.7384 131.894 5.07286C128.104 5.68606 125.027 8.00504 122.496 12.1748C121.102 14.4714 120.166 17.1249 119.809 19.8675C119.631 21.25 119.497 22.6548 119.352 24.1376C119.307 24.6727 119.251 25.219 119.196 25.7988L118.939 25.9437C118.326 26.2893 117.624 26.6907 116.933 27.0809C114.246 28.586 111.548 29.0654 108.905 28.4968C106.085 27.8948 105.784 26.936 105.739 24.7285C105.728 24.171 105.984 23.6582 106.285 23.0784C106.508 22.6436 106.754 22.1642 106.91 21.6068C107.411 19.7783 108.482 18.2175 109.619 16.5786C109.864 16.2218 110.12 15.8539 110.366 15.4971C111.447 13.8694 112.785 12.3308 114.067 10.848L114.97 9.78887C117.2 7.16887 119.33 4.97252 122.663 4.7161C123.566 4.6492 124.413 3.75729 124.592 2.99916C124.793 2.18528 124.335 1.23762 123.8 0.747067C122.518 -0.434723 121.035 0.122725 120.556 0.301109C118.259 1.15958 116.375 2.56435 114.558 3.92452L113.744 4.52657C110.879 6.63372 108.905 9.43211 107.166 11.896L106.921 12.2416C105.193 14.6833 103.398 17.2141 102.216 20.202C101.826 21.1831 101.714 22.1308 101.592 23.0561C101.48 23.9927 101.369 24.8846 100.967 25.6315C100.599 26.3228 101.001 26.9583 101.235 27.3485C101.279 27.4154 101.324 27.4823 101.357 27.5492C101.447 27.7276 101.547 27.9059 101.658 28.0843C101.792 28.3185 101.937 28.5637 101.971 28.7087C102.194 29.9796 102.974 30.5928 103.71 31.0165C104.033 31.206 104.345 31.4513 104.68 31.7077C105.115 32.0534 105.572 32.399 106.107 32.6888C106.932 33.1237 107.913 33.4135 108.85 33.5027C110.02 33.6031 111.202 33.5808 112.35 33.4135C113.733 33.224 115.439 32.9787 117.022 32.4213C117.958 32.0979 118.75 31.5628 119.53 31.0499C119.831 30.8604 120.121 30.6597 120.433 30.4702C120.801 30.2472 121.18 30.0242 121.37 29.9462C121.548 30.0577 121.883 30.3699 122.217 30.6709C124.101 32.3767 126.075 33.3355 128.081 33.5139C128.762 33.5808 129.43 33.6031 130.066 33.6031L130.033 33.6254ZM128.65 18.407C127.1 19.7226 125.551 21.0159 123.99 22.3203C123.945 22.0304 123.923 21.7629 123.968 21.5733L124.179 20.7483C124.837 18.1729 125.473 15.7424 127.112 13.6799C128.282 12.2082 129.564 11.0822 131.014 10.246C131.482 9.96726 132.095 9.77773 132.719 9.71083C132.753 9.71083 132.82 9.71083 132.887 9.71083C132.998 9.71083 133.143 9.73313 133.21 9.80002C133.31 9.88922 133.4 10.1456 133.377 10.5916C133.333 11.673 132.719 12.5204 132.017 13.5015C131.772 13.8471 131.515 14.1927 131.292 14.5495C130.679 15.5083 130.044 16.456 129.397 17.4036L129.051 17.9165C128.918 18.1171 128.773 18.329 128.65 18.4405V18.407Z" fill="black"/>
</g>
<defs>
<clipPath id="clip0_1260_14432">
<rect width="90" height="61.8158" fill="white" transform="translate(0 5.3999)"/>
</clipPath>
<clipPath id="clip1_1260_14432">
<rect width="124.211" height="72" fill="white" transform="translate(100.8)"/>
</clipPath>
</defs>
</svg>
