<svg width="165" height="52" viewBox="0 0 165 52" fill="none" xmlns="http://www.w3.org/2000/svg">
<g filter="url(#filter0_dii_234_421)">
<rect x="2" y="2" width="157" height="44" rx="6" fill="#FFCE1B"/>
<path d="M40 21C40.8284 21 41.5 20.3285 41.5 19.5C41.5 18.6716 40.8284 18 40 18C39.1716 18 38.5 18.6716 38.5 19.5C38.5 20.3285 39.1716 21 40 21Z" fill="black" stroke="black"/>
<path d="M46 13.5H22V34.5H46V13.5Z" stroke="black" stroke-width="2" stroke-linejoin="round"/>
<path d="M29.5 22.5L22 30V34.5H46V30L40 25.5L35.5 28.5L29.5 22.5Z" fill="black" stroke="black" stroke-width="2" stroke-linecap="round" stroke-linejoin="round"/>
<path d="M67.4219 17.375V20.3906H69.5156V21.4219H67.4219V24.4531H66.2031V17.375H67.4219ZM63.5781 18.1719V23.7188H57.1562V18.1719H63.5781ZM58.3594 19.1719V22.7344H62.3906V19.1719H58.3594ZM67.4219 25.1094V28.5H59.7969V30.0938H67.9375V31.0781H58.5938V27.5625H66.2031V26.0938H58.5625V25.1094H67.4219ZM76.9281 19.7812V20.7812H69.9594V19.7812H72.85V17.7969H74.0688V19.7812H76.9281ZM73.4438 21.7188C75.1938 21.7188 76.4438 23.0312 76.4594 24.875C76.4438 26.7344 75.1938 28.0625 73.4438 28.0625C71.7094 28.0625 70.4594 26.7344 70.4594 24.875C70.4594 23.0312 71.7094 21.7188 73.4438 21.7188ZM73.4438 22.75C72.35 22.7656 71.5531 23.6562 71.5531 24.875C71.5531 26.1094 72.35 27 73.4438 26.9844C74.5531 27 75.3656 26.1094 75.3656 24.875C75.3656 23.6562 74.5531 22.7656 73.4438 22.75ZM81.8188 17.375V31.2656H80.6469V24.25H78.8031V30.5781H77.6469V17.7188H78.8031V23.2344H80.6469V17.375H81.8188ZM85.4031 18.5312V20.6562H89.9188V18.5312H91.1375V24.7812H88.2781V27.2656C89.5594 27.2188 90.8484 27.125 92.0438 26.9688L92.1219 27.8906C89.1844 28.3594 85.8875 28.4062 83.45 28.4219L83.2469 27.375C84.3797 27.3672 85.6844 27.3594 87.0438 27.3125V24.7812H84.1844V18.5312H85.4031ZM85.4031 23.7812H89.9188V21.6094H85.4031V23.7812ZM94.1531 17.375V23.2188H96.4188V24.25H94.1531V31.2656H92.9344V17.375H94.1531ZM109.566 28.4531V29.4844H96.8469V28.4531H100.003V24.7031C98.8156 24.0859 98.0969 23.0859 98.0969 21.8281C98.0969 19.6719 100.206 18.2656 103.175 18.25C106.144 18.2656 108.253 19.6719 108.253 21.8281C108.253 23.0625 107.558 24.0547 106.409 24.6719V28.4531H109.566ZM103.175 19.2656C100.894 19.25 99.2844 20.2812 99.2844 21.8281C99.2844 23.375 100.894 24.4219 103.175 24.4219C105.441 24.4219 107.066 23.375 107.066 21.8281C107.066 20.2812 105.441 19.25 103.175 19.2656ZM101.206 28.4531H105.175V25.1406C104.573 25.3047 103.902 25.3906 103.175 25.3906C102.464 25.3906 101.8 25.3125 101.206 25.1562V28.4531ZM126.547 25.7812V26.8125H120.812V31.2969H119.609V26.8125H113.891V25.7812H126.547ZM120.828 20.125C120.828 21.8594 123.25 23.375 125.734 23.7188L125.281 24.7031C123.133 24.375 121.109 23.2969 120.234 21.7812C119.344 23.3125 117.289 24.375 115.141 24.7031L114.688 23.7188C117.156 23.375 119.609 21.875 119.609 20.125V20.1094H115.125V19.1094H119.609V17.375H120.812V19.1094H125.328V20.1094H120.828V20.125ZM138.069 17.375V23.0312H140.319V24.0625H138.069V31.2656H136.85V17.375H138.069ZM134.475 18.875C134.475 22.8125 132.631 26.3906 128.1 28.625L127.412 27.6562C131.006 25.8672 132.959 23.1953 133.241 19.9062H128.053V18.875H134.475Z" fill="#111111"/>
</g>
<defs>
<filter id="filter0_dii_234_421" x="0" y="-2" width="165" height="54" filterUnits="userSpaceOnUse" color-interpolation-filters="sRGB">
<feFlood flood-opacity="0" result="BackgroundImageFix"/>
<feColorMatrix in="SourceAlpha" type="matrix" values="0 0 0 0 0 0 0 0 0 0 0 0 0 0 0 0 0 0 127 0" result="hardAlpha"/>
<feOffset dx="2" dy="2"/>
<feGaussianBlur stdDeviation="2"/>
<feComposite in2="hardAlpha" operator="out"/>
<feColorMatrix type="matrix" values="0 0 0 0 0 0 0 0 0 0 0 0 0 0 0 0 0 0 0.7 0"/>
<feBlend mode="multiply" in2="BackgroundImageFix" result="effect1_dropShadow_234_421"/>
<feBlend mode="normal" in="SourceGraphic" in2="effect1_dropShadow_234_421" result="shape"/>
<feColorMatrix in="SourceAlpha" type="matrix" values="0 0 0 0 0 0 0 0 0 0 0 0 0 0 0 0 0 0 127 0" result="hardAlpha"/>
<feOffset dy="4"/>
<feGaussianBlur stdDeviation="2"/>
<feComposite in2="hardAlpha" operator="arithmetic" k2="-1" k3="1"/>
<feColorMatrix type="matrix" values="0 0 0 0 1 0 0 0 0 1 0 0 0 0 1 0 0 0 0.2 0"/>
<feBlend mode="normal" in2="shape" result="effect2_innerShadow_234_421"/>
<feColorMatrix in="SourceAlpha" type="matrix" values="0 0 0 0 0 0 0 0 0 0 0 0 0 0 0 0 0 0 127 0" result="hardAlpha"/>
<feOffset dy="-4"/>
<feGaussianBlur stdDeviation="2"/>
<feComposite in2="hardAlpha" operator="arithmetic" k2="-1" k3="1"/>
<feColorMatrix type="matrix" values="0 0 0 0 0 0 0 0 0 0 0 0 0 0 0 0 0 0 0.2 0"/>
<feBlend mode="normal" in2="effect2_innerShadow_234_421" result="effect3_innerShadow_234_421"/>
</filter>
</defs>
</svg>
