<svg width="157" height="44" viewBox="0 0 157 44" fill="none" xmlns="http://www.w3.org/2000/svg">
<rect width="157" height="44" rx="6" fill="#33312B"/>
<path d="M31.5 8V35" stroke="white" stroke-width="2" stroke-miterlimit="10" stroke-linecap="round"/>
<path d="M18 21.5H45" stroke="white" stroke-width="2" stroke-miterlimit="10" stroke-linecap="round"/>
<path d="M58.5 15.8906C60.5781 15.9062 62.0938 17.1562 62.0938 18.9688C62.0938 20.7812 60.5781 22.0312 58.5 22.0312C56.3906 22.0312 54.8906 20.7812 54.8906 18.9688C54.8906 17.1562 56.3906 15.9062 58.5 15.8906ZM58.5 16.9219C57.1094 16.9219 56.0781 17.7656 56.0938 18.9688C56.0781 20.1875 57.1094 21.0312 58.5 21.0312C59.875 21.0312 60.9062 20.1875 60.9062 18.9688C60.9062 17.7656 59.875 16.9219 58.5 16.9219ZM66.0312 15.375V22.5156H64.8125V15.375H66.0312ZM66.0312 23.1875V26.5312H58.2344V28.0938H66.5312V29.0781H57.0312V25.6094H64.8125V24.1719H57V23.1875H66.0312ZM72.9594 19.6406C72.9594 22 74.6781 24.3906 76.725 25.2812L76.0375 26.25C74.4125 25.5078 73.0063 23.9062 72.3656 21.9844C71.7094 24.0234 70.3109 25.7969 68.725 26.5938L67.9906 25.625C69.975 24.6719 71.7094 22.0469 71.725 19.6406V17.8281H68.4438V16.8125H76.2719V17.8281H72.9594V19.6406ZM79.4438 15.375V29.2656H78.2094V15.375H79.4438ZM97.6906 23.7812V24.8125H91.9562V29.2969H90.7531V24.8125H85.0344V23.7812H97.6906ZM91.9719 18.125C91.9719 19.8594 94.3937 21.375 96.8781 21.7188L96.425 22.7031C94.2766 22.375 92.2531 21.2969 91.3781 19.7812C90.4875 21.3125 88.4328 22.375 86.2844 22.7031L85.8312 21.7188C88.3 21.375 90.7531 19.875 90.7531 18.125V18.1094H86.2687V17.1094H90.7531V15.375H91.9562V17.1094H96.4719V18.1094H91.9719V18.125ZM109.213 15.375V21.0312H111.463V22.0625H109.213V29.2656H107.994V15.375H109.213ZM105.619 16.875C105.619 20.8125 103.775 24.3906 99.2438 26.625L98.5563 25.6562C102.15 23.8672 104.103 21.1953 104.384 17.9062H99.1969V16.875H105.619ZM122.641 15.375V21.1094H124.969V22.125H122.641V29.2656H121.422V15.375H122.641ZM120.078 17.6094V18.625H111.812V17.6094H115.391V15.5469H116.609V17.6094H120.078ZM116.016 19.7812C117.984 19.7812 119.406 21.0938 119.422 22.9688C119.406 24.8438 117.984 26.1562 116.016 26.1562C114.031 26.1562 112.594 24.8438 112.609 22.9688C112.594 21.0938 114.031 19.7812 116.016 19.7812ZM116.016 20.8125C114.719 20.8125 113.766 21.7188 113.781 22.9688C113.766 24.2344 114.719 25.125 116.016 25.1094C117.297 25.125 118.234 24.2344 118.25 22.9688C118.234 21.7188 117.297 20.8125 116.016 20.8125ZM136.803 15.375V29.2656H135.569V15.375H136.803ZM132.694 16.8906C132.678 20.8906 130.819 24.4219 126.162 26.6562L125.491 25.6562C129.248 23.875 131.162 21.2109 131.444 17.8906H126.131V16.8906H132.694Z" fill="white"/>
</svg>
