<svg width="165" height="52" viewBox="0 0 165 52" fill="none" xmlns="http://www.w3.org/2000/svg">
<g filter="url(#filter0_dii_802_10031)">
<rect x="2" y="2" width="157" height="44" rx="6" fill="#FFCE1B"/>
<path d="M33.5 10V37" stroke="black" stroke-width="2" stroke-miterlimit="10" stroke-linecap="round"/>
<path d="M20 23.5H47" stroke="black" stroke-width="2" stroke-miterlimit="10" stroke-linecap="round"/>
<path d="M60.5 17.8906C62.5781 17.9062 64.0938 19.1562 64.0938 20.9688C64.0938 22.7812 62.5781 24.0312 60.5 24.0312C58.3906 24.0312 56.8906 22.7812 56.8906 20.9688C56.8906 19.1562 58.3906 17.9062 60.5 17.8906ZM60.5 18.9219C59.1094 18.9219 58.0781 19.7656 58.0938 20.9688C58.0781 22.1875 59.1094 23.0312 60.5 23.0312C61.875 23.0312 62.9062 22.1875 62.9062 20.9688C62.9062 19.7656 61.875 18.9219 60.5 18.9219ZM68.0312 17.375V24.5156H66.8125V17.375H68.0312ZM68.0312 25.1875V28.5312H60.2344V30.0938H68.5312V31.0781H59.0312V27.6094H66.8125V26.1719H59V25.1875H68.0312ZM74.9594 21.6406C74.9594 24 76.6781 26.3906 78.725 27.2812L78.0375 28.25C76.4125 27.5078 75.0063 25.9062 74.3656 23.9844C73.7094 26.0234 72.3109 27.7969 70.725 28.5938L69.9906 27.625C71.975 26.6719 73.7094 24.0469 73.725 21.6406V19.8281H70.4438V18.8125H78.2719V19.8281H74.9594V21.6406ZM81.4438 17.375V31.2656H80.2094V17.375H81.4438ZM99.6906 25.7812V26.8125H93.9562V31.2969H92.7531V26.8125H87.0344V25.7812H99.6906ZM93.9719 20.125C93.9719 21.8594 96.3937 23.375 98.8781 23.7188L98.425 24.7031C96.2766 24.375 94.2531 23.2969 93.3781 21.7812C92.4875 23.3125 90.4328 24.375 88.2844 24.7031L87.8312 23.7188C90.3 23.375 92.7531 21.875 92.7531 20.125V20.1094H88.2687V19.1094H92.7531V17.375H93.9562V19.1094H98.4719V20.1094H93.9719V20.125ZM111.213 17.375V23.0312H113.463V24.0625H111.213V31.2656H109.994V17.375H111.213ZM107.619 18.875C107.619 22.8125 105.775 26.3906 101.244 28.625L100.556 27.6562C104.15 25.8672 106.103 23.1953 106.384 19.9062H101.197V18.875H107.619ZM124.641 17.375V23.1094H126.969V24.125H124.641V31.2656H123.422V17.375H124.641ZM122.078 19.6094V20.625H113.812V19.6094H117.391V17.5469H118.609V19.6094H122.078ZM118.016 21.7812C119.984 21.7812 121.406 23.0938 121.422 24.9688C121.406 26.8438 119.984 28.1562 118.016 28.1562C116.031 28.1562 114.594 26.8438 114.609 24.9688C114.594 23.0938 116.031 21.7812 118.016 21.7812ZM118.016 22.8125C116.719 22.8125 115.766 23.7188 115.781 24.9688C115.766 26.2344 116.719 27.125 118.016 27.1094C119.297 27.125 120.234 26.2344 120.25 24.9688C120.234 23.7188 119.297 22.8125 118.016 22.8125ZM138.803 17.375V31.2656H137.569V17.375H138.803ZM134.694 18.8906C134.678 22.8906 132.819 26.4219 128.162 28.6562L127.491 27.6562C131.248 25.875 133.162 23.2109 133.444 19.8906H128.131V18.8906H134.694Z" fill="#111111"/>
</g>
<defs>
<filter id="filter0_dii_802_10031" x="0" y="-2" width="165" height="54" filterUnits="userSpaceOnUse" color-interpolation-filters="sRGB">
<feFlood flood-opacity="0" result="BackgroundImageFix"/>
<feColorMatrix in="SourceAlpha" type="matrix" values="0 0 0 0 0 0 0 0 0 0 0 0 0 0 0 0 0 0 127 0" result="hardAlpha"/>
<feOffset dx="2" dy="2"/>
<feGaussianBlur stdDeviation="2"/>
<feComposite in2="hardAlpha" operator="out"/>
<feColorMatrix type="matrix" values="0 0 0 0 0 0 0 0 0 0 0 0 0 0 0 0 0 0 0.7 0"/>
<feBlend mode="multiply" in2="BackgroundImageFix" result="effect1_dropShadow_802_10031"/>
<feBlend mode="normal" in="SourceGraphic" in2="effect1_dropShadow_802_10031" result="shape"/>
<feColorMatrix in="SourceAlpha" type="matrix" values="0 0 0 0 0 0 0 0 0 0 0 0 0 0 0 0 0 0 127 0" result="hardAlpha"/>
<feOffset dy="4"/>
<feGaussianBlur stdDeviation="2"/>
<feComposite in2="hardAlpha" operator="arithmetic" k2="-1" k3="1"/>
<feColorMatrix type="matrix" values="0 0 0 0 1 0 0 0 0 1 0 0 0 0 1 0 0 0 0.2 0"/>
<feBlend mode="normal" in2="shape" result="effect2_innerShadow_802_10031"/>
<feColorMatrix in="SourceAlpha" type="matrix" values="0 0 0 0 0 0 0 0 0 0 0 0 0 0 0 0 0 0 127 0" result="hardAlpha"/>
<feOffset dy="-4"/>
<feGaussianBlur stdDeviation="2"/>
<feComposite in2="hardAlpha" operator="arithmetic" k2="-1" k3="1"/>
<feColorMatrix type="matrix" values="0 0 0 0 0 0 0 0 0 0 0 0 0 0 0 0 0 0 0.2 0"/>
<feBlend mode="normal" in2="effect2_innerShadow_802_10031" result="effect3_innerShadow_802_10031"/>
</filter>
</defs>
</svg>
