<svg width="157" height="44" viewBox="0 0 157 44" fill="none" xmlns="http://www.w3.org/2000/svg">
<rect width="157" height="44" rx="6" fill="#33312B"/>
<path d="M31.5 8V35" stroke="white" stroke-width="2" stroke-miterlimit="10" stroke-linecap="round"/>
<path d="M18 21.5H45" stroke="white" stroke-width="2" stroke-miterlimit="10" stroke-linecap="round"/>
<path d="M66.0156 29.2969H64.7812V15.375H66.0156V29.2969ZM58.625 16.4531C59.3125 16.4583 59.9245 16.6615 60.4609 17.0625C60.9974 17.4583 61.4167 18.0208 61.7188 18.75C62.0208 19.4792 62.1719 20.3281 62.1719 21.2969C62.1719 22.2656 62.0208 23.1146 61.7188 23.8438C61.4167 24.5729 60.9974 25.1354 60.4609 25.5312C59.9245 25.9271 59.3125 26.125 58.625 26.125C57.9375 26.125 57.3229 25.9271 56.7812 25.5312C56.2448 25.1354 55.8255 24.5729 55.5234 23.8438C55.2266 23.1146 55.0781 22.2656 55.0781 21.2969C55.0781 20.3281 55.2266 19.4792 55.5234 18.75C55.8255 18.0208 56.2448 17.4583 56.7812 17.0625C57.3177 16.6615 57.9323 16.4583 58.625 16.4531ZM58.625 17.5469C58.1615 17.5521 57.75 17.7109 57.3906 18.0234C57.0365 18.3307 56.7604 18.7682 56.5625 19.3359C56.3646 19.8984 56.2656 20.5521 56.2656 21.2969C56.2656 22.0417 56.3646 22.6979 56.5625 23.2656C56.7604 23.8281 57.0391 24.263 57.3984 24.5703C57.7578 24.8776 58.1667 25.0312 58.625 25.0312C59.0833 25.0312 59.4922 24.8776 59.8516 24.5703C60.2109 24.263 60.4896 23.8281 60.6875 23.2656C60.8854 22.6979 60.9844 22.0417 60.9844 21.2969C60.9844 20.5521 60.8854 19.8984 60.6875 19.3359C60.4896 18.7682 60.2109 18.3307 59.8516 18.0234C59.4974 17.7109 59.0885 17.5521 58.625 17.5469ZM71.725 16.4531C72.35 16.4583 72.9099 16.6328 73.4047 16.9766C73.9047 17.3203 74.3083 17.8099 74.6156 18.4453C74.9229 19.0807 75.1078 19.8281 75.1703 20.6875H78.2875V15.375H79.5063V29.2969H78.2875V21.7031H75.1859C75.1391 22.599 74.9646 23.3802 74.6625 24.0469C74.3604 24.7135 73.9542 25.2266 73.4438 25.5859C72.9385 25.9453 72.3656 26.125 71.725 26.125C71.0479 26.125 70.4438 25.9271 69.9125 25.5312C69.3865 25.1354 68.975 24.5729 68.6781 23.8438C68.3865 23.1146 68.2406 22.2656 68.2406 21.2969C68.2406 20.3281 68.3865 19.4792 68.6781 18.75C68.975 18.0208 69.3865 17.4583 69.9125 17.0625C70.4385 16.6615 71.0427 16.4583 71.725 16.4531ZM71.725 17.5469C71.2719 17.5521 70.8682 17.7109 70.5141 18.0234C70.1651 18.3307 69.8943 18.7682 69.7016 19.3359C69.5089 19.8984 69.4125 20.5521 69.4125 21.2969C69.4125 22.0417 69.5089 22.6979 69.7016 23.2656C69.8943 23.8281 70.1651 24.263 70.5141 24.5703C70.8682 24.8776 71.2719 25.0312 71.725 25.0312C72.1729 25.0312 72.5714 24.8776 72.9203 24.5703C73.2745 24.263 73.5479 23.8281 73.7406 23.2656C73.9385 22.6979 74.0375 22.0417 74.0375 21.2969C74.0375 20.5521 73.9385 19.8984 73.7406 19.3359C73.5479 18.7682 73.2771 18.3307 72.9281 18.0234C72.5792 17.7109 72.1781 17.5521 71.725 17.5469ZM83.4031 18.6562H87.9188V16.5312H89.1375V22.7812H86.2781V25.2734C87.7 25.2109 88.9552 25.1094 90.0438 24.9688L90.1219 25.8906C88.8198 26.099 87.4656 26.237 86.0594 26.3047C84.6531 26.3724 83.1167 26.4115 81.45 26.4219L81.2469 25.375C82.9083 25.3646 84.174 25.3464 85.0438 25.3203V22.7812H82.1844V16.5312H83.4031V18.6562ZM87.9188 21.7812V19.6094H83.4031V21.7812H87.9188ZM92.1531 21.2188H94.4188V22.25H92.1531V29.2656H90.9344V15.375H92.1531V21.2188ZM107.566 27.4844H94.8469V26.4531H98.0031V22.7031C97.399 22.3906 96.9302 21.9896 96.5969 21.5C96.2635 21.0052 96.0969 20.4479 96.0969 19.8281C96.0969 19.1198 96.313 18.4974 96.7453 17.9609C97.1776 17.4193 97.7766 17 98.5422 16.7031C99.313 16.4062 100.191 16.2552 101.175 16.25C102.159 16.2552 103.034 16.4062 103.8 16.7031C104.571 17 105.172 17.4193 105.605 17.9609C106.037 18.4974 106.253 19.1198 106.253 19.8281C106.253 20.4375 106.092 20.987 105.769 21.4766C105.446 21.9609 104.993 22.3594 104.409 22.6719V26.4531H107.566V27.4844ZM101.175 17.2656C100.42 17.2604 99.7479 17.3646 99.1594 17.5781C98.5708 17.7917 98.1099 18.0938 97.7766 18.4844C97.4484 18.8698 97.2844 19.3177 97.2844 19.8281C97.2844 20.3385 97.4484 20.7917 97.7766 21.1875C98.1099 21.5781 98.5708 21.8828 99.1594 22.1016C99.7479 22.3151 100.42 22.4219 101.175 22.4219C101.925 22.4219 102.594 22.3125 103.183 22.0938C103.771 21.875 104.232 21.5703 104.566 21.1797C104.899 20.7891 105.066 20.3385 105.066 19.8281C105.066 19.3177 104.899 18.8698 104.566 18.4844C104.232 18.0938 103.771 17.7917 103.183 17.5781C102.594 17.3646 101.925 17.2604 101.175 17.2656ZM103.175 26.4531V23.1484C102.555 23.3099 101.889 23.3906 101.175 23.3906C100.456 23.3906 99.8 23.3125 99.2062 23.1562V26.4531H103.175ZM124.547 24.8125H118.812V29.2969H117.609V24.8125H111.891V23.7812H124.547V24.8125ZM118.828 18.125C118.828 18.6823 119.06 19.2161 119.523 19.7266C119.987 20.2318 120.596 20.6615 121.352 21.0156C122.107 21.3698 122.901 21.6042 123.734 21.7188L123.281 22.7031C122.562 22.5938 121.87 22.4036 121.203 22.1328C120.542 21.862 119.951 21.526 119.43 21.125C118.914 20.724 118.513 20.276 118.227 19.7812C117.94 20.2812 117.534 20.7318 117.008 21.1328C116.487 21.5339 115.893 21.8698 115.227 22.1406C114.56 22.4062 113.865 22.5938 113.141 22.7031L112.688 21.7188C113.521 21.6042 114.315 21.3724 115.07 21.0234C115.826 20.6693 116.438 20.2396 116.906 19.7344C117.375 19.224 117.609 18.6875 117.609 18.125V18.1094H113.125V17.1094H117.609V15.375H118.812V17.1094H123.328V18.1094H118.828V18.125ZM136.069 21.0312H138.319V22.0625H136.069V29.2656H134.85V15.375H136.069V21.0312ZM132.475 16.875C132.475 18.9427 131.957 20.8177 130.92 22.5C129.884 24.1771 128.277 25.5521 126.1 26.625L125.412 25.6562C127.199 24.7656 128.582 23.6667 129.561 22.3594C130.54 21.0469 131.1 19.5625 131.241 17.9062H126.053V16.875H132.475Z" fill="white"/>
</svg>
