<svg width="157" height="44" viewBox="0 0 157 44" fill="none" xmlns="http://www.w3.org/2000/svg">
<rect width="157" height="44" rx="6" fill="#33312B"/>
<path d="M35 15V14.5H34.5H19H18.5V15V29V29.5H19H34.5H35V29V15ZM18.56 13.5H34.94C35.5239 13.5 36 13.9761 36 14.56V29.44C36 30.0239 35.5239 30.5 34.94 30.5H18.56C17.9761 30.5 17.5 30.0239 17.5 29.44V14.56C17.5 13.9761 17.9761 13.5 18.56 13.5Z" fill="#111111" stroke="white"/>
<mask id="path-3-inside-1_1342_10323" fill="white">
<path d="M45 17.5299V26.4599L36.5 23.5599V20.4199L45 17.5199M45.29 15.4199C45.04 15.4199 44.78 15.4699 44.52 15.5799L34.5 18.9899V24.9899L44.52 28.3999C44.77 28.5099 45.03 28.5599 45.29 28.5599C46.19 28.5599 47 27.9299 47 27.0599V16.9299C47 16.0599 46.18 15.4299 45.29 15.4299V15.4199Z"/>
</mask>
<path d="M45 17.5299V26.4599L36.5 23.5599V20.4199L45 17.5199M45.29 15.4199C45.04 15.4199 44.78 15.4699 44.52 15.5799L34.5 18.9899V24.9899L44.52 28.3999C44.77 28.5099 45.03 28.5599 45.29 28.5599C46.19 28.5599 47 27.9299 47 27.0599V16.9299C47 16.0599 46.18 15.4299 45.29 15.4299V15.4199Z" fill="white"/>
<path d="M45 26.4599L44.6771 27.4064L46 27.8577V26.4599H45ZM36.5 23.5599H35.5V24.2753L36.1771 24.5064L36.5 23.5599ZM36.5 20.4199L36.1771 19.4735L35.5 19.7045V20.4199H36.5ZM45.29 15.4199H46.29V14.4199H45.29V15.4199ZM44.52 15.5799L44.8422 16.5266L44.8764 16.515L44.9096 16.5009L44.52 15.5799ZM34.5 18.9899L34.1778 18.0432L33.5 18.2739V18.9899H34.5ZM34.5 24.9899H33.5V25.7059L34.1778 25.9366L34.5 24.9899ZM44.52 28.3999L44.9227 27.4846L44.8831 27.4672L44.8422 27.4532L44.52 28.3999ZM45.29 15.4299H44.29V16.4299H45.29V15.4299ZM44 17.5299V26.4599H46V17.5299H44ZM45.3229 25.5135L36.8229 22.6135L36.1771 24.5064L44.6771 27.4064L45.3229 25.5135ZM37.5 23.5599V20.4199H35.5V23.5599H37.5ZM36.8229 21.3664L45.3229 18.4664L44.6771 16.5735L36.1771 19.4735L36.8229 21.3664ZM45.29 14.4199C44.9048 14.4199 44.5124 14.4973 44.1304 14.659L44.9096 16.5009C45.0476 16.4425 45.1752 16.4199 45.29 16.4199V14.4199ZM44.1978 14.6332L34.1778 18.0432L34.8222 19.9366L44.8422 16.5266L44.1978 14.6332ZM33.5 18.9899V24.9899H35.5V18.9899H33.5ZM34.1778 25.9366L44.1978 29.3466L44.8422 27.4532L34.8222 24.0432L34.1778 25.9366ZM44.1173 29.3152C44.5017 29.4844 44.8998 29.5599 45.29 29.5599V27.5599C45.1602 27.5599 45.0383 27.5354 44.9227 27.4846L44.1173 29.3152ZM45.29 29.5599C46.5781 29.5599 48 28.6332 48 27.0599H46C46 27.1634 45.9572 27.2708 45.837 27.3724C45.7093 27.4803 45.5128 27.5599 45.29 27.5599V29.5599ZM48 27.0599V16.9299H46V27.0599H48ZM48 16.9299C48 15.3533 46.5641 14.4299 45.29 14.4299V16.4299C45.506 16.4299 45.7038 16.5084 45.8347 16.6187C45.9583 16.7227 46 16.8305 46 16.9299H48ZM46.29 15.4299V15.4199H44.29V15.4299H46.29Z" fill="white" mask="url(#path-3-inside-1_1342_10323)"/>
<path d="M65.5469 20.8438H67.5781V21.8906H65.5469V29.2656H64.3281V15.3594H65.5469V20.8438ZM58.5156 17.8594H56.2031V24.5859C57.1042 24.5547 57.9219 24.4583 58.6562 24.2969L58.7812 25.3281C58.1979 25.4531 57.6589 25.5339 57.1641 25.5703C56.6693 25.6068 56.1458 25.625 55.5938 25.625H54.9844V16.8438H58.5156V17.8594ZM63.0156 17.8594H60.5312V24.5938C61.1146 24.5833 61.6328 24.5547 62.0859 24.5078C62.5391 24.4609 63 24.3802 63.4688 24.2656L63.5938 25.2969C63.0312 25.4323 62.4896 25.5208 61.9688 25.5625C61.4479 25.6042 60.7865 25.625 59.9844 25.625H59.3125V16.8438H63.0156V17.8594ZM78.7406 20.9062H81.0688V21.9375H78.7406V29.2969H77.5219V15.375H78.7406V20.9062ZM74.85 21.6406H69.7875V24.8906C71.1677 24.8906 72.3422 24.8568 73.3109 24.7891C74.2849 24.7214 75.2719 24.5938 76.2719 24.4062L76.3969 25.4219C75.3604 25.6146 74.3396 25.7474 73.3344 25.8203C72.3292 25.888 71.1104 25.9271 69.6781 25.9375H68.5688V20.625H73.6313V17.6875H68.5375V16.6719H74.85V21.6406ZM88.3563 18.7812H81.3875V17.7812H84.2781V15.7969H85.4969V17.7812H88.3563V18.7812ZM84.8719 19.7188C85.45 19.7188 85.9656 19.8542 86.4188 20.125C86.8771 20.3906 87.2339 20.763 87.4891 21.2422C87.7495 21.7214 87.8823 22.2656 87.8875 22.875C87.8823 23.4896 87.7495 24.0391 87.4891 24.5234C87.2339 25.0026 86.8771 25.3802 86.4188 25.6562C85.9656 25.9271 85.45 26.0625 84.8719 26.0625C84.299 26.0625 83.7859 25.9271 83.3328 25.6562C82.8797 25.3802 82.5255 25 82.2703 24.5156C82.0151 24.0312 81.8875 23.4844 81.8875 22.875C81.8875 22.2708 82.0151 21.7292 82.2703 21.25C82.5255 20.7656 82.8797 20.3906 83.3328 20.125C83.7859 19.8542 84.299 19.7188 84.8719 19.7188ZM84.8719 20.75C84.5125 20.7552 84.187 20.8516 83.8953 21.0391C83.6089 21.2214 83.3849 21.474 83.2234 21.7969C83.062 22.1146 82.9813 22.474 82.9813 22.875C82.9813 23.2812 83.062 23.6458 83.2234 23.9688C83.3901 24.2917 83.6167 24.5443 83.9031 24.7266C84.1896 24.9036 84.5125 24.9896 84.8719 24.9844C85.2365 24.9896 85.5646 24.9036 85.8563 24.7266C86.1479 24.5443 86.3771 24.2917 86.5438 23.9688C86.7104 23.6458 86.7938 23.2812 86.7938 22.875C86.7938 22.474 86.7104 22.1146 86.5438 21.7969C86.3771 21.474 86.1479 21.2214 85.8563 21.0391C85.5646 20.8516 85.2365 20.7552 84.8719 20.75ZM93.2469 29.2656H92.075V22.25H90.2313V28.5781H89.075V15.7188H90.2313V21.2344H92.075V15.375H93.2469V29.2656ZM107.566 27.4844H94.8469V26.4531H98.0031V22.7031C97.399 22.3906 96.9302 21.9896 96.5969 21.5C96.2635 21.0052 96.0969 20.4479 96.0969 19.8281C96.0969 19.1198 96.313 18.4974 96.7453 17.9609C97.1776 17.4193 97.7766 17 98.5422 16.7031C99.313 16.4062 100.191 16.2552 101.175 16.25C102.159 16.2552 103.034 16.4062 103.8 16.7031C104.571 17 105.172 17.4193 105.605 17.9609C106.037 18.4974 106.253 19.1198 106.253 19.8281C106.253 20.4375 106.092 20.987 105.769 21.4766C105.446 21.9609 104.993 22.3594 104.409 22.6719V26.4531H107.566V27.4844ZM101.175 17.2656C100.42 17.2604 99.7479 17.3646 99.1594 17.5781C98.5708 17.7917 98.1099 18.0938 97.7766 18.4844C97.4484 18.8698 97.2844 19.3177 97.2844 19.8281C97.2844 20.3385 97.4484 20.7917 97.7766 21.1875C98.1099 21.5781 98.5708 21.8828 99.1594 22.1016C99.7479 22.3151 100.42 22.4219 101.175 22.4219C101.925 22.4219 102.594 22.3125 103.183 22.0938C103.771 21.875 104.232 21.5703 104.566 21.1797C104.899 20.7891 105.066 20.3385 105.066 19.8281C105.066 19.3177 104.899 18.8698 104.566 18.4844C104.232 18.0938 103.771 17.7917 103.183 17.5781C102.594 17.3646 101.925 17.2604 101.175 17.2656ZM103.175 26.4531V23.1484C102.555 23.3099 101.889 23.3906 101.175 23.3906C100.456 23.3906 99.8 23.3125 99.2062 23.1562V26.4531H103.175ZM124.547 24.8125H118.812V29.2969H117.609V24.8125H111.891V23.7812H124.547V24.8125ZM118.828 18.125C118.828 18.6823 119.06 19.2161 119.523 19.7266C119.987 20.2318 120.596 20.6615 121.352 21.0156C122.107 21.3698 122.901 21.6042 123.734 21.7188L123.281 22.7031C122.562 22.5938 121.87 22.4036 121.203 22.1328C120.542 21.862 119.951 21.526 119.43 21.125C118.914 20.724 118.513 20.276 118.227 19.7812C117.94 20.2812 117.534 20.7318 117.008 21.1328C116.487 21.5339 115.893 21.8698 115.227 22.1406C114.56 22.4062 113.865 22.5938 113.141 22.7031L112.688 21.7188C113.521 21.6042 114.315 21.3724 115.07 21.0234C115.826 20.6693 116.438 20.2396 116.906 19.7344C117.375 19.224 117.609 18.6875 117.609 18.125V18.1094H113.125V17.1094H117.609V15.375H118.812V17.1094H123.328V18.1094H118.828V18.125ZM136.069 21.0312H138.319V22.0625H136.069V29.2656H134.85V15.375H136.069V21.0312ZM132.475 16.875C132.475 18.9427 131.957 20.8177 130.92 22.5C129.884 24.1771 128.277 25.5521 126.1 26.625L125.412 25.6562C127.199 24.7656 128.582 23.6667 129.561 22.3594C130.54 21.0469 131.1 19.5625 131.241 17.9062H126.053V16.875H132.475Z" fill="white"/>
</svg>
