<svg width="165" height="52" viewBox="0 0 165 52" fill="none" xmlns="http://www.w3.org/2000/svg">
<g filter="url(#filter0_dii_1064_8634)">
<rect x="2" y="2" width="157" height="44" rx="6" fill="#FFCE1B"/>
<path d="M33.5 10V37" stroke="black" stroke-width="2" stroke-miterlimit="10" stroke-linecap="round"/>
<path d="M20 23.5H47" stroke="black" stroke-width="2" stroke-miterlimit="10" stroke-linecap="round"/>
<path d="M63.7656 18.8281C63.7604 20.2708 63.5651 21.6016 63.1797 22.8203C62.7943 24.0339 62.1328 25.1667 61.1953 26.2188C60.2578 27.2656 58.9896 28.1823 57.3906 28.9688L56.7031 28.0312C57.9792 27.4167 59.0286 26.7135 59.8516 25.9219C60.6745 25.125 61.3021 24.2448 61.7344 23.2812L56.9688 23.7344L56.7656 22.6562L62.1094 22.2969C62.3438 21.5365 62.4896 20.7188 62.5469 19.8438H57.4688V18.8281H63.7656ZM67.3125 23.0312H69.5625V24.0625H67.3125V31.2656H66.0938V17.375H67.3125V23.0312ZM81.2094 25.0781H71.6156V18.6719H81.0688V19.6875H72.8344V24.0625H81.2094V25.0781ZM82.7094 29.375H69.9906V28.3438H82.7094V29.375ZM99.6906 26.8125H93.9562V31.2969H92.7531V26.8125H87.0344V25.7812H99.6906V26.8125ZM93.9719 20.125C93.9719 20.6823 94.2036 21.2161 94.6672 21.7266C95.1307 22.2318 95.7401 22.6615 96.4953 23.0156C97.2505 23.3698 98.0448 23.6042 98.8781 23.7188L98.425 24.7031C97.7062 24.5938 97.0135 24.4036 96.3469 24.1328C95.6854 23.862 95.0943 23.526 94.5734 23.125C94.0578 22.724 93.6568 22.276 93.3703 21.7812C93.0839 22.2812 92.6776 22.7318 92.1516 23.1328C91.6307 23.5339 91.037 23.8698 90.3703 24.1406C89.7036 24.4062 89.0083 24.5938 88.2844 24.7031L87.8312 23.7188C88.6646 23.6042 89.4589 23.3724 90.2141 23.0234C90.9693 22.6693 91.5812 22.2396 92.05 21.7344C92.5187 21.224 92.7531 20.6875 92.7531 20.125V20.1094H88.2687V19.1094H92.7531V17.375H93.9562V19.1094H98.4719V20.1094H93.9719V20.125ZM111.213 23.0312H113.463V24.0625H111.213V31.2656H109.994V17.375H111.213V23.0312ZM107.619 18.875C107.619 20.9427 107.101 22.8177 106.064 24.5C105.028 26.1771 103.421 27.5521 101.244 28.625L100.556 27.6562C102.343 26.7656 103.726 25.6667 104.705 24.3594C105.684 23.0469 106.244 21.5625 106.384 19.9062H101.197V18.875H107.619ZM124.641 23.1094H126.969V24.125H124.641V31.2656H123.422V17.375H124.641V23.1094ZM122.078 20.625H113.812V19.6094H117.391V17.5469H118.609V19.6094H122.078V20.625ZM118.016 21.7812C118.667 21.7812 119.25 21.9167 119.766 22.1875C120.281 22.4583 120.685 22.8359 120.977 23.3203C121.268 23.8047 121.417 24.3542 121.422 24.9688C121.417 25.5833 121.268 26.1328 120.977 26.6172C120.685 27.1016 120.281 27.4792 119.766 27.75C119.25 28.0208 118.667 28.1562 118.016 28.1562C117.359 28.1562 116.771 28.0208 116.25 27.75C115.734 27.4792 115.331 27.1016 115.039 26.6172C114.747 26.1328 114.604 25.5833 114.609 24.9688C114.604 24.3542 114.747 23.8047 115.039 23.3203C115.331 22.8359 115.734 22.4583 116.25 22.1875C116.771 21.9167 117.359 21.7812 118.016 21.7812ZM118.016 22.8125C117.589 22.8125 117.203 22.9062 116.859 23.0938C116.521 23.276 116.255 23.5312 116.062 23.8594C115.87 24.1875 115.776 24.5573 115.781 24.9688C115.776 25.3854 115.87 25.7578 116.062 26.0859C116.255 26.4089 116.521 26.6615 116.859 26.8438C117.203 27.026 117.589 27.1146 118.016 27.1094C118.438 27.1146 118.818 27.026 119.156 26.8438C119.495 26.6615 119.76 26.4089 119.953 26.0859C120.146 25.7578 120.245 25.3854 120.25 24.9688C120.245 24.5573 120.146 24.1875 119.953 23.8594C119.76 23.5312 119.495 23.276 119.156 23.0938C118.818 22.9062 118.438 22.8125 118.016 22.8125ZM138.803 31.2656H137.569V17.375H138.803V31.2656ZM134.694 18.8906C134.683 20.9896 134.152 22.875 133.1 24.5469C132.048 26.2135 130.402 27.5833 128.162 28.6562L127.491 27.6562C129.345 26.776 130.764 25.6823 131.748 24.375C132.738 23.0677 133.303 21.5729 133.444 19.8906H128.131V18.8906H134.694Z" fill="#111111"/>
</g>
<defs>
<filter id="filter0_dii_1064_8634" x="0" y="-2" width="165" height="54" filterUnits="userSpaceOnUse" color-interpolation-filters="sRGB">
<feFlood flood-opacity="0" result="BackgroundImageFix"/>
<feColorMatrix in="SourceAlpha" type="matrix" values="0 0 0 0 0 0 0 0 0 0 0 0 0 0 0 0 0 0 127 0" result="hardAlpha"/>
<feOffset dx="2" dy="2"/>
<feGaussianBlur stdDeviation="2"/>
<feComposite in2="hardAlpha" operator="out"/>
<feColorMatrix type="matrix" values="0 0 0 0 0 0 0 0 0 0 0 0 0 0 0 0 0 0 0.7 0"/>
<feBlend mode="multiply" in2="BackgroundImageFix" result="effect1_dropShadow_1064_8634"/>
<feBlend mode="normal" in="SourceGraphic" in2="effect1_dropShadow_1064_8634" result="shape"/>
<feColorMatrix in="SourceAlpha" type="matrix" values="0 0 0 0 0 0 0 0 0 0 0 0 0 0 0 0 0 0 127 0" result="hardAlpha"/>
<feOffset dy="4"/>
<feGaussianBlur stdDeviation="2"/>
<feComposite in2="hardAlpha" operator="arithmetic" k2="-1" k3="1"/>
<feColorMatrix type="matrix" values="0 0 0 0 1 0 0 0 0 1 0 0 0 0 1 0 0 0 0.2 0"/>
<feBlend mode="normal" in2="shape" result="effect2_innerShadow_1064_8634"/>
<feColorMatrix in="SourceAlpha" type="matrix" values="0 0 0 0 0 0 0 0 0 0 0 0 0 0 0 0 0 0 127 0" result="hardAlpha"/>
<feOffset dy="-4"/>
<feGaussianBlur stdDeviation="2"/>
<feComposite in2="hardAlpha" operator="arithmetic" k2="-1" k3="1"/>
<feColorMatrix type="matrix" values="0 0 0 0 0 0 0 0 0 0 0 0 0 0 0 0 0 0 0.2 0"/>
<feBlend mode="normal" in2="effect2_innerShadow_1064_8634" result="effect3_innerShadow_1064_8634"/>
</filter>
</defs>
</svg>
