<svg width="337" height="480" viewBox="0 0 337 480" fill="none" xmlns="http://www.w3.org/2000/svg">
<g clip-path="url(#clip0_1265_16359)">
<path d="M56.7902 52.3646L41.4924 68.651L37.6893 90.1952L44.8682 115.929L40.8087 137.687L34.9117 160.428L39.0994 193.813L40.5096 203.559L21.7505 220.572L11.8795 246.647V272.381L28.032 296.361L24.5707 308.929L11.9222 331.841L6.53809 358.6L9.99933 403.099L18.6738 434.048L31.7069 455.934L59.3114 473.674H80.5061L117.682 464.996L157.636 436.484L168.063 454.908L207.675 473.674H241.39L275.789 463.927L298.009 443.409L312.239 414.897L324.032 364.157C324.032 364.157 312.452 313.759 308.735 305.424L319.161 271.697L313.264 237.97L287.54 201.464L294.89 170.174L290.018 135.421L285.489 126.401L292.796 109.004L287.54 82.2444L268.823 65.5733L251.09 59.3323L234.767 61.7688L224.34 69.0785L200.368 60.4009L162.508 52.4928L128.793 54.16L106.914 58.3491L83.6255 45.4824L56.8757 52.4928L56.7902 52.3646Z" fill="#FF4E00"/>
<path d="M312.794 306.492C334.929 274.047 320.571 227.539 293.778 201.849C301.769 175.303 301.171 150.467 291.941 127.94C292.368 127.598 292.71 127.171 293.009 126.7C299.504 116.57 298.051 103.446 296.385 94.4268C294.505 84.0822 288.992 74.8917 280.532 67.8385C261.986 52.4071 238.697 50.5262 220.836 62.9227C205.581 53.3475 184.6 49.885 170.028 48.0897C151.397 45.7814 130.972 46.9783 107.555 51.7231C90.505 37.8305 65.8917 36.8901 49.9529 49.6713C40.7229 57.0664 34.3559 68.437 32.5184 80.8762C31.5783 87.1599 31.792 93.8284 33.1594 100.668C34.014 104.9 35.5951 108.704 37.1762 112.38C38.4154 115.287 39.5691 118.023 40.381 120.972C40.381 121.101 40.4665 121.186 40.5092 121.314C34.3559 131.317 30.7237 144.269 29.399 160.812C28.2026 176.372 29.9546 189.067 34.6977 198.685C20.981 207.79 10.6827 223.735 7.00778 241.688C3.07649 260.839 8.20426 279.647 22.6902 299.011C11.58 312.177 4.70029 329.703 1.66636 352.487C-1.06845 373.048 -0.470212 393.139 3.46108 410.665C8.33246 432.509 19.6135 452.086 34.4841 464.483C46.748 474.699 61.6613 480 77.6428 480C83.5397 480 89.5649 479.273 95.6755 477.82C114.605 473.331 133.535 463.03 155.072 445.461C175.284 476.708 219.81 484.958 253.995 476.794C273.652 472.092 289.89 461.918 300.914 447.299C314.588 429.174 323.648 406.177 327.109 380.828C329.886 360.31 329.63 330.857 312.794 306.535V306.492ZM12.3919 361.635C14.4003 337.269 21.0664 318.547 32.2193 305.894C33.544 304.397 34.014 302.474 33.544 300.593C34.7405 298.627 34.9969 295.934 33.1594 293.625C19.7417 276.527 14.8704 259.428 18.7589 242.885C22.8184 225.53 33.0312 211.809 46.748 205.268C48.8846 204.242 50.0383 202.319 49.8247 200.096C49.611 197.873 48.0299 195.821 45.9788 194.924C40.1246 184.194 40.4237 170.558 41.1502 161.197C42.3467 145.808 46.0643 133.583 52.1749 124.862C53.7132 122.682 53.4996 120.117 51.7903 118.237L51.7048 117.937C50.9357 115.159 49.7392 112.594 48.6282 110.115C47.7308 108.148 46.8762 106.268 46.1925 104.301C44.4405 99.1289 43.5431 93.4864 43.6713 88.0149C43.885 77.3283 48.1581 67.2828 55.4652 60.4861C61.3194 55.0146 69.2674 52.1506 77.8565 52.4498C87.6419 52.7918 97.4702 57.2802 104.051 64.4188C105.504 66.0004 107.469 66.5989 109.435 66.0859C111.187 65.6157 112.683 64.2906 113.409 62.6235C133.279 58.819 150.884 57.8359 167.122 59.5885C176.438 60.5716 185.411 62.8372 193.787 65.0173C201.692 67.1118 210.067 69.5484 217.161 74.507C218.015 75.1054 218.956 75.4047 220.024 75.4902C221.904 75.9604 223.784 75.5329 225.237 74.2933C241.176 60.9564 261.174 66.3424 273.865 77.6275C279.506 82.6288 283.138 88.6561 284.676 95.5382C286.984 105.883 286.599 114.261 283.48 119.861C281.856 120.288 280.361 121.357 279.506 122.853C278.523 124.52 278.438 126.572 279.335 128.368C289.633 149.954 290.445 173.636 281.856 200.78C281.215 202.832 281.685 204.884 283.138 206.337C283.309 207.577 283.907 208.688 284.89 209.629C309.247 232.37 322.451 274.389 301.384 302.559C299.974 304.44 299.889 306.62 301.085 308.458C301.043 309.613 301.384 310.767 302.154 311.793C319.973 336.671 325.998 384.975 297.154 432.167C287.497 447.94 274.72 458.242 258.098 463.585C241.518 468.929 223.058 469.698 206.093 465.765C185.454 460.978 169.686 449.65 161.738 433.834C160.969 432.338 159.687 431.354 158.021 431.012C156.14 430.628 154.089 431.183 152.594 432.466C123.024 457.686 80.5485 482.736 46.107 458.84C10.469 434.133 10.64 382.666 12.3919 361.72V361.635Z" fill="black"/>
<path d="M142.295 119.775C139.005 118.664 135.416 116.27 131.954 119.562C131.826 119.69 131.313 119.433 130.587 119.22C133.578 115.971 136.228 113.107 140.415 111.996C142.509 111.44 144.859 110.799 145.799 108.063C144.432 104.814 141.911 105.755 139.86 106.267C132.339 108.148 127.468 112.722 124.135 119.946C121.229 126.23 124.733 134.266 130.843 136.959C132.424 137.643 134.219 138.071 135.971 137.173C136.441 137.088 136.911 137.045 137.339 136.874C138.877 136.361 140.073 135.634 141.313 134.608C141.612 134.352 141.911 134.053 142.167 133.711C142.253 133.582 142.338 133.454 142.466 133.326C145.628 130.847 146.697 127.812 145.458 123.836C144.988 122.255 143.706 120.203 142.338 119.733L142.295 119.775Z" fill="black"/>
<path d="M205.41 126.444C205.282 125.332 204.983 124.477 204.513 123.452C203.957 122.255 203.017 121.314 201.949 120.588C201.564 120.203 201.18 119.904 200.795 119.775C197.505 118.664 193.915 116.27 190.454 119.562C190.326 119.69 189.813 119.433 189.087 119.22C192.078 115.971 194.727 113.107 198.915 111.996C201.009 111.44 203.359 110.799 204.299 108.063C202.932 104.814 200.41 105.755 198.359 106.267C190.839 108.148 185.967 112.722 182.634 119.946C179.728 126.23 183.232 134.266 189.343 136.959C190.283 137.387 191.309 137.686 192.377 137.686C193.018 137.814 193.702 137.814 194.428 137.686C195.582 137.472 196.693 137.216 197.804 136.874C199.598 136.275 201.18 135.463 202.632 134.224C203.316 133.668 203.872 132.899 204.342 132.129C204.812 131.36 205.154 130.505 205.324 129.65C205.538 128.538 205.624 127.555 205.453 126.444H205.41Z" fill="black"/>
<path d="M164.516 165.343C171.62 165.343 177.378 160.271 177.378 154.015C177.378 147.759 171.62 142.688 164.516 142.688C157.412 142.688 151.654 147.759 151.654 154.015C151.654 160.271 157.412 165.343 164.516 165.343Z" fill="black"/>
<path d="M314.472 9.30002C315.464 5.28957 313.018 1.23388 309.009 0.241393C305 -0.751094 300.946 1.69545 299.954 5.70591L294.031 29.6483C293.038 33.6588 295.484 37.7145 299.493 38.707C303.502 39.6995 307.556 37.2529 308.549 33.2425L314.472 9.30002Z" fill="black"/>
<path d="M303.76 52.5666C304.752 48.5562 302.307 44.5005 298.298 43.508C294.289 42.5155 290.234 44.9621 289.242 48.9725L289.078 49.6364C288.086 53.6469 290.531 57.7026 294.54 58.695C298.55 59.6875 302.604 57.241 303.596 53.2305L303.76 52.5666Z" fill="black"/>
<path d="M336.682 9.34006C337.674 5.32961 335.229 1.27392 331.219 0.281432C327.21 -0.711055 323.156 1.73549 322.164 5.74595L316.241 29.6884C315.249 33.6988 317.695 37.7545 321.704 38.747C325.713 39.7395 329.767 37.293 330.759 33.2825L336.682 9.34006Z" fill="black"/>
<path d="M325.971 52.5637C326.963 48.5532 324.517 44.4976 320.508 43.5051C316.499 42.5126 312.445 44.9591 311.453 48.9696L311.288 49.6335C310.296 53.6439 312.742 57.6996 316.751 58.6921C320.76 59.6846 324.814 57.2381 325.806 53.2276L325.971 52.5637Z" fill="black"/>
<path d="M121.742 273.535C121.742 273.535 126.271 243.655 104.265 226.77L118.751 185.733L242.287 198.728C242.287 198.728 244.851 217.75 234.595 223.778C224.34 229.805 188.446 264.814 233.1 299.824L220.75 353.513L205.965 358.258L81.4033 342.1L86.9157 303.03C86.9157 303.03 115.631 294.993 121.827 273.577L121.742 273.535Z" fill="white"/>
<path d="M79.9931 306.534C77.5147 317.691 77.3437 329.19 75.1644 340.39C74.4807 343.852 76.1045 347.229 79.6512 348.298C98.7949 354.111 118.964 353.513 138.706 355.565C149.603 356.719 160.499 358.044 171.438 359.07C180.156 359.882 189.514 360.181 197.376 361.763C208.615 364.028 224.981 369.457 230.023 355.18C232.459 348.298 231.775 340.86 232.929 333.764C234.638 323.462 237.587 313.588 238.142 303.072C238.569 294.822 225.75 294.865 225.323 303.072C224.853 312.391 222.246 321.196 220.579 330.344C219.426 336.585 219.896 343.125 218.4 349.281C218.186 350.136 217.973 350.948 217.674 351.76C217.075 352.615 217.204 352.615 218.058 351.846C218.699 351.589 217.46 351.931 217.289 351.846C215.537 351.033 211.777 351.504 209.683 351.162C204.213 350.221 198.829 348.811 193.274 348.255C174.216 346.246 155.072 344.237 135.971 342.484C118.238 340.86 100.248 341.159 83.0698 335.944L87.5565 343.852C89.7358 332.652 89.864 321.154 92.3852 309.997C94.1799 301.96 81.8305 298.541 80.0358 306.577L79.9931 306.534Z" fill="black"/>
<path d="M113.495 223.735C113.922 216.852 116.443 210.483 117.896 203.857C118.494 201.079 118.751 198.215 119.306 195.436L119.605 193.983C120.246 192.572 120.204 192.273 119.563 193.085C117.853 193.427 121.827 194.026 122.212 194.068C137.467 196.377 153.064 198.044 168.405 199.326C183.745 200.609 198.659 201.293 213.743 202.618C220.708 203.259 227.801 203.644 234.767 204.456C235.621 204.456 236.433 204.627 237.245 204.883L235.878 202.062C235.878 202.062 235.151 205.781 235.108 205.952C234.467 209.585 234.083 213.219 233.185 216.852C231.177 224.846 243.526 228.266 245.535 220.272C246.603 215.997 247.073 211.637 247.842 207.32C248.441 204.028 249.167 200.951 247.629 197.787C244.253 190.991 234.852 191.803 228.528 191.418C219.084 190.862 209.64 189.495 200.197 188.853C190.283 188.169 180.327 187.528 170.413 186.759C160.499 185.989 150.543 184.579 140.587 183.467C135.715 182.912 130.801 182.527 125.972 181.843C122.468 181.33 118.665 180.09 115.119 181.116C107.726 183.296 107.042 191.632 105.974 198.001C104.521 206.721 101.188 214.843 100.633 223.82C100.12 232.07 112.939 232.027 113.452 223.82L113.495 223.735Z" fill="black"/>
<path d="M281.899 299.097H276.771C255.064 299.31 228.1 299.567 218.272 278.236C213.572 268.02 213.956 255.581 219.298 245.749C224.169 236.772 236.006 226.257 245.919 224.889C247.842 224.632 249.252 223.564 249.936 221.939C250.663 220.101 250.278 217.793 248.911 216.04C247.543 214.288 245.492 213.475 243.313 213.775C230.664 215.57 216.99 227.71 210.495 238.226C203.06 250.28 201.521 265.626 206.436 279.262C217.204 309.356 251.047 310.595 277.241 310.595C278.438 310.595 279.592 310.595 280.745 310.595H281.942C285.617 310.595 287.54 307.689 287.54 304.867C287.54 302.046 285.617 299.182 281.985 299.182L281.899 299.097Z" fill="black"/>
<path d="M125.972 277.51C130.886 263.874 129.348 248.528 121.913 236.474C115.418 225.958 101.701 213.818 89.095 212.023C86.873 211.724 84.8646 212.536 83.4972 214.288C82.1298 216.041 81.7452 218.349 82.4716 220.187C83.1126 221.812 84.5655 222.88 86.4884 223.137C96.1884 224.505 107.598 234.593 112.597 243.185C118.409 253.145 119.007 265.926 114.093 276.527C104.265 297.858 77.2157 297.644 55.5936 297.43H50.5085C48.4574 297.43 46.7054 298.413 45.7226 300.08C44.6543 301.919 44.6543 304.312 45.7226 306.15C46.7054 307.86 48.4574 308.843 50.5085 308.843H51.6623C52.816 308.843 54.0125 308.843 55.209 308.843C81.4033 308.843 115.204 307.604 126.015 277.51H125.972Z" fill="black"/>
<path d="M173.96 225.274C166.14 223.436 162.08 225.445 156.141 231.002C150.201 236.559 146.825 243.869 143.278 250.623C141.868 253.273 138.792 258.83 140.458 261.993C142.595 266.011 152.295 265.37 156.098 265.798C165.029 266.781 174.002 267.422 182.891 268.576C186.095 269.004 190.497 270.243 192.42 267.251C197.932 258.787 192.548 245.151 188.104 237.542C184.643 231.686 179.899 226.471 173.105 224.932" fill="#FFFF00"/>
<path d="M175.07 221.128C169.088 219.802 163.277 220.187 158.149 223.778C152.679 227.625 148.406 232.712 144.988 238.44C141.911 243.527 138.706 248.998 136.655 254.641C134.604 260.283 136.099 266.14 142.21 268.362C146.483 269.944 151.184 269.645 155.628 269.987C163.362 270.628 171.139 271.44 178.831 272.338C184.429 272.979 191.65 275.287 195.624 269.901C199.342 264.815 199.385 258.018 198.274 252.076C195.881 239.38 187.548 224.163 174.13 220.828C168.789 219.503 166.524 227.753 171.866 229.078C180.839 231.301 185.924 240.962 188.616 249.084C189.984 253.23 191.095 257.975 189.898 262.292C189.685 263.105 189.385 264.131 188.83 264.772C188.146 265.584 189.129 264.686 188.787 264.772C188.488 264.9 189.044 264.986 188.061 264.857C185.711 264.473 183.232 264.302 180.839 264.002C170.413 262.72 159.944 261.908 149.474 261.096C147.936 260.967 146.227 260.796 144.774 260.198C144.517 260.07 144.047 259.984 143.962 259.642C144.09 260.198 144.304 258.958 144.304 258.873C145.885 254.641 147.893 250.751 150.03 246.818C152.85 241.646 155.927 236.773 160.371 232.84C164.217 229.463 167.721 228.224 172.763 229.335C178.104 230.532 180.412 222.282 175.028 221.085L175.07 221.128Z" fill="black"/>
<path d="M166.524 236.73C166.524 237.371 166.524 238.055 166.439 238.696L166.61 237.542C166.268 239.893 165.584 242.159 165.584 244.553C165.584 245.664 166.054 246.775 166.823 247.588C167.592 248.4 168.789 248.87 169.857 248.827C170.925 248.785 172.122 248.4 172.891 247.588C173.66 246.775 174.13 245.707 174.13 244.553C174.13 243.997 174.13 243.441 174.258 242.886L174.088 244.04C174.429 241.603 175.199 239.209 175.113 236.73C175.07 235.619 174.686 234.507 173.874 233.695C173.147 232.968 171.908 232.413 170.84 232.455C169.772 232.498 168.575 232.883 167.806 233.695C167.037 234.507 166.524 235.576 166.567 236.73H166.524Z" fill="black"/>
<path d="M168.148 260.241C173.66 260.241 173.66 251.691 168.148 251.691C162.636 251.691 162.636 260.241 168.148 260.241Z" fill="black"/>
<path d="M124.861 279.647C123.793 284.05 121.613 288.239 121.784 292.856C121.913 295.806 123.109 298.755 125.887 300.08C128.365 301.277 131.185 301.534 133.92 301.491C136.655 301.448 139.262 301.149 141.868 300.593C144.047 300.123 145.543 297.43 144.859 295.335C144.133 293.027 141.954 291.83 139.603 292.343C139.262 292.429 138.92 292.471 138.535 292.557C138.321 292.557 138.108 292.642 137.937 292.642C137.809 292.642 137.723 292.642 137.595 292.685C136.954 292.771 138.663 292.557 138.151 292.599C137.125 292.728 136.099 292.813 135.031 292.856C133.963 292.899 132.937 292.899 131.912 292.856C131.655 292.856 131.399 292.856 131.143 292.813C130.117 292.728 132.04 292.984 131.399 292.813C130.929 292.728 130.459 292.642 130.032 292.514C129.818 292.471 129.091 292.129 129.903 292.514C130.715 292.899 130.032 292.557 129.861 292.471C129.775 292.471 129.732 292.386 129.647 292.343C129.433 292.258 130.245 292.813 130.245 292.813C130.245 292.813 130.117 292.685 130.074 292.642C129.732 292.343 130.032 292.215 130.416 293.112L130.16 292.642C130.202 292.642 130.544 293.754 130.459 293.283C130.459 293.198 130.416 293.112 130.373 293.027C130.331 292.856 130.288 292.685 130.288 292.514C130.202 292.044 130.416 293.668 130.373 293.198C130.373 293.07 130.373 292.941 130.373 292.813C130.373 292.343 130.373 291.916 130.416 291.445C130.502 290.462 130.288 292.258 130.416 291.659C130.459 291.36 130.502 291.103 130.544 290.804C130.758 289.735 131.014 288.667 131.356 287.641C131.912 285.717 132.681 283.794 133.151 281.87C133.664 279.69 132.467 277.125 130.16 276.612C127.852 276.099 125.459 277.254 124.904 279.605L124.861 279.647Z" fill="black"/>
<path d="M135.459 280.246C133.878 284.093 132.98 288.154 132.339 292.258C131.656 296.661 131.271 301.063 131.357 305.509C131.399 307.732 133.279 309.869 135.63 309.784C137.98 309.698 139.946 307.903 139.903 305.509C139.86 303.585 139.903 301.705 140.031 299.781C140.116 298.755 140.202 297.729 140.287 296.703C140.33 296.19 140.416 295.677 140.458 295.164C140.416 295.506 140.416 295.592 140.458 295.164C140.501 294.822 140.544 294.523 140.587 294.181C141.227 290.206 142.125 286.273 143.62 282.554C144.475 280.46 142.68 277.767 140.629 277.296C138.151 276.741 136.271 278.066 135.373 280.289L135.459 280.246Z" fill="black"/>
<path d="M167.08 286.487C165.413 283.965 162.55 282.811 159.559 283.623C157.465 284.178 155.585 285.589 154.175 287.256C150.97 291.061 149.047 296.831 152.081 301.32C155.115 305.808 161.525 307.946 166.439 305.081C170.37 302.773 172.336 298.37 172.806 294.01C173.062 291.787 172.592 289.394 171.524 287.427C170.84 286.23 169.857 285.204 168.704 284.478C167.422 283.666 166.054 283.366 164.601 283.195C163.576 283.067 162.251 283.751 161.568 284.435C160.841 285.162 160.286 286.401 160.328 287.47C160.371 288.539 160.756 289.736 161.568 290.505C162.465 291.317 163.405 291.616 164.601 291.745H164.687C164.302 291.745 163.918 291.659 163.533 291.616C163.918 291.659 164.302 291.745 164.687 291.916L163.661 291.488C164.003 291.616 164.302 291.787 164.601 292.044L163.747 291.36C164.003 291.574 164.217 291.787 164.431 292.044L163.747 291.189C164.003 291.531 164.217 291.873 164.388 292.258L163.96 291.232C164.174 291.787 164.302 292.343 164.388 292.899L164.217 291.745C164.345 292.6 164.302 293.497 164.217 294.352L164.388 293.198C164.26 294.181 164.003 295.122 163.619 296.062L164.046 295.036C163.704 295.848 163.277 296.618 162.764 297.302L163.448 296.447C163.02 296.96 162.593 297.473 162.038 297.857L162.892 297.173C162.465 297.515 161.995 297.772 161.482 297.986L162.508 297.558C162.08 297.729 161.61 297.857 161.14 297.943L162.294 297.772C161.781 297.815 161.268 297.815 160.798 297.772L161.952 297.943C161.354 297.857 160.756 297.686 160.2 297.43L161.226 297.857C160.542 297.558 159.944 297.216 159.345 296.789L160.2 297.473C159.773 297.131 159.388 296.746 159.046 296.318L159.73 297.173C159.474 296.789 159.217 296.404 159.046 296.019L159.474 297.045C159.303 296.618 159.175 296.147 159.089 295.677L159.26 296.831C159.175 296.276 159.217 295.72 159.26 295.164L159.089 296.318C159.217 295.549 159.431 294.822 159.73 294.096L159.303 295.122C159.645 294.309 160.115 293.497 160.67 292.77L159.986 293.625C160.499 292.942 161.097 292.343 161.781 291.787L160.927 292.471C161.397 292.129 161.867 291.83 162.422 291.574L161.397 292.001C161.738 291.873 162.08 291.787 162.422 291.702L161.268 291.873C161.268 291.873 161.696 291.873 161.909 291.873L160.756 291.702C160.756 291.702 161.14 291.787 161.354 291.873L160.328 291.445C160.328 291.445 160.585 291.574 160.713 291.659L159.858 290.975C159.858 290.975 160.157 291.232 160.286 291.36L159.602 290.505C159.602 290.505 159.687 290.633 159.773 290.719C161.012 292.6 163.619 293.54 165.627 292.258C167.464 291.061 168.49 288.41 167.165 286.401L167.08 286.487Z" fill="black"/>
<path d="M177.506 286.829C177.506 287.256 177.464 287.684 177.421 288.069C177.378 288.71 177.506 287.427 177.506 287.47C177.506 287.598 177.506 287.727 177.464 287.812C177.421 288.111 177.378 288.453 177.335 288.752C177.122 290.163 176.865 291.574 176.694 293.027C176.353 295.763 176.524 298.627 177.848 301.106C180.54 306.065 187.121 306.15 192.035 305.637C194.428 305.381 196.992 305.124 199.214 304.227C200.282 303.799 201.18 303.286 201.778 302.26C202.333 301.363 202.547 299.995 202.205 298.969C201.564 296.96 199.171 295.079 196.949 295.977C196.308 296.233 195.582 296.404 194.898 296.575C194.043 296.789 192.975 297.131 192.078 297.088C192.078 297.088 193.274 296.96 192.633 297.003C192.548 297.003 192.42 297.003 192.334 297.003C192.078 297.003 191.864 297.045 191.608 297.088C191.052 297.131 190.497 297.174 189.941 297.216C188.916 297.259 187.847 297.259 186.822 297.216C186.608 297.216 186.395 297.216 186.181 297.174C185.625 297.131 187.377 297.387 186.437 297.174C186.01 297.088 185.583 296.96 185.155 296.874C184.386 296.661 185.668 297.131 185.583 297.045C185.454 296.96 185.284 296.874 185.113 296.789C184.514 296.49 185.839 297.473 185.412 297.003C185.326 296.917 185.241 296.832 185.155 296.746C184.685 296.319 185.668 297.558 185.454 297.131C185.369 296.96 185.241 296.789 185.155 296.618C184.856 296.062 185.54 297.729 185.284 296.832C185.241 296.618 185.198 296.404 185.113 296.233C184.899 295.378 185.198 297.387 185.113 296.361C185.027 295.335 185.113 294.352 185.198 293.326C185.198 293.198 185.198 293.07 185.241 292.899C185.326 292.172 185.113 293.839 185.198 293.326C185.241 293.07 185.284 292.771 185.326 292.514C185.412 291.958 185.497 291.403 185.583 290.847C185.796 289.522 186.053 288.154 186.053 286.829C186.053 284.606 184.044 282.469 181.78 282.554C179.515 282.64 177.549 284.435 177.506 286.829Z" fill="black"/>
<path d="M187.163 287.726C187.121 296.147 185.241 304.397 184.771 312.776C184.642 314.999 186.822 317.136 189.044 317.05C191.479 316.922 193.189 315.17 193.317 312.776C193.83 304.397 195.667 296.147 195.71 287.726C195.71 285.504 193.744 283.366 191.437 283.452C189.129 283.537 187.163 285.333 187.163 287.726Z" fill="black"/>
<path d="M112.426 328.164C112.426 324.403 112.854 320.684 112.768 316.922L109.563 318.76C109.563 318.76 109.777 318.888 109.905 318.974C110.247 319.145 109.649 318.76 109.82 318.931C109.991 319.102 110.204 319.273 110.375 319.444C110.546 319.615 110.674 319.786 110.845 320C110.504 319.572 110.931 320.128 111.016 320.299C111.657 321.239 112.213 322.265 112.768 323.248C113.879 325.215 115.204 327.48 117.341 328.421C118.623 328.976 120.033 328.592 120.46 327.138C121.614 323.291 121.614 319.23 121.785 315.255C121.827 314.143 120.759 313.075 119.648 313.117C118.452 313.16 117.554 314.058 117.512 315.255C117.426 317.136 117.383 318.974 117.255 320.855C117.127 322.735 116.913 324.103 116.358 326.027L119.477 324.744C119.263 324.659 119.05 324.531 118.836 324.403C118.452 324.189 118.922 324.403 118.879 324.445L118.58 324.189C118.409 324.018 118.238 323.847 118.11 323.676C118.024 323.59 117.939 323.505 117.896 323.419C117.725 323.248 118.152 323.761 117.896 323.419C117.255 322.479 116.657 321.496 116.101 320.513C114.99 318.504 113.751 316.323 111.7 315.127C110.333 314.314 108.452 315.34 108.495 316.965C108.623 320.726 108.153 324.445 108.153 328.207C108.153 329.318 109.136 330.387 110.29 330.344C111.444 330.302 112.426 329.404 112.426 328.207V328.164Z" fill="black"/>
<path d="M128.408 319.402C127.254 319.274 125.972 319.573 125.032 320.257C123.921 321.069 123.237 322.095 122.767 323.377C121.998 325.429 122.212 328.037 123.323 329.918C124.69 332.311 127.51 333.337 130.117 332.525C132.724 331.713 134.39 328.892 134.305 326.113C134.305 324.617 133.749 323.078 132.681 321.967C131.399 320.642 129.604 320.385 127.852 320.684C126.741 320.898 126.015 322.266 126.357 323.335C126.741 324.532 127.81 325.045 129.006 324.831C129.519 324.745 128.579 324.831 128.878 324.831C129.006 324.831 129.092 324.831 129.22 324.831C129.348 324.831 129.433 324.831 129.562 324.831C128.835 324.831 129.177 324.788 129.433 324.831L129.69 324.916C129.69 324.959 129.134 324.66 129.391 324.788C129.391 324.788 129.476 324.831 129.519 324.874C129.604 324.916 129.69 324.959 129.732 325.002C129.946 325.13 129.262 324.574 129.604 324.916C129.647 325.002 129.732 325.045 129.775 325.13C130.032 325.387 129.476 324.66 129.647 324.959C129.732 325.13 129.818 325.301 129.946 325.472C129.604 324.916 129.775 325.087 129.861 325.301C129.861 325.387 129.903 325.472 129.946 325.6C129.989 325.729 129.989 325.771 130.032 325.899C130.032 325.942 130.032 325.985 130.032 326.028C130.117 326.37 129.989 325.429 130.032 325.771C130.032 325.985 130.032 326.156 130.032 326.37C130.032 326.455 130.032 326.583 130.032 326.669C130.032 326.712 130.032 326.754 130.032 326.84C130.032 327.139 130.117 326.284 130.032 326.541C130.032 326.754 129.946 326.925 129.903 327.139C129.903 327.225 129.861 327.353 129.818 327.438C129.818 327.481 129.818 327.524 129.775 327.567C129.647 327.909 129.903 327.31 129.903 327.31C129.903 327.438 129.69 327.738 129.604 327.866C129.562 327.951 129.476 328.037 129.433 328.122C129.262 328.379 129.647 327.823 129.647 327.866C129.647 327.866 129.519 327.994 129.519 328.037C129.348 328.251 128.792 328.55 129.476 328.165C129.305 328.293 129.134 328.379 128.921 328.507C128.878 328.507 129.519 328.293 129.092 328.422C129.006 328.422 128.878 328.464 128.792 328.507C128.664 328.507 128.579 328.507 128.451 328.593C128.194 328.635 129.006 328.55 128.75 328.593C128.664 328.593 128.621 328.593 128.536 328.593C128.322 328.593 128.109 328.593 127.895 328.593C127.425 328.593 128.408 328.678 128.109 328.593C127.98 328.593 127.895 328.55 127.767 328.507C127.681 328.507 127.596 328.464 127.51 328.422C127.211 328.336 128.066 328.721 127.724 328.507C127.639 328.464 127.553 328.422 127.51 328.379C127.425 328.336 127.083 328.08 127.468 328.379C127.553 328.422 127.852 328.678 127.468 328.379C127.425 328.336 127.34 328.251 127.297 328.208C127.254 328.165 127.169 328.08 127.126 327.994C126.955 327.823 127.468 328.464 127.34 328.293C127.34 328.251 127.254 328.208 127.254 328.165C127.169 328.037 127.083 327.866 126.998 327.695C126.998 327.609 126.912 327.524 126.869 327.438C127.211 328.122 126.998 327.78 126.955 327.567C126.912 327.396 126.827 327.225 126.784 327.054C126.784 326.968 126.784 326.883 126.741 326.797C126.741 326.669 126.656 326.284 126.741 326.754C126.741 326.84 126.827 327.225 126.741 326.754C126.741 326.669 126.741 326.583 126.741 326.455C126.741 326.241 126.741 326.071 126.741 325.857C126.741 325.771 126.741 325.686 126.741 325.558C126.741 325.13 126.656 326.07 126.741 325.771C126.741 325.558 126.827 325.344 126.869 325.173C126.912 325.002 126.998 324.788 127.04 324.574C127.126 324.318 126.912 324.916 126.912 324.916L126.998 324.745C127.04 324.66 127.083 324.574 127.126 324.489C127.169 324.403 127.211 324.318 127.297 324.232C127.425 324.019 127.681 323.805 127.169 324.361C127.297 324.232 127.425 324.061 127.553 323.933C127.553 323.933 127.639 323.89 127.639 323.848C127.852 323.634 127.169 324.19 127.425 324.019C127.51 323.976 127.596 323.933 127.681 323.89C127.767 323.848 127.852 323.805 127.938 323.762C127.297 324.104 127.553 323.933 127.767 323.848C127.852 323.848 127.938 323.805 128.066 323.762C128.408 323.677 127.425 323.762 127.852 323.762C128.109 323.762 128.322 323.762 128.579 323.762C129.092 323.805 129.732 323.463 130.074 323.121C130.459 322.736 130.715 322.138 130.715 321.625C130.715 321.112 130.502 320.513 130.074 320.129C129.647 319.701 129.177 319.573 128.579 319.488L128.408 319.402Z" fill="black"/>
<path d="M170.883 324.189C169.729 324.061 168.447 324.36 167.507 325.044C166.396 325.856 165.712 326.882 165.242 328.165C164.473 330.216 164.687 332.824 165.798 334.705C167.165 337.099 169.986 338.125 172.592 337.312C175.199 336.5 176.865 333.679 176.78 330.9C176.78 329.404 176.224 327.865 175.156 326.754C173.874 325.429 172.079 325.172 170.327 325.472C169.216 325.685 168.49 327.053 168.832 328.122C169.216 329.319 170.285 329.832 171.481 329.618C171.994 329.532 171.054 329.618 171.353 329.618C171.481 329.618 171.567 329.618 171.695 329.618C171.823 329.618 171.908 329.618 172.037 329.618C171.31 329.618 171.652 329.575 171.908 329.618L172.165 329.703C172.165 329.746 171.609 329.447 171.866 329.575C171.866 329.575 171.951 329.618 171.994 329.661C172.079 329.703 172.165 329.746 172.208 329.789C172.421 329.917 171.738 329.361 172.079 329.703C172.122 329.789 172.208 329.832 172.25 329.917C172.507 330.174 171.951 329.447 172.122 329.746C172.208 329.917 172.293 330.088 172.421 330.259C172.079 329.703 172.25 329.874 172.336 330.088C172.336 330.174 172.379 330.259 172.421 330.387C172.464 330.516 172.464 330.558 172.507 330.687C172.507 330.729 172.507 330.772 172.507 330.815C172.592 331.157 172.464 330.216 172.507 330.558C172.507 330.772 172.507 330.943 172.507 331.157C172.507 331.242 172.507 331.371 172.507 331.456C172.507 331.499 172.507 331.542 172.507 331.627C172.507 331.926 172.592 331.071 172.507 331.328C172.507 331.542 172.421 331.713 172.379 331.926C172.379 332.012 172.336 332.14 172.293 332.226C172.293 332.268 172.293 332.311 172.25 332.354C172.122 332.696 172.379 332.097 172.379 332.097C172.379 332.226 172.165 332.525 172.079 332.653C172.037 332.738 171.951 332.824 171.908 332.909C171.738 333.166 172.122 332.61 172.122 332.653C172.122 332.653 171.994 332.781 171.994 332.824C171.823 333.038 171.268 333.337 171.951 332.952C171.78 333.08 171.609 333.166 171.396 333.294C171.353 333.294 171.994 333.08 171.567 333.209C171.481 333.209 171.353 333.251 171.268 333.294C171.139 333.294 171.054 333.294 170.926 333.38C170.669 333.422 171.481 333.337 171.225 333.38C171.139 333.38 171.097 333.38 171.011 333.38C170.797 333.38 170.584 333.38 170.37 333.38C169.9 333.38 170.883 333.465 170.584 333.38C170.456 333.38 170.37 333.337 170.242 333.294C170.156 333.294 170.071 333.251 169.986 333.209C169.686 333.123 170.541 333.508 170.199 333.294C170.114 333.251 170.028 333.209 169.986 333.166C169.9 333.123 169.558 332.867 169.943 333.166C170.028 333.209 170.327 333.465 169.943 333.166C169.9 333.123 169.815 333.038 169.772 332.995C169.729 332.952 169.644 332.867 169.601 332.781C169.43 332.61 169.943 333.251 169.815 333.08C169.815 333.038 169.729 332.995 169.729 332.952C169.644 332.824 169.558 332.653 169.473 332.482C169.473 332.396 169.387 332.311 169.345 332.226C169.686 332.909 169.473 332.567 169.43 332.354C169.387 332.183 169.302 332.012 169.259 331.841C169.259 331.755 169.259 331.67 169.216 331.584C169.216 331.456 169.131 331.071 169.216 331.542C169.216 331.627 169.302 332.012 169.216 331.542C169.216 331.456 169.216 331.371 169.216 331.242C169.216 331.029 169.216 330.858 169.216 330.644C169.216 330.558 169.216 330.473 169.216 330.345C169.216 329.917 169.131 330.858 169.216 330.558C169.216 330.345 169.302 330.131 169.345 329.96C169.387 329.789 169.473 329.575 169.516 329.362C169.601 329.105 169.387 329.703 169.387 329.703L169.473 329.532C169.516 329.447 169.558 329.361 169.601 329.276C169.644 329.191 169.686 329.105 169.772 329.02C169.9 328.806 170.156 328.592 169.644 329.148C169.772 329.02 169.9 328.849 170.028 328.72C170.028 328.72 170.114 328.678 170.114 328.635C170.327 328.421 169.644 328.977 169.9 328.806C169.986 328.763 170.071 328.72 170.156 328.678C170.242 328.635 170.327 328.592 170.413 328.549C169.772 328.891 170.028 328.72 170.242 328.635C170.327 328.635 170.413 328.592 170.541 328.549C170.883 328.464 169.9 328.549 170.327 328.549C170.584 328.549 170.797 328.549 171.054 328.549C171.567 328.592 172.208 328.25 172.549 327.908C172.934 327.523 173.19 326.925 173.19 326.412C173.19 325.899 172.977 325.301 172.549 324.916C172.122 324.488 171.652 324.36 171.054 324.275L170.883 324.189Z" fill="black"/>
<path d="M154.602 319.701C154.602 323.933 154.303 328.165 154.303 332.354C154.303 333.465 155.286 334.534 156.44 334.491C157.594 334.449 158.576 333.551 158.576 332.354C158.576 328.122 158.875 323.89 158.875 319.701C158.875 318.59 157.893 317.521 156.739 317.564C155.585 317.606 154.602 318.504 154.602 319.701Z" fill="black"/>
<path d="M157.038 321.838C159.302 321.838 161.567 321.838 163.832 322.137L163.276 322.052H163.405C164.003 322.137 164.516 322.18 165.071 321.838C165.499 321.581 165.926 321.068 166.054 320.556C166.182 320 166.14 319.401 165.84 318.888C165.541 318.461 165.114 317.991 164.558 317.905C162.08 317.563 159.559 317.521 157.038 317.521C155.927 317.521 154.858 318.504 154.901 319.658C154.944 320.812 155.841 321.795 157.038 321.795V321.838Z" fill="black"/>
<path d="M158.747 328.806C158.747 328.806 158.833 328.763 158.876 328.72L158.363 328.934C158.619 328.848 158.876 328.763 159.132 328.72L158.576 328.806C159.175 328.72 159.773 328.806 160.371 328.848L159.816 328.763C160.884 328.891 161.995 329.148 163.106 329.062C163.661 329.019 164.217 328.848 164.602 328.421C164.986 328.036 165.243 327.438 165.243 326.925C165.243 326.412 165.029 325.813 164.602 325.429C164.174 325.044 163.661 324.745 163.106 324.788C162.55 324.83 161.995 324.787 161.482 324.702L162.038 324.788C161.183 324.659 160.328 324.488 159.431 324.488C158.448 324.488 157.465 324.659 156.568 325.087C156.098 325.3 155.713 325.899 155.585 326.369C155.457 326.882 155.5 327.566 155.799 328.036C156.098 328.506 156.525 328.891 157.081 329.019C157.679 329.148 158.192 329.062 158.747 328.806Z" fill="black"/>
<path d="M177.549 326.797C176.737 328.421 176.481 330.259 176.609 332.055C176.78 333.936 177.335 335.902 178.831 337.184C180.412 338.51 182.677 339.322 184.728 338.723C186.779 338.125 188.146 336.329 188.616 334.363C188.83 333.465 188.916 332.482 188.958 331.585C188.958 331.2 189.044 330.815 189.087 330.43C189.001 331.243 189.086 330.43 189.129 330.259C189.172 330.088 189.215 329.875 189.3 329.661C189.642 328.592 188.916 327.267 187.805 327.011C186.651 326.754 185.54 327.353 185.155 328.507C184.728 329.832 184.728 331.243 184.6 332.611C184.557 333.166 184.685 332.226 184.6 332.611C184.6 332.782 184.557 332.91 184.514 333.081C184.514 333.209 184.472 333.337 184.429 333.508C184.429 333.594 184.172 334.192 184.343 333.807C184.514 333.423 184.301 333.893 184.258 333.978C184.172 334.107 184.087 334.235 184.001 334.363C184.001 334.363 184.343 333.978 184.13 334.192C184.087 334.235 184.044 334.32 183.959 334.363C183.873 334.406 183.831 334.449 183.788 334.534C183.489 334.833 184.215 334.278 183.831 334.534C183.702 334.62 183.531 334.662 183.446 334.791C183.702 334.534 183.873 334.62 183.66 334.705C183.574 334.705 183.531 334.705 183.446 334.748C183.403 334.748 183.318 334.748 183.232 334.791C183.702 334.62 183.66 334.791 183.403 334.791C183.232 334.791 183.061 334.791 182.89 334.791C182.463 334.791 183.36 334.876 183.061 334.791C182.976 334.791 182.89 334.791 182.848 334.748C182.677 334.748 182.549 334.662 182.378 334.62C182.207 334.577 182.036 334.406 182.506 334.705C182.42 334.705 182.378 334.62 182.292 334.62C182.121 334.534 181.95 334.449 181.779 334.32C181.694 334.32 181.651 334.235 181.609 334.192C181.438 334.064 181.523 334.021 181.779 334.32C181.694 334.192 181.566 334.107 181.438 334.021C181.395 333.978 181.352 333.936 181.309 333.85C181.053 333.594 181.48 334.064 181.438 334.064C181.352 334.064 181.224 333.722 181.181 333.636C181.181 333.594 181.138 333.508 181.096 333.465C180.925 333.166 181.181 333.679 181.181 333.679C181.096 333.551 181.053 333.337 181.01 333.209C180.925 332.867 180.839 332.525 180.797 332.183C180.754 331.927 180.839 332.653 180.797 332.397C180.797 332.269 180.797 332.14 180.797 332.055C180.797 331.884 180.797 331.713 180.797 331.499C180.797 331.114 180.797 330.687 180.839 330.302C180.839 329.96 180.839 330.516 180.839 330.516C180.839 330.388 180.839 330.302 180.882 330.174C180.882 330.003 180.968 329.832 181.01 329.618C181.01 329.447 181.096 329.319 181.138 329.148C181.138 329.063 181.181 328.977 181.224 328.892C181.138 328.977 181.01 329.405 181.181 329.063C181.694 328.079 181.48 326.712 180.412 326.156C179.429 325.643 178.019 325.857 177.506 326.925L177.549 326.797Z" fill="black"/>
<path d="M192.548 339.022C193.146 337.654 193.445 336.201 193.83 334.747C193.915 334.405 194.044 334.106 194.129 333.764C194.129 333.679 194.214 333.593 194.257 333.465C194.257 333.465 194.001 333.978 194.172 333.679C194.257 333.508 194.343 333.337 194.428 333.166C194.514 333.038 194.599 332.909 194.684 332.781C194.813 332.525 194.514 332.995 194.514 332.995C194.599 332.952 194.642 332.867 194.684 332.781C194.77 332.696 194.984 332.567 195.026 332.482C195.026 332.482 194.556 332.781 194.813 332.653C194.898 332.61 194.984 332.525 195.069 332.482C195.155 332.482 195.197 332.439 195.283 332.396C194.813 332.738 194.855 332.525 195.026 332.525C195.197 332.525 195.368 332.439 195.496 332.396C194.984 332.567 195.112 332.396 195.368 332.396C195.454 332.396 195.539 332.396 195.582 332.396C195.71 332.396 195.796 332.396 195.924 332.396C196.308 332.396 195.368 332.268 195.753 332.396C195.924 332.396 196.052 332.482 196.223 332.525C195.796 332.268 196.736 332.653 196.223 332.525C196.351 332.61 196.479 332.696 196.607 332.781C196.778 332.909 196.607 332.952 196.394 332.61C196.436 332.696 196.565 332.781 196.65 332.824C196.736 332.909 196.821 333.038 196.949 333.123C197.206 333.38 196.65 332.653 196.864 332.995C196.864 333.038 196.949 333.08 196.992 333.166C197.206 333.465 197.334 333.807 197.505 334.149C197.163 333.508 197.462 334.063 197.505 334.234C197.548 334.405 197.633 334.576 197.676 334.747C197.761 335.132 197.847 335.474 197.932 335.859C197.932 335.944 197.932 336.03 197.975 336.115C198.018 336.5 197.975 336.158 197.975 335.987C197.975 336.201 198.018 336.415 198.06 336.628C198.06 337.013 198.103 337.44 198.103 337.825C198.103 338.21 198.103 338.595 198.103 338.979C198.103 339.15 198.103 339.364 198.06 339.535C198.06 339.706 197.975 339.877 198.06 339.236C198.06 339.321 198.06 339.45 198.018 339.578C197.804 340.689 198.317 341.929 199.513 342.228C200.539 342.485 201.949 341.929 202.162 340.732C202.504 338.894 202.462 337.098 202.162 335.26C201.863 333.422 201.222 331.627 200.026 330.216C198.616 328.592 196.394 327.951 194.3 328.421C192.206 328.891 190.881 330.686 190.112 332.61C189.813 333.422 189.599 334.277 189.386 335.089C189.3 335.517 189.172 335.944 189.044 336.329C189.001 336.5 188.958 336.671 188.873 336.885C188.788 337.098 188.531 337.782 188.873 337.013C188.617 337.569 188.488 338.039 188.659 338.68C188.788 339.193 189.172 339.706 189.642 339.962C190.582 340.433 192.078 340.304 192.548 339.193V339.022Z" fill="black"/>
<path d="M211.008 329.575C207.589 328.506 205.111 331.413 204.042 334.32C203.145 336.756 203.615 339.492 205.111 341.587C205.965 342.784 207.119 343.724 208.572 343.98C210.025 344.237 211.563 343.852 212.546 342.698C214.213 340.732 213.913 337.739 213.785 335.346C213.572 331.456 214.64 327.566 214.683 323.676C214.683 320.94 210.452 320.94 210.409 323.676C210.409 326.925 209.768 330.131 209.512 333.379C209.384 335.046 209.64 336.714 209.555 338.423C209.555 338.637 209.555 338.894 209.512 339.107C209.512 339.535 209.598 338.894 209.512 339.278C209.469 339.449 209.384 339.663 209.341 339.877C209.298 340.133 209.427 339.749 209.427 339.749C209.427 339.834 209.298 339.92 209.298 340.005C209.298 339.962 209.64 339.663 209.384 339.919C209.213 339.962 209.256 340.048 209.384 339.919C209.384 339.919 209.726 339.663 209.726 339.749C209.726 339.749 209.469 339.834 209.427 339.834C209.085 339.877 209.726 339.877 209.427 339.834C209.17 339.791 209.512 339.834 209.555 339.834C209.469 339.834 209.384 339.834 209.298 339.749C209.085 339.663 209.555 340.005 209.256 339.749C208.957 339.492 209.384 339.919 209.085 339.663C208.999 339.578 208.657 339.193 208.743 339.321C208.828 339.449 208.572 339.065 208.529 338.979C208.444 338.851 208.187 338.338 208.23 338.423C208.273 338.552 208.102 338.124 208.102 338.039C208.016 337.825 207.974 337.611 207.931 337.397C207.803 337.013 207.931 337.611 207.931 337.226C207.931 337.013 207.931 336.799 207.931 336.543C207.931 337.056 207.931 336.543 208.016 336.286C208.102 336.03 208.145 335.859 208.23 335.602C208.358 335.217 208.23 335.517 208.444 335.132C208.572 334.918 208.7 334.704 208.828 334.448C209.042 334.106 208.957 334.277 208.871 334.362C208.957 334.234 209.042 334.149 209.17 334.063C209.256 333.978 209.298 333.935 209.384 333.849C209.555 333.679 209.213 334.02 209.512 333.764C209.512 333.764 209.811 333.55 209.598 333.721C209.341 333.892 209.854 333.55 209.598 333.721C209.427 333.85 209.811 333.721 209.598 333.721C209.341 333.721 209.939 333.807 209.939 333.807C212.589 334.619 213.7 330.515 211.093 329.703L211.008 329.575Z" fill="black"/>
<path d="M135.886 323.377C139.006 323.847 141.869 325.386 145.116 325.258C146.227 325.215 147.295 324.318 147.253 323.121C147.21 322.009 146.313 320.941 145.116 320.983C144.774 320.983 144.39 320.983 144.048 320.983C143.962 320.983 143.834 320.983 143.749 320.983C143.492 320.983 143.535 320.983 143.877 320.983C143.749 320.983 143.578 320.941 143.407 320.898C142.68 320.77 141.954 320.556 141.228 320.342C139.817 319.958 138.45 319.487 137.04 319.231C136.442 319.145 135.929 319.145 135.373 319.445C134.946 319.701 134.519 320.214 134.391 320.727C134.177 321.753 134.69 323.164 135.886 323.377Z" fill="black"/>
<path d="M140.415 316.836C139.219 319.273 138.834 321.88 138.535 324.531C138.45 325.129 138.407 325.728 138.321 326.369C138.321 326.497 138.321 326.668 138.279 326.796C138.279 326.583 138.279 326.625 138.279 326.882C138.236 327.181 138.193 327.523 138.15 327.822C137.894 329.361 137.552 330.857 137.552 332.439C137.552 333.593 138.535 334.576 139.689 334.576C140.843 334.576 141.825 333.593 141.825 332.439C141.825 331.156 142.082 330.002 142.295 328.72C142.509 327.48 142.637 326.283 142.765 325.044C142.894 323.932 142.979 323.163 143.236 321.923C143.364 321.41 143.449 320.897 143.62 320.384C143.706 320.085 143.791 319.829 143.919 319.529C144.005 319.273 144.005 319.273 143.919 319.444C143.962 319.316 144.047 319.187 144.09 319.059C144.603 318.033 144.389 316.751 143.321 316.152C142.381 315.597 140.928 315.896 140.415 316.922V316.836Z" fill="black"/>
</g>
<defs>
<clipPath id="clip0_1265_16359">
<rect width="336.894" height="480" fill="white"/>
</clipPath>
</defs>
</svg>
