<svg width="165" height="52" viewBox="0 0 165 52" fill="none" xmlns="http://www.w3.org/2000/svg">
<g filter="url(#filter0_dii_472_5669)">
<rect x="2" y="2" width="157" height="44" rx="6" fill="#FFCE1B"/>
<path d="M25.87 22.31L22.54 25.64C19.83 28.35 19.83 32.75 22.54 35.47C25.25 38.19 29.65 38.18 32.37 35.47L35.7 32.14" stroke="black" stroke-width="2" stroke-miterlimit="10" stroke-linecap="round"/>
<path d="M42.13 25.69L45.46 22.36C48.17 19.65 48.17 15.25 45.46 12.53C42.75 9.81 38.35 9.82 35.63 12.53L32.3 15.86" stroke="black" stroke-width="2" stroke-miterlimit="10" stroke-linecap="round"/>
<path d="M29.5 28.5L38.5 19.5" stroke="black" stroke-width="2" stroke-miterlimit="10" stroke-linecap="round"/>
<path d="M60.2812 18.4531C60.9635 18.4583 61.5677 18.6615 62.0938 19.0625C62.625 19.4583 63.0391 20.0208 63.3359 20.75C63.638 21.4792 63.7917 22.3281 63.7969 23.2969C63.7917 24.2656 63.638 25.1146 63.3359 25.8438C63.0391 26.5729 62.625 27.1354 62.0938 27.5312C61.5625 27.9271 60.9583 28.125 60.2812 28.125C59.599 28.125 58.9922 27.9271 58.4609 27.5312C57.9297 27.1354 57.5156 26.5729 57.2188 25.8438C56.9271 25.1146 56.7812 24.2656 56.7812 23.2969C56.7812 22.3281 56.9271 21.4792 57.2188 20.75C57.5156 20.0208 57.9297 19.4583 58.4609 19.0625C58.9922 18.6615 59.599 18.4583 60.2812 18.4531ZM60.2812 19.5469C59.8229 19.5521 59.4167 19.7109 59.0625 20.0234C58.7083 20.3307 58.4323 20.7682 58.2344 21.3359C58.0365 21.8984 57.9375 22.5521 57.9375 23.2969C57.9375 24.0417 58.0365 24.6979 58.2344 25.2656C58.4323 25.8281 58.7083 26.263 59.0625 26.5703C59.4219 26.8776 59.8281 27.0312 60.2812 27.0312C60.7396 27.0312 61.1432 26.8776 61.4922 26.5703C61.8464 26.263 62.1198 25.8281 62.3125 25.2656C62.5104 24.6979 62.6094 24.0417 62.6094 23.2969C62.6094 22.5521 62.5104 21.8984 62.3125 21.3359C62.1198 20.7682 61.8464 20.3307 61.4922 20.0234C61.1432 19.7109 60.7396 19.5521 60.2812 19.5469ZM67.3125 22.9219H69.6406V23.9844H67.3125V31.2656H66.0938V17.375H67.3125V22.9219ZM82.6625 25.2344H69.9906V24.25H75.725V22.625H71.6V18.0312H81.0844V19.0156H72.8031V21.625H81.1781V22.625H76.9125V24.25H82.6625V25.2344ZM76.3188 26.25C77.3083 26.25 78.1599 26.349 78.8734 26.5469C79.5922 26.7396 80.1417 27.0234 80.5219 27.3984C80.9021 27.7734 81.0948 28.224 81.1 28.75C81.0948 29.2812 80.9021 29.7344 80.5219 30.1094C80.1417 30.4844 79.5948 30.7682 78.8813 30.9609C78.1677 31.1589 77.3135 31.2604 76.3188 31.2656C75.3188 31.2604 74.4594 31.1589 73.7406 30.9609C73.0219 30.7682 72.4724 30.4844 72.0922 30.1094C71.712 29.7344 71.5219 29.2812 71.5219 28.75C71.5219 28.224 71.712 27.7734 72.0922 27.3984C72.4724 27.0234 73.0219 26.7396 73.7406 26.5469C74.4594 26.349 75.3188 26.25 76.3188 26.25ZM76.3188 27.2188C75.5792 27.2188 74.9411 27.2812 74.4047 27.4062C73.8734 27.526 73.4672 27.7005 73.1859 27.9297C72.9047 28.1589 72.7667 28.4323 72.7719 28.75C72.7667 29.0729 72.9047 29.349 73.1859 29.5781C73.4672 29.8073 73.8734 29.9818 74.4047 30.1016C74.9411 30.2214 75.5792 30.2812 76.3188 30.2812C77.0531 30.2812 77.6859 30.2214 78.2172 30.1016C78.7484 29.9818 79.1547 29.8073 79.4359 29.5781C79.7224 29.3438 79.8656 29.0677 79.8656 28.75C79.8656 28.4323 79.7224 28.1589 79.4359 27.9297C79.1547 27.7005 78.7458 27.526 78.2094 27.4062C77.6781 27.2812 77.0479 27.2188 76.3188 27.2188ZM98.55 27.6562H97.3156V23.9062H93.7219C93.399 24.3177 92.9875 24.6406 92.4875 24.875C91.9927 25.1042 91.451 25.2188 90.8625 25.2188C90.175 25.2188 89.5578 25.0703 89.0109 24.7734C88.4641 24.4766 88.0344 24.0651 87.7219 23.5391C87.4094 23.013 87.2531 22.4167 87.2531 21.75C87.2531 21.0833 87.4094 20.487 87.7219 19.9609C88.0344 19.4297 88.4641 19.0156 89.0109 18.7188C89.5578 18.4219 90.175 18.2708 90.8625 18.2656C91.4458 18.2708 91.9823 18.388 92.4719 18.6172C92.9615 18.8411 93.3703 19.1562 93.6984 19.5625H97.3156V17.3906H98.55V27.6562ZM98.9406 30.9688H89.6281V26.5781H90.8625V29.9375H98.9406V30.9688ZM90.8625 19.3594C90.3937 19.3646 89.9745 19.4714 89.6047 19.6797C89.2349 19.8828 88.9458 20.1641 88.7375 20.5234C88.5292 20.8828 88.425 21.2917 88.425 21.75C88.425 22.2083 88.5292 22.6172 88.7375 22.9766C88.9458 23.3359 89.2349 23.6172 89.6047 23.8203C89.9745 24.0234 90.3937 24.125 90.8625 24.125C91.3104 24.125 91.7167 24.0234 92.0812 23.8203C92.451 23.6172 92.7401 23.3359 92.9484 22.9766C93.162 22.612 93.2687 22.2031 93.2687 21.75C93.2687 21.2969 93.162 20.8906 92.9484 20.5312C92.7401 20.1667 92.451 19.8828 92.0812 19.6797C91.7167 19.4714 91.3104 19.3646 90.8625 19.3594ZM94.2609 20.5781C94.3911 20.9531 94.4562 21.3438 94.4562 21.75C94.4562 22.1354 94.3937 22.5156 94.2687 22.8906H97.3156V20.5781H94.2609ZM111.978 24.4844H110.744V23.0312H107.041V22.0625H110.744V20.3906H107.236C106.809 21.474 106.074 22.388 105.033 23.1328C103.996 23.8724 102.697 24.4271 101.134 24.7969L100.697 23.7812C102.4 23.3854 103.733 22.7865 104.697 21.9844C105.66 21.1771 106.199 20.2135 106.314 19.0938H101.4V18.0781H107.666C107.666 18.5312 107.621 18.974 107.533 19.4062H110.744V17.375H111.978V24.4844ZM111.978 28.5H104.228V30.125H112.447V31.1406H103.009V27.5625H110.744V26.1094H102.978V25.1094H111.978V28.5ZM124.641 23.1094H126.969V24.125H124.641V31.2656H123.422V17.375H124.641V23.1094ZM122.078 20.625H113.812V19.6094H117.391V17.5469H118.609V19.6094H122.078V20.625ZM118.016 21.7812C118.667 21.7812 119.25 21.9167 119.766 22.1875C120.281 22.4583 120.685 22.8359 120.977 23.3203C121.268 23.8047 121.417 24.3542 121.422 24.9688C121.417 25.5833 121.268 26.1328 120.977 26.6172C120.685 27.1016 120.281 27.4792 119.766 27.75C119.25 28.0208 118.667 28.1562 118.016 28.1562C117.359 28.1562 116.771 28.0208 116.25 27.75C115.734 27.4792 115.331 27.1016 115.039 26.6172C114.747 26.1328 114.604 25.5833 114.609 24.9688C114.604 24.3542 114.747 23.8047 115.039 23.3203C115.331 22.8359 115.734 22.4583 116.25 22.1875C116.771 21.9167 117.359 21.7812 118.016 21.7812ZM118.016 22.8125C117.589 22.8125 117.203 22.9062 116.859 23.0938C116.521 23.276 116.255 23.5312 116.062 23.8594C115.87 24.1875 115.776 24.5573 115.781 24.9688C115.776 25.3854 115.87 25.7578 116.062 26.0859C116.255 26.4089 116.521 26.6615 116.859 26.8438C117.203 27.026 117.589 27.1146 118.016 27.1094C118.438 27.1146 118.818 27.026 119.156 26.8438C119.495 26.6615 119.76 26.4089 119.953 26.0859C120.146 25.7578 120.245 25.3854 120.25 24.9688C120.245 24.5573 120.146 24.1875 119.953 23.8594C119.76 23.5312 119.495 23.276 119.156 23.0938C118.818 22.9062 118.438 22.8125 118.016 22.8125ZM138.803 31.2656H137.569V17.375H138.803V31.2656ZM134.694 18.8906C134.683 20.9896 134.152 22.875 133.1 24.5469C132.048 26.2135 130.402 27.5833 128.162 28.6562L127.491 27.6562C129.345 26.776 130.764 25.6823 131.748 24.375C132.738 23.0677 133.303 21.5729 133.444 19.8906H128.131V18.8906H134.694Z" fill="#111111"/>
</g>
<defs>
<filter id="filter0_dii_472_5669" x="0" y="-2" width="165" height="54" filterUnits="userSpaceOnUse" color-interpolation-filters="sRGB">
<feFlood flood-opacity="0" result="BackgroundImageFix"/>
<feColorMatrix in="SourceAlpha" type="matrix" values="0 0 0 0 0 0 0 0 0 0 0 0 0 0 0 0 0 0 127 0" result="hardAlpha"/>
<feOffset dx="2" dy="2"/>
<feGaussianBlur stdDeviation="2"/>
<feComposite in2="hardAlpha" operator="out"/>
<feColorMatrix type="matrix" values="0 0 0 0 0 0 0 0 0 0 0 0 0 0 0 0 0 0 0.7 0"/>
<feBlend mode="multiply" in2="BackgroundImageFix" result="effect1_dropShadow_472_5669"/>
<feBlend mode="normal" in="SourceGraphic" in2="effect1_dropShadow_472_5669" result="shape"/>
<feColorMatrix in="SourceAlpha" type="matrix" values="0 0 0 0 0 0 0 0 0 0 0 0 0 0 0 0 0 0 127 0" result="hardAlpha"/>
<feOffset dy="4"/>
<feGaussianBlur stdDeviation="2"/>
<feComposite in2="hardAlpha" operator="arithmetic" k2="-1" k3="1"/>
<feColorMatrix type="matrix" values="0 0 0 0 1 0 0 0 0 1 0 0 0 0 1 0 0 0 0.2 0"/>
<feBlend mode="normal" in2="shape" result="effect2_innerShadow_472_5669"/>
<feColorMatrix in="SourceAlpha" type="matrix" values="0 0 0 0 0 0 0 0 0 0 0 0 0 0 0 0 0 0 127 0" result="hardAlpha"/>
<feOffset dy="-4"/>
<feGaussianBlur stdDeviation="2"/>
<feComposite in2="hardAlpha" operator="arithmetic" k2="-1" k3="1"/>
<feColorMatrix type="matrix" values="0 0 0 0 0 0 0 0 0 0 0 0 0 0 0 0 0 0 0.2 0"/>
<feBlend mode="normal" in2="effect2_innerShadow_472_5669" result="effect3_innerShadow_472_5669"/>
</filter>
</defs>
</svg>
