<svg width="36" height="36" viewBox="0 0 36 36" fill="none" xmlns="http://www.w3.org/2000/svg">
<g clip-path="url(#clip0_206_561)">
<path d="M25 27V31H11V27H25ZM27 25H9V31C9 32.1 9.67 33 10.5 33H25.5C26.33 33 27 32.1 27 31V25Z" fill="#111111"/>
<path d="M25 5V10.5H11V5H25ZM25.5 3H10.5C9.67 3 9 3.85 9 4.9V12.5H27V4.9C27 3.85 26.33 3 25.5 3Z" fill="#111111"/>
<path d="M30 12.5C30.55 12.5 31 12.95 31 13.5V24C31 24.55 30.55 25 30 25H6C5.45 25 5 24.55 5 24V13.5C5 12.95 5.45 12.5 6 12.5H30ZM30 10.5H6C4.34 10.5 3 11.84 3 13.5V24C3 25.66 4.34 27 6 27H30C31.66 27 33 25.66 33 24V13.5C33 11.84 31.66 10.5 30 10.5Z" fill="#111111"/>
<path d="M13.5 29.25H22.5" stroke="#111111" stroke-width="2" stroke-linecap="round" stroke-linejoin="round"/>
<path d="M22.5 15H27" stroke="#111111" stroke-width="2" stroke-linecap="round" stroke-linejoin="round"/>
</g>
<defs>
<clipPath id="clip0_206_561">
<rect width="30" height="30" fill="white" transform="translate(3 3)"/>
</clipPath>
</defs>
</svg>
