<svg width="220" height="220" viewBox="0 0 220 220" fill="none" xmlns="http://www.w3.org/2000/svg">
<mask id="mask0_1260_23179" style="mask-type:luminance" maskUnits="userSpaceOnUse" x="0" y="0" width="220" height="220">
<path d="M110 220C170.751 220 220 170.751 220 110C220 49.2487 170.751 0 110 0C49.2487 0 0 49.2487 0 110C0 170.751 49.2487 220 110 220Z" fill="white"/>
</mask>
<g mask="url(#mask0_1260_23179)">
<mask id="mask1_1260_23179" style="mask-type:luminance" maskUnits="userSpaceOnUse" x="0" y="0" width="220" height="220">
<path d="M110 220C170.751 220 220 170.751 220 110C220 49.2487 170.751 0 110 0C49.2487 0 0 49.2487 0 110C0 170.751 49.2487 220 110 220Z" fill="white"/>
</mask>
<g mask="url(#mask1_1260_23179)">
<path d="M110 220C170.751 220 220 170.751 220 110C220 49.2487 170.751 0 110 0C49.2487 0 0 49.2487 0 110C0 170.751 49.2487 220 110 220Z" fill="white"/>
<path d="M140.602 92.7517H74.4029C68.4966 92.7517 63.7085 97.5398 63.7085 103.446V133.956C63.7085 139.862 68.4966 144.65 74.4029 144.65H140.602C146.508 144.65 151.296 139.862 151.296 133.956V103.446C151.296 97.5398 146.508 92.7517 140.602 92.7517Z" fill="black"/>
<path d="M82.6369 107.097C82.6369 99.9505 76.8433 94.157 69.6966 94.157C62.5499 94.157 56.7563 99.9505 56.7563 107.097V110.84C56.7563 117.987 62.5499 123.781 69.6966 123.781C76.8433 123.781 82.6369 117.987 82.6369 110.84V107.097Z" fill="#FFE8D9"/>
<path d="M136.461 110.856C136.461 118.003 142.254 123.796 149.401 123.796C156.548 123.796 162.341 118.003 162.341 110.856V107.113C162.341 99.9661 156.548 94.1725 149.401 94.1725C142.254 94.1725 136.461 99.9661 136.461 107.113V110.856Z" fill="#FFE8D9"/>
<path d="M110 131.71C141.35 131.71 166.803 157.163 166.803 188.513V209.306C166.803 215.203 162.005 220 156.108 220H63.9068C58.0096 220 53.2124 215.203 53.2124 209.306V188.513C53.2124 157.163 78.6652 131.71 110.015 131.71H110Z" fill="#F7D4FF"/>
<path d="M114.705 124.086H105.279C96.1495 124.086 88.7485 131.487 88.7485 140.617V140.632C88.7485 149.762 96.1495 157.163 105.279 157.163H114.705C123.835 157.163 131.236 149.762 131.236 140.632V140.617C131.236 131.487 123.835 124.086 114.705 124.086Z" fill="#FFDDCA"/>
<path d="M127.278 117.685C127.278 107.984 135.131 100.131 144.833 100.131C147.369 100.131 149.783 100.681 151.967 101.659C151.417 79.0322 132.763 60.6836 109.999 60.6836C87.159 60.6836 68.4438 79.1544 68.0312 101.903C70.3382 100.788 72.9201 100.131 75.6701 100.131C85.3715 100.131 93.2243 107.984 93.2243 117.685C93.2243 125.095 88.6257 131.42 82.1326 134.002C89.5576 140.617 99.3354 144.666 109.999 144.666C120.74 144.666 130.578 140.571 138.019 133.879C131.709 131.221 127.278 124.972 127.278 117.7V117.685Z" fill="#FFE8D9"/>
<path d="M93.2252 117.685C93.2252 107.983 85.3724 100.131 75.671 100.131C72.9363 100.131 70.3391 100.772 68.0321 101.903C68.0321 102.163 68.0168 102.422 68.0168 102.682C68.0168 115.103 73.4863 126.301 82.1335 134.001C88.6266 131.42 93.2252 125.095 93.2252 117.685Z" fill="#FFD8C7"/>
<path d="M151.983 102.667C151.983 102.331 151.968 101.995 151.953 101.643C149.768 100.665 147.369 100.115 144.818 100.115C135.116 100.115 127.264 107.968 127.264 117.67C127.264 124.942 131.694 131.19 138.004 133.849C146.56 126.149 151.968 114.996 151.968 102.652L151.983 102.667Z" fill="#FFD8C7"/>
<path d="M105.341 105.188C105.341 105.89 105.096 106.502 104.623 107.021C104.149 107.54 103.523 107.8 102.743 107.8C101.796 107.8 101.032 107.495 100.482 106.899C99.9322 106.303 99.6572 105.463 99.6572 104.378C99.6572 103.904 99.7183 103.415 99.8253 102.896C99.9475 102.392 100.131 101.903 100.391 101.429C100.65 100.956 101.002 100.528 101.445 100.115C101.888 99.7182 102.423 99.3821 103.079 99.1223C103.171 99.0918 103.309 99.046 103.446 99.0154C103.599 98.9696 103.752 98.9543 103.92 98.9696C104.088 98.9696 104.241 99.0154 104.393 99.0918C104.546 99.1682 104.684 99.3057 104.775 99.5043C104.852 99.7029 104.882 99.871 104.867 100.008C104.836 100.146 104.791 100.268 104.714 100.36C104.638 100.452 104.531 100.543 104.424 100.635C104.317 100.711 104.225 100.788 104.164 100.864C103.782 101.215 103.507 101.49 103.339 101.704C103.171 101.918 103.018 102.178 102.881 102.499C103.095 102.529 103.339 102.59 103.614 102.667C103.889 102.743 104.164 102.896 104.409 103.079C104.668 103.278 104.882 103.553 105.05 103.889C105.218 104.24 105.31 104.668 105.31 105.203L105.341 105.188Z" fill="black"/>
<path d="M120.067 105.188C120.067 105.89 119.823 106.502 119.349 107.021C118.875 107.54 118.249 107.8 117.47 107.8C116.523 107.8 115.759 107.495 115.209 106.899C114.659 106.303 114.384 105.463 114.384 104.378C114.384 103.904 114.445 103.415 114.552 102.896C114.674 102.392 114.857 101.903 115.117 101.429C115.377 100.956 115.728 100.528 116.171 100.115C116.614 99.7182 117.149 99.3821 117.806 99.1223C117.898 99.0918 118.035 99.046 118.173 99.0154C118.325 98.9696 118.478 98.9543 118.646 98.9696C118.814 98.9696 118.967 99.0154 119.12 99.0918C119.273 99.1682 119.41 99.3057 119.502 99.5043C119.578 99.7029 119.609 99.871 119.594 100.008C119.563 100.146 119.517 100.268 119.441 100.36C119.364 100.452 119.257 100.543 119.15 100.635C119.044 100.711 118.952 100.788 118.891 100.864C118.509 101.215 118.234 101.49 118.066 101.704C117.898 101.918 117.745 102.178 117.607 102.499C117.821 102.529 118.066 102.59 118.341 102.667C118.616 102.743 118.891 102.896 119.135 103.079C119.395 103.278 119.609 103.553 119.777 103.889C119.945 104.24 120.037 104.668 120.037 105.203L120.067 105.188Z" fill="black"/>
<path d="M109.664 117.685C107.097 117.685 104.271 116.982 101.277 115.118C101.185 115.057 101.124 115.027 101.078 114.996C100.788 114.889 100.574 114.614 100.574 114.278C100.574 113.85 100.91 113.514 101.338 113.514C101.582 113.514 101.75 113.606 102.086 113.82C108.472 117.807 114.064 115.913 117.639 113.636C117.99 113.407 118.464 113.514 118.693 113.866C118.922 114.217 118.815 114.691 118.464 114.92C116.188 116.371 113.163 117.685 109.664 117.685Z" fill="black"/>
<path d="M108.182 48.9653C84.1043 48.9653 64.396 68.6737 64.396 92.7514H119.656C120.45 86.457 121.703 76.3278 121.703 76.3278L127.768 92.7514H151.984C151.984 68.6737 132.275 48.9653 108.197 48.9653H108.182Z" fill="black"/>
<path d="M109.999 112.002C111.374 112.002 112.489 110.887 112.489 109.512C112.489 108.136 111.374 107.021 109.999 107.021C108.624 107.021 107.509 108.136 107.509 109.512C107.509 110.887 108.624 112.002 109.999 112.002Z" fill="#FFD2BB"/>
</g>
</g>
</svg>
