<svg width="57" height="57" viewBox="0 0 57 57" fill="none" xmlns="http://www.w3.org/2000/svg">
<path d="M28.7252 19.7917C33.4866 19.7917 37.368 23.7025 37.368 28.5C37.368 33.2975 33.4866 37.2083 28.7252 37.2083C23.9637 37.2083 20.0823 33.2975 20.0823 28.5C20.0823 23.7025 23.9637 19.7917 28.7252 19.7917ZM28.7252 16.625C22.2195 16.625 16.9395 21.945 16.9395 28.5C16.9395 35.055 22.2195 40.375 28.7252 40.375C35.2309 40.375 40.5109 35.055 40.5109 28.5C40.5109 21.945 35.2309 16.625 28.7252 16.625Z" fill="black"/>
<path d="M31.6483 7.91667C32.1983 7.91667 32.654 8.37583 32.654 8.93C32.654 12.9833 35.9226 16.2767 39.9455 16.2767C41.2183 16.2767 42.4755 15.9283 43.5755 15.2792C43.7326 15.1842 43.9055 15.1367 44.0783 15.1367C44.4398 15.1367 44.7698 15.3267 44.9426 15.6433L47.8655 20.7575C48.0383 21.0742 48.0069 21.375 47.9598 21.5175C47.9126 21.6758 47.8026 21.945 47.4883 22.135C45.2098 23.465 43.8426 25.84 43.8426 28.5C43.8426 31.16 45.2098 33.535 47.4883 34.865C47.8026 35.0392 47.9126 35.3242 47.9598 35.4825C48.0069 35.6408 48.0383 35.9258 47.8655 36.2425L44.9426 41.3567C44.754 41.6733 44.4398 41.8633 44.0783 41.8633C43.9055 41.8633 43.7326 41.8158 43.5755 41.7208C42.4598 41.0717 41.2026 40.7233 39.9455 40.7233C35.9226 40.7233 32.654 44.0167 32.654 48.07C32.654 48.6242 32.1983 49.0833 31.6483 49.0833H25.8026C25.2526 49.0833 24.7969 48.6242 24.7969 48.07C24.7969 44.0167 21.5283 40.7233 17.5055 40.7233C16.2326 40.7233 14.9755 41.0717 13.8755 41.7208C13.7183 41.8158 13.5455 41.8633 13.3726 41.8633C13.0112 41.8633 12.6812 41.6733 12.5083 41.3567L9.58547 36.2425C9.41261 35.9258 9.44404 35.625 9.49118 35.4825C9.53833 35.3242 9.64833 35.055 9.96261 34.865C12.2412 33.535 13.6083 31.16 13.6083 28.5C13.6083 25.84 12.2412 23.465 9.96261 22.135C9.64833 21.9608 9.53833 21.6758 9.49118 21.5175C9.44404 21.3592 9.41261 21.0742 9.58547 20.7575L12.5083 15.6433C12.6969 15.3267 13.0112 15.1367 13.3726 15.1367C13.5455 15.1367 13.7183 15.1842 13.8755 15.2792C14.9912 15.9283 16.2483 16.2767 17.5055 16.2767C21.5283 16.2767 24.7969 12.9833 24.7969 8.93C24.7969 8.37583 25.2526 7.91667 25.8026 7.91667H31.6483ZM31.6483 4.75H25.8026C23.5083 4.75 21.654 6.61833 21.654 8.93C21.654 11.3683 19.674 13.11 17.5055 13.11C16.814 13.11 16.1069 12.9358 15.4469 12.54C14.7869 12.16 14.0798 11.9858 13.3726 11.9858C11.9426 11.9858 10.544 12.73 9.77404 14.0758L6.85118 19.19C5.70404 21.185 6.37976 23.7342 8.37547 24.89C11.1412 26.505 11.1412 30.5108 8.37547 32.1258C6.39547 33.2817 5.71976 35.8308 6.85118 37.8258L9.77404 42.94C10.544 44.2858 11.9426 45.03 13.3726 45.03C14.0798 45.03 14.7869 44.8558 15.4469 44.4758C16.1069 44.08 16.8298 43.9058 17.5055 43.9058C19.674 43.9058 21.654 45.6475 21.654 48.0858C21.654 50.3975 23.5083 52.2658 25.8026 52.2658H31.6483C33.9426 52.2658 35.7969 50.3975 35.7969 48.0858C35.7969 45.6475 37.7769 43.9058 39.9455 43.9058C40.6369 43.9058 41.344 44.08 42.004 44.4758C42.664 44.8558 43.3712 45.03 44.0783 45.03C45.5083 45.03 46.9069 44.2858 47.6769 42.94L50.5998 37.8258C51.7469 35.8308 51.0712 33.2817 49.0755 32.1258C46.3098 30.5108 46.3098 26.505 49.0755 24.89C51.0555 23.7342 51.7312 21.185 50.5998 19.19L47.6769 14.0758C46.9069 12.73 45.5083 11.9858 44.0783 11.9858C43.3712 11.9858 42.664 12.16 42.004 12.54C41.344 12.9358 40.6212 13.11 39.9455 13.11C37.7769 13.11 35.7969 11.3683 35.7969 8.93C35.7969 6.61833 33.9426 4.75 31.6483 4.75Z" fill="black"/>
</svg>
