<svg width="48" height="48" viewBox="0 0 48 48" fill="none" xmlns="http://www.w3.org/2000/svg">
<mask id="mask0_1427_2078" style="mask-type:luminance" maskUnits="userSpaceOnUse" x="0" y="0" width="48" height="48">
<path d="M24 48C37.2548 48 48 37.2548 48 24C48 10.7452 37.2548 0 24 0C10.7452 0 0 10.7452 0 24C0 37.2548 10.7452 48 24 48Z" fill="white"/>
</mask>
<g mask="url(#mask0_1427_2078)">
<mask id="mask1_1427_2078" style="mask-type:luminance" maskUnits="userSpaceOnUse" x="0" y="0" width="48" height="48">
<path d="M24 48C37.2548 48 48 37.2548 48 24C48 10.7452 37.2548 0 24 0C10.7452 0 0 10.7452 0 24C0 37.2548 10.7452 48 24 48Z" fill="white"/>
</mask>
<g mask="url(#mask1_1427_2078)">
<path d="M24 48C37.2548 48 48 37.2548 48 24C48 10.7452 37.2548 0 24 0C10.7452 0 0 10.7452 0 24C0 37.2548 10.7452 48 24 48Z" fill="white"/>
<path d="M30.8265 20.2363H16.3831C15.0945 20.2363 14.0498 21.281 14.0498 22.5697V41.0497C14.0498 42.3383 15.0945 43.383 16.3831 43.383H30.8265C32.1151 43.383 33.1598 42.3383 33.1598 41.0497V22.5697C33.1598 21.281 32.1151 20.2363 30.8265 20.2363Z" fill="black"/>
<path d="M18.03 23.3663C18.03 21.807 16.7659 20.543 15.2066 20.543C13.6473 20.543 12.3833 21.807 12.3833 23.3663V24.183C12.3833 25.7423 13.6473 27.0063 15.2066 27.0063C16.7659 27.0063 18.03 25.7423 18.03 24.183V23.3663Z" fill="#FFE8D9"/>
<path d="M29.7767 24.1864C29.7767 25.7457 31.0407 27.0098 32.6 27.0098C34.1593 27.0098 35.4233 25.7457 35.4233 24.1864V23.3698C35.4233 21.8105 34.1593 20.5464 32.6 20.5464C31.0407 20.5464 29.7767 21.8105 29.7767 23.3698V24.1864Z" fill="#FFE8D9"/>
<path d="M23.9999 28.7363C30.8399 28.7363 36.3932 34.2897 36.3932 41.1297V45.6663C36.3932 46.953 35.3465 47.9997 34.0599 47.9997H13.9432C12.6565 47.9997 11.6099 46.953 11.6099 45.6663V41.1297C11.6099 34.2897 17.1632 28.7363 24.0032 28.7363H23.9999Z" fill="#FF6839"/>
<path d="M25.0266 27.0732H22.9699C20.978 27.0732 19.3633 28.688 19.3633 30.6799V30.6832C19.3633 32.6752 20.978 34.2899 22.9699 34.2899H25.0266C27.0185 34.2899 28.6333 32.6752 28.6333 30.6832V30.6799C28.6333 28.688 27.0185 27.0732 25.0266 27.0732Z" fill="#FFDDCA"/>
<path d="M27.7699 25.6764C27.7699 23.5597 29.4833 21.8464 31.5999 21.8464C32.1533 21.8464 32.6799 21.9664 33.1566 22.1797C33.0366 17.2431 28.9666 13.2397 23.9999 13.2397C19.0166 13.2397 14.9333 17.2697 14.8433 22.2331C15.3466 21.9897 15.9099 21.8464 16.5099 21.8464C18.6266 21.8464 20.3399 23.5597 20.3399 25.6764C20.3399 27.2931 19.3366 28.6731 17.9199 29.2364C19.5399 30.6798 21.6733 31.5631 23.9999 31.5631C26.3433 31.5631 28.4899 30.6697 30.1133 29.2097C28.7366 28.6297 27.7699 27.2664 27.7699 25.6797V25.6764Z" fill="#FFE8D9"/>
<path d="M20.3398 25.6767C20.3398 23.56 18.6265 21.8467 16.5098 21.8467C15.9132 21.8467 15.3465 21.9867 14.8432 22.2333C14.8432 22.29 14.8398 22.3467 14.8398 22.4034C14.8398 25.1134 16.0332 27.5567 17.9198 29.2367C19.3365 28.6734 20.3398 27.2933 20.3398 25.6767Z" fill="#FFD8C7"/>
<path d="M33.1599 22.3999C33.1599 22.3266 33.1566 22.2533 33.1533 22.1766C32.6766 21.9633 32.1533 21.8433 31.5966 21.8433C29.4799 21.8433 27.7666 23.5566 27.7666 25.6733C27.7666 27.2599 28.7333 28.6233 30.1099 29.2033C31.9766 27.5233 33.1566 25.0899 33.1566 22.3966L33.1599 22.3999Z" fill="#FFD8C7"/>
<path d="M22.9832 22.9497C22.9832 23.103 22.9298 23.2364 22.8265 23.3497C22.7232 23.4631 22.5865 23.5197 22.4165 23.5197C22.2098 23.5197 22.0432 23.453 21.9232 23.323C21.8032 23.193 21.7432 23.0097 21.7432 22.773C21.7432 22.6697 21.7565 22.563 21.7798 22.4497C21.8065 22.3397 21.8465 22.2331 21.9032 22.1297C21.9598 22.0264 22.0365 21.933 22.1332 21.843C22.2298 21.7564 22.3465 21.683 22.4898 21.6264C22.5098 21.6197 22.5398 21.6097 22.5698 21.603C22.6032 21.593 22.6365 21.5897 22.6732 21.593C22.7098 21.593 22.7432 21.6031 22.7765 21.6197C22.8098 21.6364 22.8398 21.6664 22.8598 21.7097C22.8765 21.753 22.8832 21.7897 22.8798 21.8197C22.8732 21.8497 22.8632 21.8764 22.8465 21.8964C22.8298 21.9164 22.8065 21.9364 22.7832 21.9564C22.7598 21.9731 22.7398 21.9897 22.7265 22.0064C22.6432 22.0831 22.5832 22.143 22.5465 22.1897C22.5098 22.2364 22.4765 22.293 22.4465 22.363C22.4932 22.3697 22.5465 22.3831 22.6065 22.3997C22.6665 22.4164 22.7265 22.4497 22.7798 22.4897C22.8365 22.533 22.8832 22.593 22.9198 22.6664C22.9565 22.743 22.9765 22.8364 22.9765 22.9531L22.9832 22.9497Z" fill="black"/>
<path d="M26.2 22.9497C26.2 23.103 26.1466 23.2364 26.0433 23.3497C25.94 23.4631 25.8033 23.5197 25.6333 23.5197C25.4266 23.5197 25.26 23.453 25.14 23.323C25.02 23.193 24.96 23.0097 24.96 22.773C24.96 22.6697 24.9733 22.563 24.9966 22.4497C25.0233 22.3397 25.0633 22.2331 25.12 22.1297C25.1766 22.0264 25.2533 21.933 25.35 21.843C25.4466 21.7564 25.5633 21.683 25.7066 21.6264C25.7266 21.6197 25.7566 21.6097 25.7866 21.603C25.82 21.593 25.8533 21.5897 25.89 21.593C25.9266 21.593 25.96 21.6031 25.9933 21.6197C26.0266 21.6364 26.0566 21.6664 26.0766 21.7097C26.0933 21.753 26.1 21.7897 26.0966 21.8197C26.09 21.8497 26.08 21.8764 26.0633 21.8964C26.0466 21.9164 26.0233 21.9364 26 21.9564C25.9766 21.9731 25.9566 21.9897 25.9433 22.0064C25.86 22.0831 25.8 22.143 25.7633 22.1897C25.7266 22.2364 25.6933 22.293 25.6633 22.363C25.71 22.3697 25.7633 22.3831 25.8233 22.3997C25.8833 22.4164 25.9433 22.4497 25.9966 22.4897C26.0533 22.533 26.1 22.593 26.1366 22.6664C26.1733 22.743 26.1933 22.8364 26.1933 22.9531L26.2 22.9497Z" fill="black"/>
<path d="M23.9267 25.6766C23.3667 25.6766 22.75 25.5233 22.0967 25.1166C22.0767 25.1033 22.0634 25.0966 22.0534 25.0899C21.99 25.0666 21.9434 25.0066 21.9434 24.9333C21.9434 24.8399 22.0167 24.7666 22.11 24.7666C22.1634 24.7666 22.2 24.7866 22.2734 24.8333C23.6667 25.7033 24.8867 25.2899 25.6667 24.7933C25.7434 24.7433 25.8467 24.7666 25.8967 24.8433C25.9467 24.9199 25.9234 25.0233 25.8467 25.0733C25.35 25.3899 24.69 25.6766 23.9267 25.6766Z" fill="black"/>
<path d="M23.6066 10.6831C18.3532 10.6831 14.0532 14.9831 14.0532 20.2364H26.1099C26.2832 18.8631 26.5566 16.6531 26.5566 16.6531L27.8799 20.2364H33.1632C33.1632 14.9831 28.8632 10.6831 23.6099 10.6831H23.6066Z" fill="black"/>
<path d="M23.9999 24.4363C24.2999 24.4363 24.5432 24.193 24.5432 23.8929C24.5432 23.5929 24.2999 23.3496 23.9999 23.3496C23.6998 23.3496 23.4565 23.5929 23.4565 23.8929C23.4565 24.193 23.6998 24.4363 23.9999 24.4363Z" fill="#FFD2BB"/>
</g>
</g>
</svg>
