<svg width="57" height="57" viewBox="0 0 57 57" fill="none" xmlns="http://www.w3.org/2000/svg">
<path d="M15.7141 27.1858V46.9775H10.2141V27.1858H15.7141ZM16.4999 24.0192H9.42843C8.12415 24.0192 7.07129 25.08 7.07129 26.3942V47.7692C7.07129 49.0833 8.12415 50.1442 9.42843 50.1442H16.4999C17.8041 50.1442 18.857 49.0833 18.857 47.7692V26.3942C18.857 25.08 17.8041 24.0192 16.4999 24.0192Z" fill="black"/>
<path d="M31.0354 12.6667V46.7083H25.5354V12.6667H31.0354ZM31.8211 9.5H24.7497C23.4454 9.5 22.3926 10.5608 22.3926 11.875V47.5C22.3926 48.8142 23.4454 49.875 24.7497 49.875H31.8211C33.1254 49.875 34.1783 48.8142 34.1783 47.5V11.875C34.1783 10.5608 33.1254 9.5 31.8211 9.5Z" fill="black"/>
<path d="M46.3567 19.7917V46.7083H40.8567V19.7917H46.3567ZM47.1424 16.625H40.071C38.7667 16.625 37.7139 17.6858 37.7139 19V47.5C37.7139 48.8142 38.7667 49.875 40.071 49.875H47.1424C48.4467 49.875 49.4996 48.8142 49.4996 47.5V19C49.4996 17.6858 48.4467 16.625 47.1424 16.625Z" fill="black"/>
</svg>
