<svg width="165" height="52" viewBox="0 0 165 52" fill="none" xmlns="http://www.w3.org/2000/svg">
<g filter="url(#filter0_dii_247_1630)">
<rect x="2" y="2" width="157" height="44" rx="6" fill="#FFCE1B"/>
<path d="M33.5 10V37" stroke="black" stroke-width="2" stroke-miterlimit="10" stroke-linecap="round"/>
<path d="M20 23.5H47" stroke="black" stroke-width="2" stroke-miterlimit="10" stroke-linecap="round"/>
<path d="M68.0156 17.375V31.2969H66.7812V17.375H68.0156ZM60.625 18.4531C62.6875 18.4688 64.1719 20.3438 64.1719 23.2969C64.1719 26.25 62.6875 28.125 60.625 28.125C58.5469 28.125 57.0781 26.25 57.0781 23.2969C57.0781 20.3438 58.5469 18.4688 60.625 18.4531ZM60.625 19.5469C59.2344 19.5625 58.2656 21.0312 58.2656 23.2969C58.2656 25.5625 59.2344 27.0312 60.625 27.0312C62.0156 27.0312 62.9844 25.5625 62.9844 23.2969C62.9844 21.0312 62.0156 19.5625 60.625 19.5469ZM73.725 18.4531C75.6156 18.4688 76.975 20.0859 77.1781 22.6875H80.2875V17.375H81.5063V31.2969H80.2875V23.7031H77.1938C77.0453 26.4219 75.6625 28.125 73.725 28.125C71.6781 28.125 70.2406 26.25 70.2406 23.2969C70.2406 20.3438 71.6781 18.4688 73.725 18.4531ZM73.725 19.5469C72.35 19.5625 71.4125 21.0312 71.4125 23.2969C71.4125 25.5625 72.35 27.0312 73.725 27.0312C75.0844 27.0312 76.0375 25.5625 76.0375 23.2969C76.0375 21.0312 75.0844 19.5625 73.725 19.5469ZM85.4031 18.5312V20.6562H89.9188V18.5312H91.1375V24.7812H88.2781V27.2656C89.5594 27.2188 90.8484 27.125 92.0438 26.9688L92.1219 27.8906C89.1844 28.3594 85.8875 28.4062 83.45 28.4219L83.2469 27.375C84.3797 27.3672 85.6844 27.3594 87.0438 27.3125V24.7812H84.1844V18.5312H85.4031ZM85.4031 23.7812H89.9188V21.6094H85.4031V23.7812ZM94.1531 17.375V23.2188H96.4188V24.25H94.1531V31.2656H92.9344V17.375H94.1531ZM109.566 28.4531V29.4844H96.8469V28.4531H100.003V24.7031C98.8156 24.0859 98.0969 23.0859 98.0969 21.8281C98.0969 19.6719 100.206 18.2656 103.175 18.25C106.144 18.2656 108.253 19.6719 108.253 21.8281C108.253 23.0625 107.558 24.0547 106.409 24.6719V28.4531H109.566ZM103.175 19.2656C100.894 19.25 99.2844 20.2812 99.2844 21.8281C99.2844 23.375 100.894 24.4219 103.175 24.4219C105.441 24.4219 107.066 23.375 107.066 21.8281C107.066 20.2812 105.441 19.25 103.175 19.2656ZM101.206 28.4531H105.175V25.1406C104.573 25.3047 103.902 25.3906 103.175 25.3906C102.464 25.3906 101.8 25.3125 101.206 25.1562V28.4531ZM126.547 25.7812V26.8125H120.812V31.2969H119.609V26.8125H113.891V25.7812H126.547ZM120.828 20.125C120.828 21.8594 123.25 23.375 125.734 23.7188L125.281 24.7031C123.133 24.375 121.109 23.2969 120.234 21.7812C119.344 23.3125 117.289 24.375 115.141 24.7031L114.688 23.7188C117.156 23.375 119.609 21.875 119.609 20.125V20.1094H115.125V19.1094H119.609V17.375H120.812V19.1094H125.328V20.1094H120.828V20.125ZM138.069 17.375V23.0312H140.319V24.0625H138.069V31.2656H136.85V17.375H138.069ZM134.475 18.875C134.475 22.8125 132.631 26.3906 128.1 28.625L127.412 27.6562C131.006 25.8672 132.959 23.1953 133.241 19.9062H128.053V18.875H134.475Z" fill="#111111"/>
</g>
<defs>
<filter id="filter0_dii_247_1630" x="0" y="-2" width="165" height="54" filterUnits="userSpaceOnUse" color-interpolation-filters="sRGB">
<feFlood flood-opacity="0" result="BackgroundImageFix"/>
<feColorMatrix in="SourceAlpha" type="matrix" values="0 0 0 0 0 0 0 0 0 0 0 0 0 0 0 0 0 0 127 0" result="hardAlpha"/>
<feOffset dx="2" dy="2"/>
<feGaussianBlur stdDeviation="2"/>
<feComposite in2="hardAlpha" operator="out"/>
<feColorMatrix type="matrix" values="0 0 0 0 0 0 0 0 0 0 0 0 0 0 0 0 0 0 0.7 0"/>
<feBlend mode="multiply" in2="BackgroundImageFix" result="effect1_dropShadow_247_1630"/>
<feBlend mode="normal" in="SourceGraphic" in2="effect1_dropShadow_247_1630" result="shape"/>
<feColorMatrix in="SourceAlpha" type="matrix" values="0 0 0 0 0 0 0 0 0 0 0 0 0 0 0 0 0 0 127 0" result="hardAlpha"/>
<feOffset dy="4"/>
<feGaussianBlur stdDeviation="2"/>
<feComposite in2="hardAlpha" operator="arithmetic" k2="-1" k3="1"/>
<feColorMatrix type="matrix" values="0 0 0 0 1 0 0 0 0 1 0 0 0 0 1 0 0 0 0.2 0"/>
<feBlend mode="normal" in2="shape" result="effect2_innerShadow_247_1630"/>
<feColorMatrix in="SourceAlpha" type="matrix" values="0 0 0 0 0 0 0 0 0 0 0 0 0 0 0 0 0 0 127 0" result="hardAlpha"/>
<feOffset dy="-4"/>
<feGaussianBlur stdDeviation="2"/>
<feComposite in2="hardAlpha" operator="arithmetic" k2="-1" k3="1"/>
<feColorMatrix type="matrix" values="0 0 0 0 0 0 0 0 0 0 0 0 0 0 0 0 0 0 0.2 0"/>
<feBlend mode="normal" in2="effect2_innerShadow_247_1630" result="effect3_innerShadow_247_1630"/>
</filter>
</defs>
</svg>
