<svg width="57" height="56" viewBox="0 0 57 56" fill="none" xmlns="http://www.w3.org/2000/svg">
<path d="M32.2139 17.1111V38.8889H7.85672V17.1111H32.2139ZM32.9053 14H7.1653C5.81387 14 4.71387 15.0889 4.71387 16.4267V39.5733C4.71387 40.9111 5.81387 42 7.1653 42H32.9053C34.2567 42 35.3567 40.9111 35.3567 39.5733V16.4267C35.3567 15.0889 34.2567 14 32.9053 14Z" fill="black"/>
<path d="M48.7139 21.0467V34.9378L35.3567 30.4267V25.5422L48.7139 21.0311M49.1696 17.7645C48.7767 17.7645 48.3682 17.8422 47.9596 18.0134L32.2139 23.3178V32.6511L47.9596 37.9556C48.3524 38.1267 48.761 38.2045 49.1696 38.2045C50.5839 38.2045 51.8567 37.2245 51.8567 35.8711V20.1134C51.8567 18.76 50.5682 17.78 49.1696 17.78V17.7645Z" fill="black"/>
</svg>
