<svg width="165" height="52" viewBox="0 0 165 52" fill="none" xmlns="http://www.w3.org/2000/svg">
<g filter="url(#filter0_dii_247_1625)">
<rect x="2" y="2" width="157" height="44" rx="6" fill="#FFCE1B"/>
<path d="M37 17V16.5H36.5H21H20.5V17V31V31.5H21H36.5H37V31V17ZM20.56 15.5H36.94C37.5239 15.5 38 15.9761 38 16.56V31.44C38 32.0239 37.5239 32.5 36.94 32.5H20.56C19.9761 32.5 19.5 32.0239 19.5 31.44V16.56C19.5 15.9761 19.9761 15.5 20.56 15.5Z" fill="#111111" stroke="black"/>
<mask id="path-3-inside-1_247_1625" fill="white">
<path d="M47 19.53V28.46L38.5 25.56V22.42L47 19.52M47.29 17.42C47.04 17.42 46.78 17.47 46.52 17.58L36.5 20.99V26.99L46.52 30.4C46.77 30.51 47.03 30.56 47.29 30.56C48.19 30.56 49 29.93 49 29.06V18.93C49 18.06 48.18 17.43 47.29 17.43V17.42Z"/>
</mask>
<path d="M47 19.53V28.46L38.5 25.56V22.42L47 19.52M47.29 17.42C47.04 17.42 46.78 17.47 46.52 17.58L36.5 20.99V26.99L46.52 30.4C46.77 30.51 47.03 30.56 47.29 30.56C48.19 30.56 49 29.93 49 29.06V18.93C49 18.06 48.18 17.43 47.29 17.43V17.42Z" fill="black"/>
<path d="M47 28.46L46.6771 29.4064L48 29.8578V28.46H47ZM38.5 25.56H37.5V26.2754L38.1771 26.5064L38.5 25.56ZM38.5 22.42L38.1771 21.4736L37.5 21.7046V22.42H38.5ZM47.29 17.42H48.29V16.42H47.29V17.42ZM46.52 17.58L46.8422 18.5267L46.8764 18.5151L46.9096 18.501L46.52 17.58ZM36.5 20.99L36.1778 20.0433L35.5 20.274V20.99H36.5ZM36.5 26.99H35.5V27.706L36.1778 27.9367L36.5 26.99ZM46.52 30.4L46.9227 29.4847L46.8831 29.4673L46.8422 29.4533L46.52 30.4ZM47.29 17.43H46.29V18.43H47.29V17.43ZM46 19.53V28.46H48V19.53H46ZM47.3229 27.5136L38.8229 24.6136L38.1771 26.5064L46.6771 29.4064L47.3229 27.5136ZM39.5 25.56V22.42H37.5V25.56H39.5ZM38.8229 23.3664L47.3229 20.4664L46.6771 18.5736L38.1771 21.4736L38.8229 23.3664ZM47.29 16.42C46.9048 16.42 46.5124 16.4974 46.1304 16.659L46.9096 18.501C47.0476 18.4426 47.1752 18.42 47.29 18.42V16.42ZM46.1978 16.6333L36.1778 20.0433L36.8222 21.9367L46.8422 18.5267L46.1978 16.6333ZM35.5 20.99V26.99H37.5V20.99H35.5ZM36.1778 27.9367L46.1978 31.3467L46.8422 29.4533L36.8222 26.0433L36.1778 27.9367ZM46.1173 31.3153C46.5017 31.4845 46.8998 31.56 47.29 31.56V29.56C47.1602 29.56 47.0383 29.5355 46.9227 29.4847L46.1173 31.3153ZM47.29 31.56C48.5781 31.56 50 30.6333 50 29.06H48C48 29.1635 47.9572 29.2709 47.837 29.3725C47.7093 29.4804 47.5128 29.56 47.29 29.56V31.56ZM50 29.06V18.93H48V29.06H50ZM50 18.93C50 17.3534 48.5641 16.43 47.29 16.43V18.43C47.506 18.43 47.7038 18.5085 47.8347 18.6188C47.9583 18.7228 48 18.8306 48 18.93H50ZM48.29 17.43V17.42H46.29V17.43H48.29Z" fill="black" mask="url(#path-3-inside-1_247_1625)"/>
<path d="M67.5469 17.3594V22.8438H69.5781V23.8906H67.5469V31.2656H66.3281V17.3594H67.5469ZM60.5156 18.8438V19.8594H58.2031V26.5781C58.8906 26.5625 59.7344 26.5 60.6562 26.2969L60.7812 27.3281C59.4688 27.6094 58.4219 27.625 57.5938 27.625H56.9844V18.8438H60.5156ZM65.0156 18.8438V19.8594H62.5312V26.5938C63.6172 26.5781 64.4844 26.5078 65.4688 26.2656L65.5938 27.2969C64.375 27.5938 63.3906 27.625 61.9844 27.625H61.3125V18.8438H65.0156ZM80.7406 17.375V22.9062H83.0688V23.9375H80.7406V31.2969H79.5219V17.375H80.7406ZM76.85 18.6719V23.6406H71.7875V26.8906C74.3656 26.8906 76.1625 26.8047 78.2719 26.4062L78.3969 27.4219C76.2094 27.8281 74.35 27.9219 71.6781 27.9375H70.5688V22.625H75.6313V19.6875H70.5375V18.6719H76.85ZM90.3563 19.7812V20.7812H83.3875V19.7812H86.2781V17.7969H87.4969V19.7812H90.3563ZM86.8719 21.7188C88.6219 21.7188 89.8719 23.0312 89.8875 24.875C89.8719 26.7344 88.6219 28.0625 86.8719 28.0625C85.1375 28.0625 83.8875 26.7344 83.8875 24.875C83.8875 23.0312 85.1375 21.7188 86.8719 21.7188ZM86.8719 22.75C85.7781 22.7656 84.9813 23.6562 84.9813 24.875C84.9813 26.1094 85.7781 27 86.8719 26.9844C87.9813 27 88.7938 26.1094 88.7938 24.875C88.7938 23.6562 87.9813 22.7656 86.8719 22.75ZM95.2469 17.375V31.2656H94.075V24.25H92.2313V30.5781H91.075V17.7188H92.2313V23.2344H94.075V17.375H95.2469ZM109.566 28.4531V29.4844H96.8469V28.4531H100.003V24.7031C98.8156 24.0859 98.0969 23.0859 98.0969 21.8281C98.0969 19.6719 100.206 18.2656 103.175 18.25C106.144 18.2656 108.253 19.6719 108.253 21.8281C108.253 23.0625 107.558 24.0547 106.409 24.6719V28.4531H109.566ZM103.175 19.2656C100.894 19.25 99.2844 20.2812 99.2844 21.8281C99.2844 23.375 100.894 24.4219 103.175 24.4219C105.441 24.4219 107.066 23.375 107.066 21.8281C107.066 20.2812 105.441 19.25 103.175 19.2656ZM101.206 28.4531H105.175V25.1406C104.573 25.3047 103.902 25.3906 103.175 25.3906C102.464 25.3906 101.8 25.3125 101.206 25.1562V28.4531ZM126.547 25.7812V26.8125H120.812V31.2969H119.609V26.8125H113.891V25.7812H126.547ZM120.828 20.125C120.828 21.8594 123.25 23.375 125.734 23.7188L125.281 24.7031C123.133 24.375 121.109 23.2969 120.234 21.7812C119.344 23.3125 117.289 24.375 115.141 24.7031L114.688 23.7188C117.156 23.375 119.609 21.875 119.609 20.125V20.1094H115.125V19.1094H119.609V17.375H120.812V19.1094H125.328V20.1094H120.828V20.125ZM138.069 17.375V23.0312H140.319V24.0625H138.069V31.2656H136.85V17.375H138.069ZM134.475 18.875C134.475 22.8125 132.631 26.3906 128.1 28.625L127.412 27.6562C131.006 25.8672 132.959 23.1953 133.241 19.9062H128.053V18.875H134.475Z" fill="#111111"/>
</g>
<defs>
<filter id="filter0_dii_247_1625" x="0" y="-2" width="165" height="54" filterUnits="userSpaceOnUse" color-interpolation-filters="sRGB">
<feFlood flood-opacity="0" result="BackgroundImageFix"/>
<feColorMatrix in="SourceAlpha" type="matrix" values="0 0 0 0 0 0 0 0 0 0 0 0 0 0 0 0 0 0 127 0" result="hardAlpha"/>
<feOffset dx="2" dy="2"/>
<feGaussianBlur stdDeviation="2"/>
<feComposite in2="hardAlpha" operator="out"/>
<feColorMatrix type="matrix" values="0 0 0 0 0 0 0 0 0 0 0 0 0 0 0 0 0 0 0.7 0"/>
<feBlend mode="multiply" in2="BackgroundImageFix" result="effect1_dropShadow_247_1625"/>
<feBlend mode="normal" in="SourceGraphic" in2="effect1_dropShadow_247_1625" result="shape"/>
<feColorMatrix in="SourceAlpha" type="matrix" values="0 0 0 0 0 0 0 0 0 0 0 0 0 0 0 0 0 0 127 0" result="hardAlpha"/>
<feOffset dy="4"/>
<feGaussianBlur stdDeviation="2"/>
<feComposite in2="hardAlpha" operator="arithmetic" k2="-1" k3="1"/>
<feColorMatrix type="matrix" values="0 0 0 0 1 0 0 0 0 1 0 0 0 0 1 0 0 0 0.2 0"/>
<feBlend mode="normal" in2="shape" result="effect2_innerShadow_247_1625"/>
<feColorMatrix in="SourceAlpha" type="matrix" values="0 0 0 0 0 0 0 0 0 0 0 0 0 0 0 0 0 0 127 0" result="hardAlpha"/>
<feOffset dy="-4"/>
<feGaussianBlur stdDeviation="2"/>
<feComposite in2="hardAlpha" operator="arithmetic" k2="-1" k3="1"/>
<feColorMatrix type="matrix" values="0 0 0 0 0 0 0 0 0 0 0 0 0 0 0 0 0 0 0.2 0"/>
<feBlend mode="normal" in2="effect2_innerShadow_247_1625" result="effect3_innerShadow_247_1625"/>
</filter>
</defs>
</svg>
